<?xml version="1.0" standalone="no"?>
<!DOCTYPE svg PUBLIC "-//W3C//DTD SVG 20010904//EN"
 "http://www.w3.org/TR/2001/REC-SVG-20010904/DTD/svg10.dtd">
<svg version="1.0" xmlns="http://www.w3.org/2000/svg"
 width="500.000000pt" height="500.000000pt" viewBox="0 0 500.000000 500.000000"
 preserveAspectRatio="xMidYMid meet">

<g transform="translate(0.000000,500.000000) scale(0.100000,-0.100000)"
fill="#000000" stroke="none">
<path d="M2336 4090 c-249 -29 -498 -116 -698 -245 -232 -151 -440 -380 -561
-620 -80 -160 -113 -257 -153 -445 -26 -121 -25 -427 0 -560 20 -102 60 -245
74 -264 5 -6 17 -33 27 -61 84 -232 295 -504 525 -677 120 -90 316 -192 457
-237 503 -162 1034 -71 1460 250 301 228 509 559 594 948 33 148 38 427 11
586 -98 576 -516 1066 -1066 1250 -197 66 -475 97 -670 75z m544 -692 c36
-187 190 -338 379 -370 l71 -12 0 -188 0 -188 -63 0 c-133 0 -246 36 -344 111
l-53 40 0 -358 c0 -270 -4 -374 -14 -425 -47 -221 -235 -411 -454 -457 -73
-15 -216 -14 -280 3 -448 120 -603 676 -277 1001 117 117 254 175 414 175 l81
0 0 -175 0 -175 -71 0 c-84 0 -127 -17 -180 -73 -53 -54 -73 -112 -67 -190 6
-72 23 -111 70 -158 103 -102 275 -97 374 13 60 67 64 86 64 295 0 103 3 414
7 691 l6 502 162 0 162 0 13 -62z"/>
</g>
</svg>
