<svg xmlns="http://www.w3.org/2000/svg" xmlns:xlink="http://www.w3.org/1999/xlink" width="500" zoomAndPan="magnify" viewBox="0 0 375 374.999991" height="500" preserveAspectRatio="xMidYMid meet" version="1.0"><defs><clipPath id="f503bbe370"><path d="M 32 176 L 358 176 L 358 324 L 32 324 Z M 32 176 " clip-rule="nonzero"/></clipPath><clipPath id="2c25fb3ccb"><path d="M 17.71875 284.683594 L 351.226562 160.386719 L 374.84375 223.753906 L 41.335938 348.050781 Z M 17.71875 284.683594 " clip-rule="nonzero"/></clipPath><clipPath id="a85c729edd"><path d="M 17.71875 284.683594 L 351.226562 160.386719 L 374.84375 223.753906 L 41.335938 348.050781 Z M 17.71875 284.683594 " clip-rule="nonzero"/></clipPath><clipPath id="0124d14d91"><path d="M 26 37 L 251 37 L 251 324 L 26 324 Z M 26 37 " clip-rule="nonzero"/></clipPath><clipPath id="bf66eaf1fd"><path d="M 0 297.132812 L 231.199219 26.53125 L 282.613281 70.460938 L 51.414062 341.0625 Z M 0 297.132812 " clip-rule="nonzero"/></clipPath><clipPath id="99ed08833b"><path d="M 0 297.132812 L 231.199219 26.53125 L 282.613281 70.460938 L 51.414062 341.0625 Z M 0 297.132812 " clip-rule="nonzero"/></clipPath></defs><g clip-path="url(#f503bbe370)"><g clip-path="url(#2c25fb3ccb)"><g clip-path="url(#a85c729edd)"><path fill="#5ce1e6" d="M 32.195312 323.03125 C 32.222656 321.296875 32.332031 319.867188 32.703125 318.484375 C 35.488281 308.082031 39.71875 298.355469 46.257812 289.722656 C 53.03125 280.78125 61.261719 273.433594 70.71875 267.457031 C 78.382812 262.617188 86.609375 259.003906 95.246094 256.265625 C 109.835938 251.636719 124.832031 249.652344 140.085938 249.277344 C 151.394531 248.996094 162.675781 249.605469 173.957031 250.273438 C 185.886719 250.980469 197.816406 251.679688 209.773438 251.679688 C 221.402344 251.675781 232.972656 250.984375 244.460938 249.136719 C 253.152344 247.738281 261.703125 245.722656 270.109375 243.089844 C 277.3125 240.835938 284.324219 238.09375 291.132812 234.851562 C 298.929688 231.140625 306.34375 226.765625 313.453125 221.878906 C 322.710938 215.515625 331.535156 208.621094 339.570312 200.746094 C 343.808594 196.59375 347.621094 192.082031 350.964844 187.183594 C 353.078125 184.085938 354.777344 180.742188 356.585938 177.464844 C 356.730469 177.203125 356.789062 176.886719 357.121094 176.660156 C 357.40625 178.589844 357.40625 180.46875 357.007812 182.355469 C 354.351562 194.792969 348.820312 205.792969 340.515625 215.417969 C 334.042969 222.921875 326.683594 229.472656 318.84375 235.496094 C 310.382812 242 301.453125 247.792969 292.089844 252.910156 C 286.78125 255.808594 281.332031 258.433594 275.761719 260.8125 C 271.191406 262.765625 266.5625 264.546875 261.851562 266.117188 C 255.613281 268.199219 249.285156 269.960938 242.878906 271.445312 C 220.449219 276.632812 197.664062 278.601562 174.703125 279.003906 C 162.40625 279.21875 150.109375 279.019531 137.816406 279.117188 C 126.121094 279.214844 114.441406 279.621094 102.820312 281.03125 C 94.339844 282.058594 85.957031 283.578125 77.785156 286.09375 C 63.289062 290.554688 51.050781 298.511719 41.117188 309.984375 C 40.03125 311.238281 39.035156 312.5625 38.152344 313.957031 C 36.335938 316.824219 34.28125 319.539062 32.628906 322.511719 C 32.570312 322.617188 32.472656 322.703125 32.195312 323.03125 Z M 32.195312 323.03125 " fill-opacity="1" fill-rule="nonzero"/></g></g></g><g clip-path="url(#0124d14d91)"><g clip-path="url(#bf66eaf1fd)"><g clip-path="url(#99ed08833b)"><path fill="#c1ff72" d="M 31.273438 323.625 C 30.457031 322.097656 29.859375 320.792969 29.511719 319.40625 C 26.894531 308.960938 25.871094 298.402344 27.394531 287.679688 C 28.972656 276.574219 32.601562 266.15625 37.96875 256.339844 C 42.316406 248.386719 47.753906 241.230469 53.972656 234.644531 C 64.480469 223.511719 76.628906 214.496094 89.777344 206.761719 C 99.527344 201.027344 109.6875 196.082031 119.871094 191.1875 C 130.644531 186.011719 141.414062 180.832031 151.867188 175.023438 C 162.03125 169.375 171.8125 163.152344 180.957031 155.957031 C 187.875 150.515625 194.371094 144.601562 200.441406 138.21875 C 205.644531 132.75 210.441406 126.949219 214.820312 120.808594 C 219.835938 113.78125 224.191406 106.355469 228.035156 98.628906 C 233.035156 88.574219 237.402344 78.261719 240.601562 67.476562 C 242.289062 61.785156 243.433594 55.992188 243.980469 50.085938 C 244.324219 46.351562 244.183594 42.601562 244.175781 38.859375 C 244.175781 38.558594 244.070312 38.253906 244.25 37.894531 C 245.4375 39.441406 246.351562 41.085938 246.917969 42.929688 C 250.636719 55.09375 251.140625 67.394531 248.554688 79.839844 C 246.539062 89.546875 243.289062 98.84375 239.359375 107.917969 C 235.121094 117.710938 230.128906 127.113281 224.425781 136.128906 C 221.191406 141.242188 217.703125 146.183594 213.988281 150.96875 C 210.941406 154.894531 207.757812 158.699219 204.40625 162.359375 C 199.964844 167.207031 195.285156 171.824219 190.40625 176.230469 C 173.316406 191.65625 154.355469 204.4375 134.476562 215.941406 C 123.832031 222.101562 112.984375 227.894531 102.285156 233.953125 C 92.105469 239.714844 82.097656 245.738281 72.617188 252.617188 C 65.703125 257.632812 59.113281 263.03125 53.191406 269.199219 C 42.6875 280.136719 35.851562 293.035156 32.738281 307.890625 C 32.398438 309.511719 32.167969 311.152344 32.074219 312.804688 C 31.882812 316.191406 31.402344 319.5625 31.402344 322.960938 C 31.402344 323.082031 31.359375 323.203125 31.273438 323.625 Z M 31.273438 323.625 " fill-opacity="1" fill-rule="nonzero"/></g></g></g></svg>