<svg xmlns="http://www.w3.org/2000/svg" xmlns:xlink="http://www.w3.org/1999/xlink" width="500" zoomAndPan="magnify" viewBox="0 0 375 374.999991" height="500" preserveAspectRatio="xMidYMid meet" version="1.0"><defs><g/></defs><g fill="#38b6ff" fill-opacity="1"><g transform="translate(0.0133265, 44.051299)"><g><path d="M 16.40625 -18.234375 L 29.28125 -18.234375 L 29.28125 -1.40625 C 27.195312 -0.71875 25.234375 -0.238281 23.390625 0.03125 C 21.546875 0.300781 19.660156 0.4375 17.734375 0.4375 C 12.835938 0.4375 9.097656 -1 6.515625 -3.875 C 3.929688 -6.75 2.640625 -10.882812 2.640625 -16.28125 C 2.640625 -21.519531 4.140625 -25.601562 7.140625 -28.53125 C 10.140625 -31.457031 14.296875 -32.921875 19.609375 -32.921875 C 22.929688 -32.921875 26.140625 -32.253906 29.234375 -30.921875 L 26.953125 -25.421875 C 24.585938 -26.609375 22.125 -27.203125 19.5625 -27.203125 C 16.582031 -27.203125 14.195312 -26.203125 12.40625 -24.203125 C 10.613281 -22.203125 9.71875 -19.515625 9.71875 -16.140625 C 9.71875 -12.617188 10.4375 -9.925781 11.875 -8.0625 C 13.320312 -6.207031 15.425781 -5.28125 18.1875 -5.28125 C 19.625 -5.28125 21.082031 -5.429688 22.5625 -5.734375 L 22.5625 -12.5 L 16.40625 -12.5 Z M 16.40625 -18.234375 "/></g></g></g><g fill="#38b6ff" fill-opacity="1"><g transform="translate(32.937573, 44.051299)"><g><path d="M 10.96875 -18.046875 L 13.1875 -18.046875 C 15.363281 -18.046875 16.96875 -18.40625 18 -19.125 C 19.039062 -19.851562 19.5625 -21 19.5625 -22.5625 C 19.5625 -24.09375 19.03125 -25.179688 17.96875 -25.828125 C 16.914062 -26.484375 15.273438 -26.8125 13.046875 -26.8125 L 10.96875 -26.8125 Z M 10.96875 -12.453125 L 10.96875 0 L 4.078125 0 L 4.078125 -32.453125 L 13.546875 -32.453125 C 17.953125 -32.453125 21.210938 -31.648438 23.328125 -30.046875 C 25.453125 -28.441406 26.515625 -26.003906 26.515625 -22.734375 C 26.515625 -20.828125 25.988281 -19.128906 24.9375 -17.640625 C 23.882812 -16.148438 22.394531 -14.984375 20.46875 -14.140625 C 25.351562 -6.847656 28.535156 -2.132812 30.015625 0 L 22.375 0 L 14.625 -12.453125 Z M 10.96875 -12.453125 "/></g></g></g><g fill="#38b6ff" fill-opacity="1"><g transform="translate(62.953468, 44.051299)"><g><path d="M 30.5 -32.453125 L 30.5 -11.453125 C 30.5 -9.054688 29.960938 -6.953125 28.890625 -5.140625 C 27.816406 -3.335938 26.265625 -1.957031 24.234375 -1 C 22.210938 -0.0390625 19.816406 0.4375 17.046875 0.4375 C 12.878906 0.4375 9.640625 -0.628906 7.328125 -2.765625 C 5.015625 -4.898438 3.859375 -7.828125 3.859375 -11.546875 L 3.859375 -32.453125 L 10.71875 -32.453125 L 10.71875 -12.59375 C 10.71875 -10.09375 11.222656 -8.253906 12.234375 -7.078125 C 13.242188 -5.910156 14.910156 -5.328125 17.234375 -5.328125 C 19.484375 -5.328125 21.113281 -5.914062 22.125 -7.09375 C 23.132812 -8.269531 23.640625 -10.113281 23.640625 -12.625 L 23.640625 -32.453125 Z M 30.5 -32.453125 "/></g></g></g><g fill="#38b6ff" fill-opacity="1"><g transform="translate(97.32078, 44.051299)"><g><path d="M 10.96875 -17.1875 L 13.234375 -17.1875 C 15.347656 -17.1875 16.929688 -17.601562 17.984375 -18.4375 C 19.035156 -19.269531 19.5625 -20.488281 19.5625 -22.09375 C 19.5625 -23.707031 19.117188 -24.894531 18.234375 -25.65625 C 17.359375 -26.425781 15.976562 -26.8125 14.09375 -26.8125 L 10.96875 -26.8125 Z M 26.515625 -22.328125 C 26.515625 -18.835938 25.421875 -16.164062 23.234375 -14.3125 C 21.046875 -12.46875 17.941406 -11.546875 13.921875 -11.546875 L 10.96875 -11.546875 L 10.96875 0 L 4.078125 0 L 4.078125 -32.453125 L 14.453125 -32.453125 C 18.390625 -32.453125 21.382812 -31.601562 23.4375 -29.90625 C 25.488281 -28.21875 26.515625 -25.691406 26.515625 -22.328125 Z M 26.515625 -22.328125 "/></g></g></g><g fill="#38b6ff" fill-opacity="1"><g transform="translate(125.871402, 44.051299)"><g><path d="M 33.546875 -16.28125 C 33.546875 -10.90625 32.210938 -6.773438 29.546875 -3.890625 C 26.878906 -1.003906 23.0625 0.4375 18.09375 0.4375 C 13.125 0.4375 9.304688 -1.003906 6.640625 -3.890625 C 3.972656 -6.773438 2.640625 -10.914062 2.640625 -16.3125 C 2.640625 -21.71875 3.972656 -25.84375 6.640625 -28.6875 C 9.316406 -31.539062 13.148438 -32.96875 18.140625 -32.96875 C 23.128906 -32.96875 26.941406 -31.53125 29.578125 -28.65625 C 32.222656 -25.789062 33.546875 -21.664062 33.546875 -16.28125 Z M 9.859375 -16.28125 C 9.859375 -12.644531 10.546875 -9.910156 11.921875 -8.078125 C 13.296875 -6.242188 15.351562 -5.328125 18.09375 -5.328125 C 23.582031 -5.328125 26.328125 -8.976562 26.328125 -16.28125 C 26.328125 -23.582031 23.597656 -27.234375 18.140625 -27.234375 C 15.398438 -27.234375 13.332031 -26.3125 11.9375 -24.46875 C 10.550781 -22.632812 9.859375 -19.90625 9.859375 -16.28125 Z M 9.859375 -16.28125 "/></g></g></g><g fill="#38b6ff" fill-opacity="1"><g transform="translate(162.059205, 44.051299)"><g/></g></g><g fill="#38b6ff" fill-opacity="1"><g transform="translate(173.870193, 44.051299)"><g><path d="M 4.078125 0 L 4.078125 -32.453125 L 10.96875 -32.453125 L 10.96875 -5.6875 L 24.140625 -5.6875 L 24.140625 0 Z M 4.078125 0 "/></g></g></g><g fill="#38b6ff" fill-opacity="1"><g transform="translate(199.556879, 44.051299)"><g><path d="M 30.6875 0 L 23.828125 0 L 23.828125 -14.015625 L 10.96875 -14.015625 L 10.96875 0 L 4.078125 0 L 4.078125 -32.453125 L 10.96875 -32.453125 L 10.96875 -19.734375 L 23.828125 -19.734375 L 23.828125 -32.453125 L 30.6875 -32.453125 Z M 30.6875 0 "/></g></g></g><g fill="#38b6ff" fill-opacity="1"><g transform="translate(234.346006, 44.051299)"><g><path d="M 33.546875 -16.28125 C 33.546875 -10.90625 32.210938 -6.773438 29.546875 -3.890625 C 26.878906 -1.003906 23.0625 0.4375 18.09375 0.4375 C 13.125 0.4375 9.304688 -1.003906 6.640625 -3.890625 C 3.972656 -6.773438 2.640625 -10.914062 2.640625 -16.3125 C 2.640625 -21.71875 3.972656 -25.84375 6.640625 -28.6875 C 9.316406 -31.539062 13.148438 -32.96875 18.140625 -32.96875 C 23.128906 -32.96875 26.941406 -31.53125 29.578125 -28.65625 C 32.222656 -25.789062 33.546875 -21.664062 33.546875 -16.28125 Z M 9.859375 -16.28125 C 9.859375 -12.644531 10.546875 -9.910156 11.921875 -8.078125 C 13.296875 -6.242188 15.351562 -5.328125 18.09375 -5.328125 C 23.582031 -5.328125 26.328125 -8.976562 26.328125 -16.28125 C 26.328125 -23.582031 23.597656 -27.234375 18.140625 -27.234375 C 15.398438 -27.234375 13.332031 -26.3125 11.9375 -24.46875 C 10.550781 -22.632812 9.859375 -19.90625 9.859375 -16.28125 Z M 9.859375 -16.28125 "/></g></g></g><g fill="#38b6ff" fill-opacity="1"><g transform="translate(270.533822, 44.051299)"><g><path d="M 17.828125 0 L 10.015625 -25.46875 L 9.8125 -25.46875 C 10.09375 -20.28125 10.234375 -16.820312 10.234375 -15.09375 L 10.234375 0 L 4.078125 0 L 4.078125 -32.453125 L 13.453125 -32.453125 L 21.140625 -7.640625 L 21.265625 -7.640625 L 29.421875 -32.453125 L 38.78125 -32.453125 L 38.78125 0 L 32.375 0 L 32.375 -15.359375 C 32.375 -16.085938 32.382812 -16.925781 32.40625 -17.875 C 32.425781 -18.820312 32.523438 -21.335938 32.703125 -25.421875 L 32.5 -25.421875 L 24.140625 0 Z M 17.828125 0 "/></g></g></g><g fill="#38b6ff" fill-opacity="1"><g transform="translate(313.404163, 44.051299)"><g><path d="M 30.1875 0 L 22.375 0 L 13.875 -13.671875 L 10.96875 -11.59375 L 10.96875 0 L 4.078125 0 L 4.078125 -32.453125 L 10.96875 -32.453125 L 10.96875 -17.609375 L 13.671875 -21.421875 L 22.46875 -32.453125 L 30.109375 -32.453125 L 18.78125 -18.09375 Z M 30.1875 0 "/></g></g></g><g fill="#38b6ff" fill-opacity="1"><g transform="translate(343.597667, 44.051299)"><g><path d="M 23.953125 0 L 21.609375 -7.71875 L 9.765625 -7.71875 L 7.421875 0 L 0 0 L 11.453125 -32.59375 L 19.875 -32.59375 L 31.375 0 Z M 19.953125 -13.5 C 17.785156 -20.5 16.5625 -24.457031 16.28125 -25.375 C 16.007812 -26.289062 15.816406 -27.015625 15.703125 -27.546875 C 15.210938 -25.648438 13.8125 -20.96875 11.5 -13.5 Z M 19.953125 -13.5 "/></g></g></g><g fill="#38b6ff" fill-opacity="1"><g transform="translate(133.805816, 107.144123)"><g><path d="M 23.25 -9.015625 C 23.25 -6.085938 22.191406 -3.78125 20.078125 -2.09375 C 17.972656 -0.40625 15.039062 0.4375 11.28125 0.4375 C 7.8125 0.4375 4.75 -0.210938 2.09375 -1.515625 L 2.09375 -7.90625 C 4.28125 -6.925781 6.128906 -6.234375 7.640625 -5.828125 C 9.160156 -5.429688 10.550781 -5.234375 11.8125 -5.234375 C 13.320312 -5.234375 14.476562 -5.519531 15.28125 -6.09375 C 16.09375 -6.675781 16.5 -7.539062 16.5 -8.6875 C 16.5 -9.320312 16.320312 -9.882812 15.96875 -10.375 C 15.613281 -10.875 15.085938 -11.351562 14.390625 -11.8125 C 13.703125 -12.269531 12.300781 -13.003906 10.1875 -14.015625 C 8.207031 -14.941406 6.71875 -15.832031 5.71875 -16.6875 C 4.726562 -17.550781 3.9375 -18.550781 3.34375 -19.6875 C 2.757812 -20.832031 2.46875 -22.164062 2.46875 -23.6875 C 2.46875 -26.5625 3.4375 -28.816406 5.375 -30.453125 C 7.320312 -32.097656 10.015625 -32.921875 13.453125 -32.921875 C 15.140625 -32.921875 16.75 -32.71875 18.28125 -32.3125 C 19.8125 -31.914062 21.414062 -31.359375 23.09375 -30.640625 L 20.875 -25.28125 C 19.132812 -26 17.695312 -26.5 16.5625 -26.78125 C 15.4375 -27.0625 14.328125 -27.203125 13.234375 -27.203125 C 11.929688 -27.203125 10.929688 -26.894531 10.234375 -26.28125 C 9.535156 -25.675781 9.1875 -24.882812 9.1875 -23.90625 C 9.1875 -23.300781 9.328125 -22.769531 9.609375 -22.3125 C 9.890625 -21.863281 10.335938 -21.425781 10.953125 -21 C 11.566406 -20.582031 13.019531 -19.828125 15.3125 -18.734375 C 18.351562 -17.285156 20.4375 -15.832031 21.5625 -14.375 C 22.6875 -12.914062 23.25 -11.128906 23.25 -9.015625 Z M 23.25 -9.015625 "/></g></g></g><g fill="#38b6ff" fill-opacity="1"><g transform="translate(158.848663, 107.144123)"><g><path d="M 2.59375 -3.171875 C 2.59375 -4.421875 2.925781 -5.363281 3.59375 -6 C 4.257812 -6.632812 5.226562 -6.953125 6.5 -6.953125 C 7.726562 -6.953125 8.679688 -6.625 9.359375 -5.96875 C 10.035156 -5.320312 10.375 -4.390625 10.375 -3.171875 C 10.375 -2.003906 10.03125 -1.082031 9.34375 -0.40625 C 8.664062 0.257812 7.71875 0.59375 6.5 0.59375 C 5.257812 0.59375 4.296875 0.265625 3.609375 -0.390625 C 2.929688 -1.046875 2.59375 -1.972656 2.59375 -3.171875 Z M 2.59375 -3.171875 "/></g></g></g><g fill="#38b6ff" fill-opacity="1"><g transform="translate(171.814109, 107.144123)"><g><path d="M 23.953125 0 L 21.609375 -7.71875 L 9.765625 -7.71875 L 7.421875 0 L 0 0 L 11.453125 -32.59375 L 19.875 -32.59375 L 31.375 0 Z M 19.953125 -13.5 C 17.785156 -20.5 16.5625 -24.457031 16.28125 -25.375 C 16.007812 -26.289062 15.816406 -27.015625 15.703125 -27.546875 C 15.210938 -25.648438 13.8125 -20.96875 11.5 -13.5 Z M 19.953125 -13.5 "/></g></g></g><g fill="#38b6ff" fill-opacity="1"><g transform="translate(203.184278, 107.144123)"><g><path d="M 2.59375 -3.171875 C 2.59375 -4.421875 2.925781 -5.363281 3.59375 -6 C 4.257812 -6.632812 5.226562 -6.953125 6.5 -6.953125 C 7.726562 -6.953125 8.679688 -6.625 9.359375 -5.96875 C 10.035156 -5.320312 10.375 -4.390625 10.375 -3.171875 C 10.375 -2.003906 10.03125 -1.082031 9.34375 -0.40625 C 8.664062 0.257812 7.71875 0.59375 6.5 0.59375 C 5.257812 0.59375 4.296875 0.265625 3.609375 -0.390625 C 2.929688 -1.046875 2.59375 -1.972656 2.59375 -3.171875 Z M 2.59375 -3.171875 "/></g></g></g><g fill="#38b6ff" fill-opacity="1"><g transform="translate(216.149724, 107.144123)"><g><path d="M 23.25 -9.015625 C 23.25 -6.085938 22.191406 -3.78125 20.078125 -2.09375 C 17.972656 -0.40625 15.039062 0.4375 11.28125 0.4375 C 7.8125 0.4375 4.75 -0.210938 2.09375 -1.515625 L 2.09375 -7.90625 C 4.28125 -6.925781 6.128906 -6.234375 7.640625 -5.828125 C 9.160156 -5.429688 10.550781 -5.234375 11.8125 -5.234375 C 13.320312 -5.234375 14.476562 -5.519531 15.28125 -6.09375 C 16.09375 -6.675781 16.5 -7.539062 16.5 -8.6875 C 16.5 -9.320312 16.320312 -9.882812 15.96875 -10.375 C 15.613281 -10.875 15.085938 -11.351562 14.390625 -11.8125 C 13.703125 -12.269531 12.300781 -13.003906 10.1875 -14.015625 C 8.207031 -14.941406 6.71875 -15.832031 5.71875 -16.6875 C 4.726562 -17.550781 3.9375 -18.550781 3.34375 -19.6875 C 2.757812 -20.832031 2.46875 -22.164062 2.46875 -23.6875 C 2.46875 -26.5625 3.4375 -28.816406 5.375 -30.453125 C 7.320312 -32.097656 10.015625 -32.921875 13.453125 -32.921875 C 15.140625 -32.921875 16.75 -32.71875 18.28125 -32.3125 C 19.8125 -31.914062 21.414062 -31.359375 23.09375 -30.640625 L 20.875 -25.28125 C 19.132812 -26 17.695312 -26.5 16.5625 -26.78125 C 15.4375 -27.0625 14.328125 -27.203125 13.234375 -27.203125 C 11.929688 -27.203125 10.929688 -26.894531 10.234375 -26.28125 C 9.535156 -25.675781 9.1875 -24.882812 9.1875 -23.90625 C 9.1875 -23.300781 9.328125 -22.769531 9.609375 -22.3125 C 9.890625 -21.863281 10.335938 -21.425781 10.953125 -21 C 11.566406 -20.582031 13.019531 -19.828125 15.3125 -18.734375 C 18.351562 -17.285156 20.4375 -15.832031 21.5625 -14.375 C 22.6875 -12.914062 23.25 -11.128906 23.25 -9.015625 Z M 23.25 -9.015625 "/></g></g></g></svg>