<svg xmlns="http://www.w3.org/2000/svg" xmlns:xlink="http://www.w3.org/1999/xlink" width="500" zoomAndPan="magnify" viewBox="0 0 375 374.999991" height="500" preserveAspectRatio="xMidYMid meet" version="1.0"><defs><clipPath id="ee8e79c65f"><path d="M 0 128.660156 L 375 128.660156 L 375 246.410156 L 0 246.410156 Z M 0 128.660156 " clip-rule="nonzero"/></clipPath></defs><g clip-path="url(#ee8e79c65f)"><path fill="#e61d2b" d="M 262.699219 137.71875 C 262.699219 137.71875 255.667969 140.519531 247.492188 149.535156 C 239.316406 158.550781 234.554688 168.6875 238.078125 171.386719 C 239.433594 172.410156 242.554688 172.605469 248.21875 167.480469 C 250.832031 165.210938 253.148438 162.671875 255.175781 159.863281 C 257.199219 157.054688 258.875 154.050781 260.203125 150.851562 C 263.863281 141.925781 262.699219 137.828125 262.699219 137.730469 M 307.441406 153.9375 C 298.359375 149.277344 291.71875 143.566406 284.808594 140.035156 C 278.21875 136.648438 273.957031 135.234375 268.628906 135.949219 C 267.886719 136.082031 267.152344 136.265625 266.433594 136.496094 C 266.433594 136.496094 269.179688 145.875 258.257812 161.625 C 247.199219 177.597656 237.164062 177.484375 234.3125 173.101562 C 231.324219 168.46875 235.183594 159.03125 241.628906 150.632812 C 248.375 141.847656 260.226562 134.5625 260.226562 134.5625 C 260.226562 134.5625 256.449219 132.25 247.167969 137.515625 C 238.117188 142.628906 222.53125 154.828125 208.070312 175.40625 C 193.609375 195.984375 190.742188 207.304688 188.671875 216.21875 C 186.597656 225.128906 188.480469 234.675781 198.359375 234.675781 C 208.234375 234.675781 219.734375 219.601562 222.976562 214.363281 C 229.007812 204.601562 232.9375 189.632812 224.734375 191.6875 C 220.691406 192.699219 217.417969 197.179688 215.351562 201.492188 C 214.042969 204.269531 213.050781 207.15625 212.375 210.152344 C 209.492188 211.34375 206.824219 212.894531 204.371094 214.816406 C 201.644531 216.832031 199.113281 219.070312 196.773438 221.523438 C 196.773438 221.523438 196.808594 214.398438 202.484375 202.871094 C 208.160156 191.339844 218.582031 186.074219 224.484375 185.582031 C 229.800781 185.15625 236.71875 189.667969 230.855469 206.324219 C 224.988281 222.976562 207.6875 243.222656 189.511719 243.472656 C 172.738281 243.707031 161.765625 222.289062 185.109375 184.910156 C 210.949219 143.617188 241.253906 130.945312 251.09375 129.535156 C 260.9375 128.128906 264.136719 132.472656 264.136719 132.472656 C 270.136719 130.007812 276.375 128.980469 282.847656 129.382812 C 294.863281 130.195312 304.15625 138.707031 316.421875 144.683594 C 313.234375 147.734375 310.191406 150.9375 307.449219 153.9375 M 361.429688 140.035156 C 353.101562 145.378906 341.578125 150.222656 330.503906 149.1875 C 327.703125 152.085938 324.703125 155.4375 321.695312 159.097656 C 340.894531 162.898438 357.714844 151 366.660156 140.867188 C 369.933594 137.207031 372.710938 133.207031 375 128.867188 C 370.914062 133.125 366.386719 136.847656 361.421875 140.035156 M 335.859375 194.160156 C 336.003906 193.90625 336.121094 193.636719 336.210938 193.359375 C 336.183594 193.140625 336.121094 192.929688 336.019531 192.734375 C 335.917969 192.535156 335.789062 192.359375 335.628906 192.207031 C 335.46875 192.054688 335.289062 191.929688 335.085938 191.839844 C 334.882812 191.75 334.671875 191.695312 334.449219 191.675781 C 332.621094 191.589844 330.128906 191.9375 323.585938 199.183594 C 318.136719 205.191406 313.503906 211.773438 309.679688 218.925781 C 305.9375 225.769531 304.417969 230.871094 306.570312 232.1875 C 307.296875 232.566406 308.050781 232.640625 308.835938 232.421875 C 310.296875 232.074219 311.945312 230.707031 314.460938 227.796875 C 315.636719 226.429688 316.941406 224.496094 318.5 222.355469 C 322.828125 216.460938 333.707031 197.910156 335.859375 194.160156 M 267.902344 202.039062 C 268.996094 199.183594 270.386719 193.578125 267.496094 191.375 C 264.390625 189.039062 256.480469 194.523438 256.4375 200.148438 C 256.382812 205.90625 262.007812 208.511719 263.355469 208.878906 C 264.125 209.085938 264.390625 209.054688 264.765625 208.441406 C 265.960938 206.378906 267.007812 204.246094 267.902344 202.039062 M 261.917969 212.515625 C 259.945312 211.605469 258.132812 210.449219 256.480469 209.042969 C 254.8125 207.644531 253.453125 205.992188 252.40625 204.082031 C 252.296875 203.902344 252.1875 204.042969 252.066406 204.207031 C 251.941406 204.371094 251.453125 204.816406 247.234375 211 C 243.015625 217.1875 236.535156 230.003906 242.402344 232.1875 C 246.15625 233.585938 252.40625 227.003906 255.8125 222.640625 C 258.140625 219.59375 260.238281 216.394531 262.113281 213.050781 C 262.289062 212.679688 262.113281 212.59375 261.921875 212.515625 M 328.449219 227.320312 C 326.859375 229.871094 325.042969 234.761719 330.28125 231.71875 C 336.6875 228.015625 345.816406 214.160156 345.816406 214.160156 L 349.953125 214.160156 C 346.183594 219.964844 342 225.457031 337.40625 230.632812 C 330.914062 237.832031 322.996094 244.371094 317.414062 243.722656 C 310.898438 242.960938 312.941406 234.402344 312.941406 234.402344 C 312.941406 234.402344 303.617188 244.335938 297.167969 243.621094 C 288.457031 242.65625 291.113281 231.882812 291.113281 231.882812 C 291.113281 231.882812 281.261719 243.980469 274.550781 243.609375 C 264.027344 243 266.671875 230.1875 269.597656 221.164062 C 271.164062 216.339844 272.617188 212.550781 272.617188 212.550781 C 272.617188 212.550781 271.574219 212.824219 269.332031 213.160156 C 268.160156 213.324219 266.027344 213.449219 266.027344 213.449219 C 266.027344 213.449219 261.644531 221.183594 258.136719 225.832031 C 254.632812 230.480469 239.730469 246.507812 230.964844 243.296875 C 222.855469 240.332031 225.539062 227.914062 230.257812 218.042969 C 237.144531 203.652344 256.523438 182.976562 267.695312 185.710938 C 279.28125 188.523438 267.960938 209.671875 267.960938 209.671875 C 267.960938 209.671875 267.960938 209.75 268.082031 209.804688 C 268.3125 209.890625 268.917969 209.957031 270.3125 209.683594 C 271.761719 209.386719 273.175781 208.96875 274.550781 208.421875 C 274.550781 208.421875 286.195312 184.019531 299.058594 168.054688 C 311.921875 152.089844 337.585938 124.59375 347.65625 131.246094 C 350.09375 132.878906 348.996094 138.511719 345.679688 145.34375 C 344.1875 145.828125 342.667969 146.234375 341.132812 146.5625 C 343.351562 142.53125 344.820312 139.132812 345.261719 136.761719 C 346.777344 128.511719 327.53125 145.910156 313.777344 164.601562 C 305.476562 175.890625 298.140625 187.769531 291.765625 200.246094 C 294.253906 198.730469 296.621094 197.039062 298.863281 195.175781 C 305.003906 190.082031 310.824219 184.644531 316.324219 178.863281 C 321.621094 173.4375 326.574219 167.71875 331.1875 161.699219 C 332.652344 161.628906 334.109375 161.476562 335.558594 161.246094 C 330.53125 168.078125 325.0625 174.542969 319.160156 180.632812 C 313.671875 186.183594 307.734375 192.15625 302.578125 196.496094 C 297.964844 200.417969 293.117188 204.023438 288.03125 207.3125 C 288.03125 207.3125 276 231.585938 282.542969 233.140625 C 286.390625 234.066406 293.984375 222.359375 293.984375 222.359375 C 293.984375 222.359375 303.898438 207.226562 309.875 200.398438 C 318.027344 191.125 325.042969 185.757812 332.054688 185.660156 C 336.140625 185.585938 338.546875 189.929688 338.546875 189.929688 L 340.46875 186.953125 L 352.296875 186.953125 C 352.296875 186.953125 330.207031 224.460938 328.4375 227.285156 M 361.421875 140.035156 C 353.09375 145.378906 341.570312 150.222656 330.5 149.1875 C 327.695312 152.085938 324.695312 155.4375 321.691406 159.097656 C 340.886719 162.898438 357.710938 151 366.652344 140.867188 C 369.929688 137.207031 372.710938 133.210938 375 128.867188 C 370.914062 133.125 366.386719 136.847656 361.421875 140.035156 M 195.316406 158.433594 L 184.066406 158.433594 L 177.707031 168.714844 L 188.957031 168.714844 Z M 142.054688 194.03125 C 146.839844 187.464844 160.046875 164.460938 160.046875 164.460938 C 160.019531 164.242188 159.953125 164.035156 159.855469 163.835938 C 159.753906 163.636719 159.625 163.460938 159.464844 163.308594 C 159.304688 163.15625 159.125 163.035156 158.921875 162.941406 C 158.722656 162.851562 158.511719 162.796875 158.289062 162.777344 C 156.460938 162.691406 153.414062 163.308594 147.359375 170.890625 C 141.304688 178.472656 136.605469 184.507812 133.179688 190.785156 C 129.421875 197.636719 127.78125 202.46875 129.941406 203.777344 C 130.664062 204.140625 131.417969 204.21875 132.203125 204.011719 C 133.605469 203.65625 135.441406 202.246094 137.957031 199.351562 C 139.140625 197.996094 140.480469 196.171875 142.054688 194.03125 M 81.695312 162.917969 C 78.585938 160.570312 70.679688 166.066406 70.636719 171.679688 C 70.589844 177.445312 77.753906 179.207031 78.679688 179.25 C 78.957031 179.273438 79.21875 179.21875 79.464844 179.085938 C 79.632812 178.984375 79.761719 178.847656 79.84375 178.667969 C 80.6875 177.011719 81.441406 175.316406 82.109375 173.582031 C 83.203125 170.726562 84.585938 165.121094 81.695312 162.917969 M 77.007812 182.761719 C 74.855469 182.089844 72.824219 181.15625 70.910156 179.957031 C 69.035156 178.734375 67.582031 177.125 66.558594 175.132812 C 66.449219 174.949219 66.328125 175.089844 66.21875 175.253906 C 66.105469 175.417969 65.472656 176.210938 61.242188 182.421875 C 57.011719 188.632812 50.742188 201.332031 56.613281 203.515625 C 60.359375 204.9375 66.679688 198.300781 70.113281 193.957031 C 72.683594 190.542969 75.054688 186.992188 77.222656 183.304688 C 77.363281 182.933594 77.222656 182.847656 77.015625 182.78125 M 168.878906 186.589844 L 173 186.589844 C 173 186.589844 152.351562 216.480469 140.6875 215.089844 C 134.175781 214.328125 136.109375 206.285156 136.109375 206.285156 C 136.109375 206.285156 126.964844 217 118.5625 214.828125 C 110.941406 212.867188 115.863281 200.1875 115.863281 200.1875 C 114.996094 200.535156 98.503906 219.132812 86.914062 214.675781 C 74.789062 209.988281 81.085938 194.414062 83.390625 189.730469 C 85.347656 185.78125 87.511719 181.9375 87.511719 181.9375 C 87.511719 181.9375 85.652344 182.464844 84.464844 182.734375 C 83.277344 183 81.554688 183.34375 81.554688 183.34375 C 81.554688 183.34375 75.820312 192.671875 72.3125 197.324219 C 68.808594 201.980469 53.90625 217.972656 45.128906 214.789062 C 36.347656 211.605469 38.527344 199.3125 43.457031 189.554688 C 51.457031 173.722656 70.4375 154.269531 81.867188 157.21875 C 93.414062 160.167969 83.855469 178.90625 83.855469 178.90625 C 83.855469 178.90625 86.152344 179.207031 91.660156 175.449219 C 99.585938 170.039062 110.046875 155.480469 121.375 157.191406 C 126.714844 157.996094 131.691406 163.457031 124.886719 173.824219 C 122.714844 177.15625 119.074219 180.132812 116.289062 177.1875 C 114.550781 175.355469 116.070312 172.019531 117.894531 169.738281 C 118.613281 168.792969 119.511719 168.074219 120.59375 167.582031 C 121.671875 167.085938 122.804688 166.875 123.988281 166.945312 C 123.988281 166.945312 125.863281 162.675781 121.101562 162.734375 C 117.246094 162.808594 107.492188 171.792969 101.988281 180.871094 C 96.9375 189.203125 89.289062 203.402344 96.96875 206.492188 C 104.011719 209.335938 117.410156 193.421875 123.617188 185.082031 C 129.824219 176.742188 143.96875 157.84375 155.832031 157.085938 C 159.917969 156.816406 162.351562 160.546875 162.351562 160.546875 L 163.722656 158.375 L 175.585938 158.375 C 175.585938 158.375 153.242188 195.683594 151.5 198.507812 C 150.125 200.714844 148.304688 205.683594 153.328125 202.902344 C 158.351562 200.117188 168.878906 186.589844 168.878906 186.589844 M 162.425781 246.371094 C 160.253906 244.867188 157.976562 243.550781 155.597656 242.414062 C 153.214844 241.277344 150.757812 240.339844 148.222656 239.601562 C 145.691406 238.859375 143.113281 238.328125 140.496094 238.003906 C 137.875 237.679688 135.246094 237.566406 132.609375 237.667969 C 131.175781 237.707031 129.761719 237.910156 128.375 238.285156 C 126.984375 238.65625 125.660156 239.183594 124.394531 239.871094 C 123.132812 240.554688 121.964844 241.378906 120.894531 242.339844 C 119.824219 243.300781 118.882812 244.371094 118.0625 245.554688 C 113.539062 237.65625 104.597656 232.804688 90.769531 232.914062 C 68.425781 233.171875 46.261719 243.480469 28.703125 243.46875 C 11.875 243.46875 -0.394531 232.882812 0 214.089844 C 0.738281 181.105469 28.59375 151.402344 49.382812 138.035156 C 61.371094 130.355469 71.394531 128.074219 77.945312 128.8125 C 82.726562 129.339844 88.476562 134.867188 84.847656 143.011719 C 79.519531 154.914062 72.160156 153.9375 72.4375 148.246094 C 72.589844 144.542969 75.050781 142.214844 76.90625 140.925781 C 78.082031 140.113281 80.160156 139.882812 81.246094 139.859375 C 82.300781 138.96875 83.074219 132.453125 74.539062 134.59375 C 66.003906 136.734375 55.640625 145.152344 45.800781 156.03125 C 35.957031 166.90625 20.636719 187.464844 16.851562 209.054688 C 15.082031 219.066406 16.242188 237.324219 39.964844 237.117188 C 60.082031 236.953125 89.738281 223.695312 116.992188 223.972656 C 127.570312 224.074219 136.773438 226.929688 143.949219 231.359375 C 151 235.703125 159.449219 242.046875 162.449219 246.378906 " fill-opacity="1" fill-rule="nonzero"/></g></svg>