<svg xmlns="http://www.w3.org/2000/svg" xmlns:xlink="http://www.w3.org/1999/xlink" width="500" zoomAndPan="magnify" viewBox="0 0 375 374.999991" height="500" preserveAspectRatio="xMidYMid meet" version="1.0"><defs><clipPath id="58ccc534dd"><path d="M 8 179.71875 L 94 179.71875 L 94 218.71875 L 8 218.71875 Z M 8 179.71875 " clip-rule="nonzero"/></clipPath><clipPath id="0e3f5b1131"><path d="M 4.636719 208.222656 L 91.777344 175.742188 L 98.066406 192.609375 L 10.921875 225.089844 Z M 4.636719 208.222656 " clip-rule="nonzero"/></clipPath><clipPath id="d9e32b23b4"><path d="M 4.636719 208.222656 L 91.777344 175.742188 L 98.066406 192.609375 L 10.921875 225.089844 Z M 4.636719 208.222656 " clip-rule="nonzero"/></clipPath><clipPath id="eb4cc6a0c7"><path d="M 6 143 L 66 143 L 66 218.71875 L 6 218.71875 Z M 6 143 " clip-rule="nonzero"/></clipPath><clipPath id="2df225b1a8"><path d="M 0.00390625 211.472656 L 60.414062 140.765625 L 74.097656 152.457031 L 13.6875 223.164062 Z M 0.00390625 211.472656 " clip-rule="nonzero"/></clipPath><clipPath id="7762d35822"><path d="M 0.00390625 211.472656 L 60.414062 140.765625 L 74.097656 152.457031 L 13.6875 223.164062 Z M 0.00390625 211.472656 " clip-rule="nonzero"/></clipPath></defs><g clip-path="url(#58ccc534dd)"><g clip-path="url(#0e3f5b1131)"><g clip-path="url(#d9e32b23b4)"><path fill="#5ce1e6" d="M 8.4375 218.234375 C 8.445312 217.78125 8.476562 217.410156 8.570312 217.046875 C 9.300781 214.328125 10.40625 211.785156 12.113281 209.53125 C 13.882812 207.195312 16.035156 205.273438 18.507812 203.710938 C 20.507812 202.445312 22.660156 201.503906 24.914062 200.785156 C 28.730469 199.578125 32.648438 199.058594 36.632812 198.960938 C 39.589844 198.886719 42.539062 199.046875 45.484375 199.222656 C 48.605469 199.40625 51.722656 199.589844 54.847656 199.589844 C 57.886719 199.585938 60.910156 199.40625 63.910156 198.921875 C 66.183594 198.558594 68.417969 198.03125 70.613281 197.34375 C 72.496094 196.753906 74.328125 196.039062 76.109375 195.191406 C 78.144531 194.222656 80.082031 193.078125 81.941406 191.800781 C 84.359375 190.136719 86.667969 188.335938 88.765625 186.277344 C 89.875 185.191406 90.871094 184.011719 91.746094 182.734375 C 92.296875 181.925781 92.742188 181.050781 93.214844 180.195312 C 93.253906 180.125 93.265625 180.042969 93.351562 179.984375 C 93.429688 180.488281 93.429688 180.980469 93.324219 181.472656 C 92.628906 184.722656 91.183594 187.597656 89.015625 190.113281 C 87.324219 192.074219 85.398438 193.785156 83.351562 195.359375 C 81.140625 197.058594 78.804688 198.574219 76.359375 199.910156 C 74.972656 200.667969 73.546875 201.351562 72.089844 201.976562 C 70.898438 202.484375 69.6875 202.949219 68.457031 203.363281 C 66.828125 203.90625 65.171875 204.367188 63.496094 204.753906 C 57.636719 206.109375 51.683594 206.625 45.679688 206.730469 C 42.46875 206.785156 39.253906 206.734375 36.039062 206.757812 C 32.984375 206.785156 29.933594 206.890625 26.894531 207.257812 C 24.679688 207.527344 22.488281 207.925781 20.351562 208.582031 C 16.566406 209.746094 13.367188 211.828125 10.769531 214.824219 C 10.488281 215.152344 10.226562 215.5 9.996094 215.863281 C 9.519531 216.613281 8.984375 217.324219 8.550781 218.097656 C 8.535156 218.128906 8.511719 218.148438 8.4375 218.234375 Z M 8.4375 218.234375 " fill-opacity="1" fill-rule="nonzero"/></g></g></g><g clip-path="url(#eb4cc6a0c7)"><g clip-path="url(#2df225b1a8)"><g clip-path="url(#7762d35822)"><path fill="#c1ff72" d="M 8.191406 218.378906 C 7.976562 217.980469 7.820312 217.640625 7.730469 217.277344 C 7.046875 214.546875 6.777344 211.789062 7.175781 208.984375 C 7.585938 206.082031 8.535156 203.359375 9.9375 200.796875 C 11.074219 198.71875 12.496094 196.847656 14.121094 195.125 C 16.867188 192.214844 20.042969 189.859375 23.480469 187.839844 C 26.027344 186.339844 28.683594 185.046875 31.34375 183.769531 C 34.160156 182.414062 36.972656 181.0625 39.707031 179.542969 C 42.359375 178.070312 44.917969 176.441406 47.308594 174.5625 C 49.113281 173.140625 50.8125 171.59375 52.398438 169.925781 C 53.757812 168.496094 55.011719 166.980469 56.15625 165.375 C 57.46875 163.539062 58.605469 161.597656 59.609375 159.578125 C 60.917969 156.953125 62.058594 154.257812 62.894531 151.4375 C 63.335938 149.949219 63.632812 148.4375 63.777344 146.894531 C 63.867188 145.917969 63.832031 144.9375 63.828125 143.960938 C 63.828125 143.882812 63.800781 143.800781 63.847656 143.707031 C 64.160156 144.113281 64.398438 144.542969 64.542969 145.023438 C 65.515625 148.203125 65.648438 151.417969 64.972656 154.667969 C 64.445312 157.207031 63.597656 159.636719 62.570312 162.007812 C 61.460938 164.566406 60.15625 167.023438 58.667969 169.378906 C 57.820312 170.714844 56.910156 172.007812 55.941406 173.257812 C 55.144531 174.285156 54.3125 175.277344 53.433594 176.234375 C 52.273438 177.5 51.050781 178.707031 49.777344 179.859375 C 45.308594 183.890625 40.355469 187.230469 35.160156 190.238281 C 32.378906 191.847656 29.542969 193.363281 26.746094 194.945312 C 24.085938 196.449219 21.472656 198.023438 18.996094 199.824219 C 17.1875 201.132812 15.464844 202.542969 13.917969 204.15625 C 11.171875 207.015625 9.386719 210.386719 8.570312 214.265625 C 8.484375 214.691406 8.421875 215.121094 8.398438 215.550781 C 8.347656 216.4375 8.222656 217.316406 8.222656 218.207031 C 8.222656 218.238281 8.210938 218.269531 8.191406 218.378906 Z M 8.191406 218.378906 " fill-opacity="1" fill-rule="nonzero"/></g></g></g><path fill="#ffffff" d="M 114.761719 195.410156 C 114.03125 195.410156 113.472656 195.191406 113.089844 194.753906 C 112.703125 194.316406 112.511719 193.808594 112.511719 193.222656 C 112.511719 192.640625 112.703125 192.125 113.089844 191.675781 C 113.472656 191.230469 114.03125 191.003906 114.761719 191.003906 C 113.5625 191.003906 112.753906 190.792969 112.339844 190.363281 C 111.921875 189.925781 111.921875 189.5 112.339844 189.082031 C 112.753906 188.667969 113.5625 188.457031 114.761719 188.457031 C 113.824219 188.457031 113.113281 188.125 112.636719 187.457031 C 112.15625 186.792969 111.917969 186.027344 111.917969 185.160156 C 111.917969 184.285156 112.15625 183.515625 112.636719 182.847656 C 113.113281 182.183594 113.824219 181.847656 114.761719 181.847656 C 113.761719 181.847656 113.09375 181.667969 112.761719 181.300781 C 112.425781 180.9375 112.425781 180.574219 112.761719 180.207031 C 113.09375 179.84375 113.761719 179.660156 114.761719 179.660156 C 113.925781 179.660156 113.300781 179.378906 112.886719 178.816406 C 112.46875 178.246094 112.261719 177.59375 112.261719 176.863281 C 112.261719 176.125 112.46875 175.472656 112.886719 174.910156 C 113.300781 174.339844 113.925781 174.050781 114.761719 174.050781 C 113.488281 174.050781 112.636719 173.894531 112.199219 173.582031 C 111.769531 173.261719 111.769531 172.933594 112.199219 172.597656 C 112.636719 172.265625 113.488281 172.097656 114.761719 172.097656 C 113.988281 172.097656 113.410156 171.816406 113.027344 171.253906 C 112.652344 170.691406 112.464844 170.046875 112.464844 169.316406 C 112.464844 168.578125 112.652344 167.925781 113.027344 167.363281 C 113.410156 166.792969 113.988281 166.503906 114.761719 166.503906 C 114.324219 165.535156 114.269531 164.785156 114.605469 164.253906 C 114.9375 163.722656 115.410156 163.515625 116.027344 163.628906 C 116.652344 163.746094 117.175781 164.285156 117.605469 165.253906 C 117.605469 164.484375 117.878906 163.902344 118.433594 163.503906 C 118.984375 163.109375 119.609375 162.910156 120.308594 162.910156 C 121.003906 162.910156 121.628906 163.109375 122.183594 163.503906 C 122.734375 163.902344 123.011719 164.484375 123.011719 165.253906 C 123.011719 164.484375 123.234375 163.917969 123.683594 163.550781 C 124.128906 163.1875 124.636719 163.003906 125.199219 163.003906 C 125.769531 163.003906 126.28125 163.1875 126.730469 163.550781 C 127.1875 163.917969 127.417969 164.484375 127.417969 165.253906 C 127.417969 164.390625 127.671875 163.734375 128.183594 163.285156 C 128.703125 162.828125 129.3125 162.597656 130.011719 162.597656 C 130.707031 162.597656 131.3125 162.828125 131.824219 163.285156 C 132.34375 163.734375 132.605469 164.390625 132.605469 165.253906 C 132.605469 164.621094 132.84375 164.121094 133.324219 163.753906 C 133.8125 163.390625 134.40625 163.140625 135.105469 163.003906 C 135.8125 162.871094 136.515625 162.871094 137.214844 163.003906 C 137.910156 163.140625 138.496094 163.402344 138.964844 163.785156 C 139.433594 164.160156 139.667969 164.667969 139.667969 165.300781 C 141 165.300781 141.878906 165.503906 142.308594 165.910156 C 142.746094 166.308594 142.746094 166.707031 142.308594 167.113281 C 141.878906 167.511719 141 167.707031 139.667969 167.707031 C 140.53125 167.707031 141.175781 167.933594 141.605469 168.378906 C 142.042969 168.828125 142.261719 169.339844 142.261719 169.910156 C 142.261719 170.472656 142.042969 170.980469 141.605469 171.425781 C 141.175781 171.875 140.53125 172.097656 139.667969 172.097656 C 139.832031 173.097656 139.699219 173.800781 139.261719 174.207031 C 138.824219 174.605469 138.34375 174.675781 137.824219 174.425781 C 137.3125 174.175781 136.972656 173.550781 136.808594 172.550781 C 136.808594 173.457031 136.574219 174.0625 136.105469 174.363281 C 135.644531 174.65625 135.183594 174.65625 134.714844 174.363281 C 134.246094 174.0625 134.011719 173.457031 134.011719 172.550781 C 134.011719 173.15625 133.75 173.609375 133.230469 173.910156 C 132.71875 174.203125 132.109375 174.347656 131.402344 174.347656 C 130.703125 174.347656 130.09375 174.203125 129.574219 173.910156 C 129.0625 173.609375 128.808594 173.15625 128.808594 172.550781 C 128.808594 173.488281 128.65625 174.140625 128.355469 174.503906 C 128.0625 174.871094 127.765625 174.9375 127.464844 174.707031 C 127.359375 175.105469 127.15625 175.421875 126.855469 175.660156 C 127.292969 176.121094 127.441406 176.683594 127.308594 177.347656 C 127.609375 177.453125 127.871094 177.667969 128.089844 177.988281 C 128.308594 178.300781 128.417969 178.722656 128.417969 179.253906 C 128.417969 178.421875 128.613281 177.863281 129.011719 177.582031 C 129.40625 177.300781 129.800781 177.300781 130.199219 177.582031 C 130.605469 177.863281 130.808594 178.421875 130.808594 179.253906 C 130.808594 178.558594 131.097656 178.035156 131.683594 177.691406 C 132.265625 177.339844 132.9375 177.160156 133.699219 177.160156 C 134.46875 177.160156 135.144531 177.339844 135.730469 177.691406 C 136.3125 178.035156 136.605469 178.558594 136.605469 179.253906 C 137.269531 178.921875 137.871094 178.890625 138.402344 179.160156 C 138.941406 179.421875 139.355469 179.839844 139.636719 180.410156 C 139.917969 180.972656 139.988281 181.546875 139.855469 182.128906 C 139.730469 182.714844 139.332031 183.15625 138.667969 183.457031 C 139.125 183.957031 139.324219 184.484375 139.261719 185.035156 C 139.199219 185.578125 138.964844 186.050781 138.558594 186.457031 C 138.160156 186.855469 137.6875 187.078125 137.136719 187.128906 C 136.582031 187.183594 136.074219 186.972656 135.605469 186.503906 C 135.605469 187.441406 135.324219 188.152344 134.761719 188.628906 C 134.199219 189.109375 133.546875 189.347656 132.808594 189.347656 C 132.078125 189.347656 131.425781 189.109375 130.855469 188.628906 C 130.292969 188.152344 130.011719 187.441406 130.011719 186.503906 C 130.011719 187.503906 129.691406 188.25 129.058594 188.738281 C 128.421875 189.21875 127.753906 189.421875 127.058594 189.347656 C 126.890625 189.753906 126.589844 190.09375 126.152344 190.363281 C 125.722656 190.625 125.175781 190.738281 124.511719 190.707031 C 125.28125 190.84375 125.847656 191.230469 126.214844 191.863281 C 126.578125 192.488281 126.746094 193.1875 126.714844 193.957031 C 126.683594 194.71875 126.4375 195.386719 125.980469 195.957031 C 125.53125 196.519531 124.875 196.800781 124.011719 196.800781 C 124.074219 197.574219 123.824219 198.175781 123.261719 198.613281 C 122.699219 199.039062 122.03125 199.285156 121.261719 199.347656 C 120.488281 199.417969 119.796875 199.277344 119.183594 198.925781 C 118.566406 198.582031 118.246094 198.027344 118.214844 197.253906 C 118.214844 198.121094 118.027344 198.75 117.652344 199.144531 C 117.285156 199.550781 116.871094 199.699219 116.402344 199.597656 C 115.941406 199.503906 115.546875 199.117188 115.214844 198.441406 C 114.878906 197.753906 114.730469 196.746094 114.761719 195.410156 Z M 114.761719 195.410156 " fill-opacity="1" fill-rule="nonzero"/><path fill="#ffffff" d="M 151.308594 194.003906 C 150.777344 194.003906 150.34375 193.769531 150.011719 193.300781 C 149.675781 192.832031 149.457031 192.261719 149.355469 191.582031 C 149.261719 190.894531 149.261719 190.203125 149.355469 189.503906 C 149.457031 188.808594 149.675781 188.222656 150.011719 187.753906 C 150.34375 187.285156 150.777344 187.050781 151.308594 187.050781 C 150.609375 187.050781 150.09375 186.800781 149.761719 186.300781 C 149.425781 185.800781 149.261719 185.21875 149.261719 184.550781 C 149.261719 183.886719 149.425781 183.300781 149.761719 182.800781 C 150.09375 182.300781 150.609375 182.050781 151.308594 182.050781 C 150.640625 182.050781 150.140625 181.753906 149.808594 181.160156 C 149.472656 180.558594 149.308594 179.863281 149.308594 179.082031 C 149.308594 178.300781 149.472656 177.609375 149.808594 177.003906 C 150.140625 176.402344 150.640625 176.097656 151.308594 176.097656 C 150.609375 176.097656 150.136719 175.933594 149.886719 175.597656 C 149.636719 175.265625 149.636719 174.933594 149.886719 174.597656 C 150.136719 174.265625 150.609375 174.097656 151.308594 174.097656 C 151.308594 173.597656 151.5625 173.21875 152.074219 172.957031 C 152.59375 172.6875 153.203125 172.550781 153.902344 172.550781 C 154.609375 172.550781 155.230469 172.671875 155.761719 172.910156 C 156.292969 173.140625 156.558594 173.503906 156.558594 174.003906 C 156.722656 173.402344 157.015625 172.972656 157.433594 172.722656 C 157.847656 172.472656 158.292969 172.390625 158.761719 172.472656 C 159.230469 172.558594 159.621094 172.777344 159.933594 173.128906 C 160.246094 173.484375 160.371094 173.941406 160.308594 174.503906 C 160.441406 174.109375 160.78125 173.8125 161.324219 173.613281 C 161.875 173.40625 162.472656 173.3125 163.121094 173.332031 C 163.777344 173.34375 164.34375 173.46875 164.824219 173.707031 C 165.3125 173.9375 165.574219 174.285156 165.605469 174.753906 C 165.511719 174.027344 165.769531 173.441406 166.386719 173.003906 C 167 172.566406 167.730469 172.292969 168.574219 172.175781 C 169.425781 172.0625 170.203125 172.144531 170.902344 172.425781 C 171.609375 172.707031 172.011719 173.203125 172.105469 173.910156 C 172.738281 173.941406 173.199219 174.277344 173.480469 174.910156 C 173.761719 175.535156 173.875 176.261719 173.824219 177.082031 C 173.78125 177.894531 173.59375 178.613281 173.261719 179.238281 C 172.925781 179.855469 172.441406 180.140625 171.808594 180.097656 C 172.339844 180.566406 172.550781 181.035156 172.449219 181.503906 C 172.355469 181.972656 172.082031 182.292969 171.636719 182.457031 C 171.1875 182.625 170.691406 182.472656 170.152344 182.003906 C 170.152344 182.503906 169.917969 182.90625 169.449219 183.207031 C 168.988281 183.511719 168.417969 183.703125 167.730469 183.785156 C 167.050781 183.871094 166.394531 183.84375 165.761719 183.707031 C 165.125 183.574219 164.640625 183.324219 164.308594 182.957031 C 164.410156 183.457031 164.269531 183.886719 163.886719 184.238281 C 163.5 184.582031 163.074219 184.703125 162.605469 184.597656 C 162.90625 185.140625 163.042969 185.839844 163.011719 186.691406 C 162.980469 187.535156 162.785156 188.285156 162.433594 188.941406 C 162.078125 189.589844 161.605469 189.890625 161.011719 189.847656 C 161.574219 189.847656 162.003906 190.050781 162.308594 190.457031 C 162.609375 190.855469 162.761719 191.3125 162.761719 191.832031 C 162.761719 192.34375 162.609375 192.800781 162.308594 193.207031 C 162.003906 193.605469 161.574219 193.800781 161.011719 193.800781 C 161.511719 193.96875 161.832031 194.28125 161.980469 194.738281 C 162.136719 195.1875 162.136719 195.652344 161.980469 196.128906 C 161.832031 196.609375 161.574219 197 161.199219 197.300781 C 160.832031 197.605469 160.402344 197.671875 159.902344 197.503906 C 159.902344 198.140625 159.621094 198.613281 159.058594 198.925781 C 158.496094 199.246094 157.828125 199.410156 157.058594 199.410156 C 156.285156 199.410156 155.609375 199.246094 155.027344 198.925781 C 154.441406 198.613281 154.152344 198.140625 154.152344 197.503906 C 154.152344 198.140625 154.015625 198.597656 153.746094 198.878906 C 153.484375 199.160156 153.160156 199.199219 152.777344 199.003906 C 152.402344 198.804688 152.066406 198.308594 151.777344 197.503906 C 151.496094 196.703125 151.339844 195.535156 151.308594 194.003906 Z M 151.308594 194.003906 " fill-opacity="1" fill-rule="nonzero"/><path fill="#ffffff" d="M 191.609375 197.847656 C 191.398438 198.558594 191.03125 199.011719 190.5 199.222656 C 189.96875 199.441406 189.410156 199.472656 188.828125 199.316406 C 188.242188 199.167969 187.769531 198.867188 187.40625 198.410156 C 187.039062 197.941406 186.957031 197.359375 187.15625 196.660156 C 186.789062 197.160156 186.359375 197.4375 185.859375 197.488281 C 185.359375 197.53125 184.898438 197.40625 184.484375 197.113281 C 184.066406 196.8125 183.796875 196.421875 183.671875 195.941406 C 183.554688 195.453125 183.703125 194.941406 184.109375 194.410156 C 183.609375 194.640625 183.109375 194.53125 182.609375 194.082031 C 182.109375 193.636719 181.691406 193.035156 181.359375 192.285156 C 181.023438 191.535156 180.859375 190.828125 180.859375 190.160156 C 180.859375 189.496094 181.109375 189.042969 181.609375 188.800781 C 181.003906 188.800781 180.550781 188.519531 180.25 187.957031 C 179.945312 187.386719 179.796875 186.71875 179.796875 185.957031 C 179.796875 185.1875 179.945312 184.519531 180.25 183.957031 C 180.550781 183.386719 180.984375 183.097656 181.546875 183.097656 C 180.648438 182.839844 180.117188 182.441406 179.953125 181.910156 C 179.785156 181.371094 179.910156 180.917969 180.328125 180.550781 C 180.742188 180.1875 181.398438 180.140625 182.296875 180.410156 C 182.003906 180.140625 181.914062 179.75 182.03125 179.238281 C 182.144531 178.71875 182.398438 178.175781 182.796875 177.613281 C 183.203125 177.042969 183.65625 176.53125 184.15625 176.082031 C 184.65625 175.636719 185.144531 175.3125 185.625 175.113281 C 186.113281 174.90625 186.503906 174.9375 186.796875 175.207031 C 186.628906 174.636719 186.785156 174.136719 187.265625 173.707031 C 187.753906 173.269531 188.363281 172.949219 189.09375 172.738281 C 189.832031 172.519531 190.519531 172.46875 191.15625 172.582031 C 191.789062 172.699219 192.191406 173.035156 192.359375 173.597656 C 192.390625 172.972656 192.757812 172.535156 193.46875 172.285156 C 194.1875 172.035156 194.988281 171.941406 195.875 172.003906 C 196.757812 172.066406 197.535156 172.285156 198.203125 172.660156 C 198.867188 173.027344 199.171875 173.527344 199.109375 174.160156 C 199.367188 173.527344 199.738281 173.183594 200.21875 173.128906 C 200.707031 173.078125 201.109375 173.238281 201.421875 173.613281 C 201.742188 173.980469 201.785156 174.472656 201.546875 175.097656 C 201.921875 174.734375 202.414062 174.675781 203.03125 174.925781 C 203.644531 175.175781 204.242188 175.589844 204.828125 176.160156 C 205.410156 176.722656 205.828125 177.324219 206.078125 177.957031 C 206.328125 178.59375 206.269531 179.09375 205.90625 179.457031 C 206.40625 179.355469 206.863281 179.519531 207.28125 179.957031 C 207.695312 180.386719 208.03125 180.953125 208.28125 181.660156 C 208.53125 182.359375 208.671875 183.082031 208.703125 183.832031 C 208.734375 184.582031 208.648438 185.246094 208.453125 185.816406 C 208.253906 186.378906 207.890625 186.707031 207.359375 186.800781 C 208.316406 187.238281 208.742188 187.566406 208.640625 187.785156 C 208.546875 187.996094 208.015625 187.886719 207.046875 187.457031 C 207.046875 187.886719 206.769531 188.207031 206.21875 188.425781 C 205.675781 188.644531 205.050781 188.753906 204.34375 188.753906 C 203.644531 188.753906 203.019531 188.644531 202.46875 188.425781 C 201.925781 188.207031 201.65625 187.886719 201.65625 187.457031 C 201.65625 188.019531 201.40625 188.449219 200.90625 188.738281 C 200.40625 189.019531 199.828125 189.171875 199.171875 189.191406 C 198.523438 189.203125 197.953125 189.066406 197.453125 188.785156 C 196.953125 188.496094 196.703125 188.082031 196.703125 187.550781 C 196.734375 188.125 196.457031 188.589844 195.875 188.941406 C 195.289062 189.285156 194.632812 189.488281 193.90625 189.550781 C 194.238281 189.957031 194.507812 190.386719 194.71875 190.832031 C 194.9375 191.28125 195.082031 191.6875 195.15625 192.050781 C 195.488281 191.6875 195.988281 191.375 196.65625 191.113281 C 197.320312 190.84375 198.003906 190.675781 198.703125 190.613281 C 199.398438 190.542969 200.023438 190.582031 200.578125 190.738281 C 201.128906 190.886719 201.453125 191.191406 201.546875 191.660156 C 201.546875 191.089844 201.769531 190.65625 202.21875 190.363281 C 202.675781 190.0625 203.203125 189.910156 203.796875 189.910156 C 204.398438 189.910156 204.925781 190.0625 205.375 190.363281 C 205.820312 190.65625 206.046875 191.089844 206.046875 191.660156 C 206.710938 191.785156 207.113281 192.058594 207.25 192.472656 C 207.382812 192.890625 207.300781 193.261719 207 193.582031 C 206.695312 193.894531 206.234375 193.984375 205.609375 193.847656 C 205.898438 194.285156 205.945312 194.730469 205.75 195.175781 C 205.550781 195.625 205.226562 196.011719 204.78125 196.332031 C 204.332031 196.644531 203.863281 196.824219 203.375 196.863281 C 202.894531 196.894531 202.503906 196.707031 202.203125 196.300781 C 202.398438 196.9375 202.304688 197.488281 201.921875 197.957031 C 201.546875 198.425781 201.039062 198.757812 200.40625 198.957031 C 199.769531 199.152344 199.160156 199.160156 198.578125 198.972656 C 197.992188 198.792969 197.601562 198.390625 197.40625 197.753906 C 197.46875 198.652344 197.222656 199.261719 196.671875 199.597656 C 196.128906 199.929688 195.398438 199.957031 194.484375 199.675781 C 193.566406 199.394531 192.609375 198.785156 191.609375 197.847656 Z M 193.65625 183.707031 C 193.65625 183.042969 193.835938 182.667969 194.203125 182.582031 C 194.566406 182.5 194.816406 182.707031 194.953125 183.207031 C 195.054688 182.90625 195.253906 182.625 195.546875 182.363281 C 195.847656 182.09375 196.164062 181.90625 196.5 181.800781 C 196.101562 181.5 195.769531 181.066406 195.5 180.503906 C 195.238281 179.941406 195.15625 179.441406 195.25 179.003906 C 194.945312 179.171875 194.585938 179.269531 194.171875 179.300781 C 193.753906 179.332031 193.398438 179.285156 193.109375 179.160156 C 193.203125 179.527344 193.179688 179.957031 193.046875 180.457031 C 192.921875 180.957031 192.710938 181.410156 192.421875 181.816406 C 192.140625 182.214844 191.816406 182.425781 191.453125 182.457031 C 191.890625 182.550781 192.210938 182.785156 192.421875 183.160156 C 192.640625 183.527344 193.050781 183.707031 193.65625 183.707031 Z M 193.65625 183.707031 " fill-opacity="1" fill-rule="nonzero"/><path fill="#ffffff" d="M 227.753906 197.847656 C 227.542969 198.558594 227.175781 199.011719 226.644531 199.222656 C 226.113281 199.441406 225.554688 199.472656 224.972656 199.316406 C 224.386719 199.167969 223.914062 198.867188 223.550781 198.410156 C 223.183594 197.941406 223.101562 197.359375 223.300781 196.660156 C 222.933594 197.160156 222.503906 197.4375 222.003906 197.488281 C 221.503906 197.53125 221.042969 197.40625 220.628906 197.113281 C 220.210938 196.8125 219.941406 196.421875 219.816406 195.941406 C 219.699219 195.453125 219.847656 194.941406 220.253906 194.410156 C 219.753906 194.640625 219.253906 194.53125 218.753906 194.082031 C 218.253906 193.636719 217.835938 193.035156 217.503906 192.285156 C 217.167969 191.535156 217.003906 190.828125 217.003906 190.160156 C 217.003906 189.496094 217.253906 189.042969 217.753906 188.800781 C 217.148438 188.800781 216.695312 188.519531 216.394531 187.957031 C 216.089844 187.386719 215.941406 186.71875 215.941406 185.957031 C 215.941406 185.1875 216.089844 184.519531 216.394531 183.957031 C 216.695312 183.386719 217.128906 183.097656 217.691406 183.097656 C 216.792969 182.839844 216.261719 182.441406 216.097656 181.910156 C 215.929688 181.371094 216.054688 180.917969 216.472656 180.550781 C 216.886719 180.1875 217.542969 180.140625 218.441406 180.410156 C 218.148438 180.140625 218.058594 179.75 218.175781 179.238281 C 218.289062 178.71875 218.542969 178.175781 218.941406 177.613281 C 219.347656 177.042969 219.800781 176.53125 220.300781 176.082031 C 220.800781 175.636719 221.289062 175.3125 221.769531 175.113281 C 222.257812 174.90625 222.648438 174.9375 222.941406 175.207031 C 222.773438 174.636719 222.929688 174.136719 223.410156 173.707031 C 223.898438 173.269531 224.507812 172.949219 225.238281 172.738281 C 225.976562 172.519531 226.664062 172.46875 227.300781 172.582031 C 227.933594 172.699219 228.335938 173.035156 228.503906 173.597656 C 228.535156 172.972656 228.902344 172.535156 229.613281 172.285156 C 230.332031 172.035156 231.132812 171.941406 232.019531 172.003906 C 232.902344 172.066406 233.679688 172.285156 234.347656 172.660156 C 235.011719 173.027344 235.316406 173.527344 235.253906 174.160156 C 235.511719 173.527344 235.882812 173.183594 236.363281 173.128906 C 236.851562 173.078125 237.253906 173.238281 237.566406 173.613281 C 237.886719 173.980469 237.929688 174.472656 237.691406 175.097656 C 238.066406 174.734375 238.558594 174.675781 239.175781 174.925781 C 239.789062 175.175781 240.386719 175.589844 240.972656 176.160156 C 241.554688 176.722656 241.972656 177.324219 242.222656 177.957031 C 242.472656 178.59375 242.414062 179.09375 242.050781 179.457031 C 242.550781 179.355469 243.007812 179.519531 243.425781 179.957031 C 243.839844 180.386719 244.175781 180.953125 244.425781 181.660156 C 244.675781 182.359375 244.816406 183.082031 244.847656 183.832031 C 244.878906 184.582031 244.792969 185.246094 244.597656 185.816406 C 244.398438 186.378906 244.035156 186.707031 243.503906 186.800781 C 244.460938 187.238281 244.886719 187.566406 244.785156 187.785156 C 244.691406 187.996094 244.160156 187.886719 243.191406 187.457031 C 243.191406 187.886719 242.914062 188.207031 242.363281 188.425781 C 241.820312 188.644531 241.195312 188.753906 240.488281 188.753906 C 239.789062 188.753906 239.164062 188.644531 238.613281 188.425781 C 238.070312 188.207031 237.800781 187.886719 237.800781 187.457031 C 237.800781 188.019531 237.550781 188.449219 237.050781 188.738281 C 236.550781 189.019531 235.972656 189.171875 235.316406 189.191406 C 234.667969 189.203125 234.097656 189.066406 233.597656 188.785156 C 233.097656 188.496094 232.847656 188.082031 232.847656 187.550781 C 232.878906 188.125 232.601562 188.589844 232.019531 188.941406 C 231.433594 189.285156 230.777344 189.488281 230.050781 189.550781 C 230.382812 189.957031 230.652344 190.386719 230.863281 190.832031 C 231.082031 191.28125 231.226562 191.6875 231.300781 192.050781 C 231.632812 191.6875 232.132812 191.375 232.800781 191.113281 C 233.464844 190.84375 234.148438 190.675781 234.847656 190.613281 C 235.542969 190.542969 236.167969 190.582031 236.722656 190.738281 C 237.273438 190.886719 237.597656 191.191406 237.691406 191.660156 C 237.691406 191.089844 237.914062 190.65625 238.363281 190.363281 C 238.820312 190.0625 239.347656 189.910156 239.941406 189.910156 C 240.542969 189.910156 241.070312 190.0625 241.519531 190.363281 C 241.964844 190.65625 242.191406 191.089844 242.191406 191.660156 C 242.855469 191.785156 243.257812 192.058594 243.394531 192.472656 C 243.527344 192.890625 243.445312 193.261719 243.144531 193.582031 C 242.839844 193.894531 242.378906 193.984375 241.753906 193.847656 C 242.042969 194.285156 242.089844 194.730469 241.894531 195.175781 C 241.695312 195.625 241.371094 196.011719 240.925781 196.332031 C 240.476562 196.644531 240.007812 196.824219 239.519531 196.863281 C 239.039062 196.894531 238.648438 196.707031 238.347656 196.300781 C 238.542969 196.9375 238.449219 197.488281 238.066406 197.957031 C 237.691406 198.425781 237.183594 198.757812 236.550781 198.957031 C 235.914062 199.152344 235.304688 199.160156 234.722656 198.972656 C 234.136719 198.792969 233.746094 198.390625 233.550781 197.753906 C 233.613281 198.652344 233.367188 199.261719 232.816406 199.597656 C 232.273438 199.929688 231.542969 199.957031 230.628906 199.675781 C 229.710938 199.394531 228.753906 198.785156 227.753906 197.847656 Z M 229.800781 183.707031 C 229.800781 183.042969 229.980469 182.667969 230.347656 182.582031 C 230.710938 182.5 230.960938 182.707031 231.097656 183.207031 C 231.199219 182.90625 231.398438 182.625 231.691406 182.363281 C 231.992188 182.09375 232.308594 181.90625 232.644531 181.800781 C 232.246094 181.5 231.914062 181.066406 231.644531 180.503906 C 231.382812 179.941406 231.300781 179.441406 231.394531 179.003906 C 231.089844 179.171875 230.730469 179.269531 230.316406 179.300781 C 229.898438 179.332031 229.542969 179.285156 229.253906 179.160156 C 229.347656 179.527344 229.324219 179.957031 229.191406 180.457031 C 229.066406 180.957031 228.855469 181.410156 228.566406 181.816406 C 228.285156 182.214844 227.960938 182.425781 227.597656 182.457031 C 228.035156 182.550781 228.355469 182.785156 228.566406 183.160156 C 228.785156 183.527344 229.195312 183.707031 229.800781 183.707031 Z M 229.800781 183.707031 " fill-opacity="1" fill-rule="nonzero"/><path fill="#ffffff" d="M 256.789062 195.753906 C 256.195312 196.222656 255.695312 196.410156 255.289062 196.316406 C 254.890625 196.214844 254.683594 195.953125 254.664062 195.535156 C 254.652344 195.121094 254.945312 194.675781 255.539062 194.207031 C 254.839844 194.4375 254.257812 194.425781 253.789062 194.175781 C 253.320312 193.925781 252.992188 193.550781 252.804688 193.050781 C 252.625 192.550781 252.636719 192.050781 252.835938 191.550781 C 253.042969 191.050781 253.480469 190.6875 254.148438 190.457031 C 253.40625 190.488281 252.835938 190.269531 252.429688 189.800781 C 252.03125 189.332031 251.808594 188.765625 251.757812 188.097656 C 251.714844 187.433594 251.859375 186.832031 252.195312 186.300781 C 252.527344 185.769531 253.058594 185.472656 253.789062 185.410156 C 253.089844 185.339844 252.601562 185.003906 252.320312 184.410156 C 252.039062 183.808594 251.9375 183.140625 252.023438 182.410156 C 252.105469 181.671875 252.355469 181.046875 252.773438 180.535156 C 253.1875 180.015625 253.746094 179.808594 254.445312 179.910156 C 253.839844 179.578125 253.480469 179.144531 253.367188 178.613281 C 253.25 178.074219 253.320312 177.574219 253.570312 177.113281 C 253.820312 176.644531 254.183594 176.316406 254.664062 176.128906 C 255.152344 175.941406 255.710938 176.015625 256.335938 176.347656 C 256 175.816406 255.960938 175.296875 256.210938 174.785156 C 256.460938 174.265625 256.851562 173.839844 257.382812 173.503906 C 257.921875 173.171875 258.476562 173.015625 259.039062 173.035156 C 259.609375 173.046875 260.0625 173.316406 260.398438 173.847656 C 260.429688 173.421875 260.695312 173.109375 261.195312 172.910156 C 261.695312 172.703125 262.296875 172.59375 263.007812 172.582031 C 263.726562 172.5625 264.433594 172.628906 265.132812 172.785156 C 265.839844 172.933594 266.421875 173.144531 266.882812 173.425781 C 267.351562 173.707031 267.570312 174.066406 267.539062 174.503906 C 267.609375 173.941406 267.773438 173.503906 268.023438 173.191406 C 268.273438 172.871094 268.5625 172.671875 268.898438 172.597656 C 268.929688 172.035156 269.125 171.542969 269.492188 171.113281 C 269.855469 170.675781 270.324219 170.503906 270.898438 170.597656 C 270.261719 170.535156 269.78125 170.230469 269.460938 169.675781 C 269.148438 169.125 268.996094 168.5 269.007812 167.800781 C 269.027344 167.105469 269.210938 166.5 269.554688 165.988281 C 269.90625 165.46875 270.417969 165.207031 271.085938 165.207031 C 270.65625 164.375 270.464844 163.765625 270.507812 163.378906 C 270.558594 162.996094 270.765625 162.878906 271.132812 163.035156 C 271.507812 163.183594 271.929688 163.671875 272.398438 164.503906 C 272.398438 163.941406 272.652344 163.527344 273.164062 163.253906 C 273.683594 162.984375 274.277344 162.847656 274.945312 162.847656 C 275.609375 162.847656 276.199219 162.984375 276.710938 163.253906 C 277.230469 163.527344 277.492188 163.941406 277.492188 164.503906 C 277.824219 164.203125 278.230469 164.15625 278.710938 164.363281 C 279.199219 164.5625 279.640625 164.894531 280.039062 165.363281 C 280.445312 165.824219 280.710938 166.300781 280.835938 166.800781 C 280.96875 167.300781 280.871094 167.703125 280.539062 168.003906 C 281.109375 168.003906 281.527344 168.332031 281.789062 168.988281 C 282.058594 169.636719 282.195312 170.375 282.195312 171.207031 C 282.195312 172.042969 282.058594 172.785156 281.789062 173.441406 C 281.527344 174.089844 281.109375 174.410156 280.539062 174.410156 C 281.039062 174.410156 281.429688 174.671875 281.710938 175.191406 C 282 175.703125 282.195312 176.332031 282.289062 177.082031 C 282.390625 177.832031 282.390625 178.582031 282.289062 179.332031 C 282.195312 180.082031 282 180.71875 281.710938 181.238281 C 281.429688 181.75 281.039062 182.003906 280.539062 182.003906 C 281.308594 182.003906 281.820312 182.171875 282.070312 182.503906 C 282.320312 182.839844 282.320312 183.171875 282.070312 183.503906 C 281.820312 183.839844 281.308594 184.003906 280.539062 184.003906 C 281.507812 184.003906 282.148438 184.253906 282.460938 184.753906 C 282.78125 185.253906 282.78125 185.753906 282.460938 186.253906 C 282.148438 186.753906 281.507812 187.003906 280.539062 187.003906 C 280.945312 187.003906 281.273438 187.238281 281.523438 187.707031 C 281.773438 188.175781 281.9375 188.761719 282.023438 189.457031 C 282.105469 190.15625 282.105469 190.855469 282.023438 191.550781 C 281.9375 192.25 281.773438 192.832031 281.523438 193.300781 C 281.273438 193.769531 280.945312 194.003906 280.539062 194.003906 C 281.277344 194.109375 281.804688 194.359375 282.117188 194.753906 C 282.429688 195.152344 282.554688 195.582031 282.492188 196.050781 C 282.429688 196.519531 282.1875 196.90625 281.773438 197.207031 C 281.355469 197.511719 280.777344 197.609375 280.039062 197.503906 C 280.039062 198.035156 279.84375 198.425781 279.460938 198.675781 C 279.085938 198.925781 278.652344 199.050781 278.164062 199.050781 C 277.683594 199.050781 277.25 198.925781 276.867188 198.675781 C 276.480469 198.425781 276.289062 198.035156 276.289062 197.503906 C 276.226562 198.109375 275.949219 198.527344 275.460938 198.753906 C 274.980469 198.980469 274.449219 199.066406 273.867188 199.003906 C 273.28125 198.941406 272.78125 198.746094 272.367188 198.410156 C 271.949219 198.078125 271.773438 197.625 271.835938 197.050781 C 271.835938 197.71875 271.640625 198.21875 271.257812 198.550781 C 270.882812 198.882812 270.445312 199.066406 269.945312 199.097656 C 269.445312 199.136719 268.984375 199.023438 268.570312 198.753906 C 268.152344 198.484375 267.875 198.066406 267.742188 197.503906 C 267.710938 198.234375 267.234375 198.734375 266.320312 199.003906 C 265.402344 199.273438 264.125 199.175781 262.492188 198.707031 C 260.855469 198.238281 258.953125 197.253906 256.789062 195.753906 Z M 271.148438 185.660156 C 270.679688 185.660156 270.390625 185.464844 270.289062 185.066406 C 270.195312 184.660156 270.3125 184.359375 270.648438 184.160156 C 270.3125 184.160156 269.945312 183.984375 269.539062 183.628906 C 269.140625 183.277344 268.796875 182.871094 268.507812 182.410156 C 268.226562 181.941406 268.054688 181.488281 267.992188 181.050781 C 267.6875 181.355469 267.273438 181.558594 266.742188 181.660156 C 266.210938 181.753906 265.761719 181.703125 265.398438 181.503906 C 265.492188 181.941406 265.460938 182.464844 265.304688 183.066406 C 265.15625 183.660156 264.933594 184.175781 264.632812 184.613281 C 264.339844 185.042969 264.042969 185.203125 263.742188 185.097656 C 264.011719 185.171875 264.210938 185.425781 264.335938 185.863281 C 264.46875 186.292969 264.523438 186.738281 264.492188 187.207031 C 264.460938 187.675781 264.324219 188.027344 264.085938 188.253906 C 264.523438 188.222656 265.078125 188.417969 265.757812 188.832031 C 266.445312 189.25 267.105469 189.691406 267.742188 190.160156 C 268.375 190.621094 268.824219 190.933594 269.085938 191.097656 C 268.75 190.839844 268.640625 190.425781 268.757812 189.863281 C 268.882812 189.292969 269.125 188.75 269.492188 188.238281 C 269.855469 187.71875 270.242188 187.441406 270.648438 187.410156 C 270.105469 187.246094 269.886719 186.902344 269.992188 186.378906 C 270.09375 185.859375 270.480469 185.621094 271.148438 185.660156 Z M 271.148438 185.660156 " fill-opacity="1" fill-rule="nonzero"/><path fill="#ffffff" d="M 302.789062 197.300781 C 302.484375 197.9375 302.027344 198.347656 301.414062 198.535156 C 300.796875 198.714844 300.132812 198.714844 299.414062 198.535156 C 298.695312 198.347656 298.03125 198.046875 297.429688 197.628906 C 296.835938 197.214844 296.398438 196.707031 296.117188 196.113281 C 295.835938 195.511719 295.839844 194.890625 296.132812 194.253906 C 295.464844 194.722656 294.828125 194.886719 294.226562 194.738281 C 293.632812 194.582031 293.152344 194.25 292.789062 193.738281 C 292.421875 193.21875 292.261719 192.652344 292.304688 192.035156 C 292.355469 191.410156 292.714844 190.871094 293.382812 190.410156 C 292.757812 190.472656 292.214844 190.28125 291.757812 189.832031 C 291.308594 189.386719 290.964844 188.796875 290.726562 188.066406 C 290.496094 187.328125 290.390625 186.578125 290.414062 185.816406 C 290.433594 185.046875 290.601562 184.378906 290.914062 183.816406 C 291.226562 183.246094 291.699219 182.921875 292.335938 182.847656 C 291.574219 182.816406 290.976562 182.53125 290.539062 181.988281 C 290.101562 181.4375 289.824219 180.769531 289.710938 179.988281 C 289.59375 179.199219 289.625 178.421875 289.804688 177.660156 C 289.992188 176.890625 290.320312 176.253906 290.789062 175.753906 C 291.257812 175.253906 291.855469 175.003906 292.585938 175.003906 C 292.117188 174.777344 291.855469 174.378906 291.804688 173.816406 C 291.761719 173.246094 291.855469 172.625 292.085938 171.957031 C 292.324219 171.292969 292.652344 170.667969 293.070312 170.082031 C 293.484375 169.5 293.945312 169.066406 294.445312 168.785156 C 294.945312 168.496094 295.40625 168.46875 295.835938 168.707031 C 295.199219 167.875 294.949219 167.191406 295.085938 166.660156 C 295.21875 166.121094 295.570312 165.847656 296.132812 165.847656 C 296.703125 165.847656 297.308594 166.265625 297.945312 167.097656 C 297.570312 166.171875 297.496094 165.390625 297.726562 164.753906 C 297.964844 164.121094 298.367188 163.699219 298.929688 163.488281 C 299.5 163.269531 300.09375 163.300781 300.710938 163.582031 C 301.324219 163.863281 301.820312 164.453125 302.195312 165.347656 C 302.089844 164.558594 302.203125 163.925781 302.539062 163.457031 C 302.871094 162.988281 303.304688 162.722656 303.835938 162.660156 C 304.367188 162.589844 304.855469 162.730469 305.304688 163.082031 C 305.761719 163.425781 306.058594 164 306.195312 164.800781 C 306.257812 164.042969 306.59375 163.46875 307.210938 163.082031 C 307.824219 162.699219 308.539062 162.472656 309.351562 162.410156 C 310.171875 162.339844 310.984375 162.425781 311.789062 162.675781 C 312.589844 162.925781 313.242188 163.3125 313.742188 163.832031 C 314.242188 164.34375 314.4375 164.984375 314.335938 165.753906 C 314.835938 164.621094 315.402344 163.96875 316.039062 163.800781 C 316.671875 163.636719 317.132812 163.84375 317.414062 164.425781 C 317.695312 165.011719 317.585938 165.871094 317.085938 167.003906 C 317.824219 166.003906 318.492188 165.472656 319.085938 165.410156 C 319.6875 165.339844 320.039062 165.59375 320.132812 166.175781 C 320.234375 166.761719 319.921875 167.550781 319.195312 168.550781 C 319.921875 167.988281 320.59375 167.734375 321.210938 167.785156 C 321.824219 167.828125 322.289062 168.058594 322.601562 168.472656 C 322.921875 168.890625 323.015625 169.402344 322.882812 170.003906 C 322.757812 170.609375 322.308594 171.191406 321.539062 171.753906 C 322.265625 171.527344 322.867188 171.535156 323.335938 171.785156 C 323.804688 172.035156 324.105469 172.386719 324.242188 172.832031 C 324.375 173.28125 324.320312 173.730469 324.070312 174.175781 C 323.820312 174.625 323.324219 174.96875 322.585938 175.207031 C 323.21875 175.175781 323.730469 175.402344 324.117188 175.878906 C 324.5 176.359375 324.765625 176.957031 324.914062 177.675781 C 325.058594 178.394531 325.078125 179.125 324.976562 179.863281 C 324.882812 180.59375 324.65625 181.207031 324.304688 181.707031 C 323.960938 182.207031 323.46875 182.472656 322.835938 182.503906 C 324.074219 182.503906 324.890625 182.730469 325.289062 183.175781 C 325.683594 183.625 325.671875 184.066406 325.257812 184.503906 C 324.839844 184.941406 324.015625 185.140625 322.789062 185.097656 C 323.589844 185.234375 324.136719 185.613281 324.429688 186.238281 C 324.730469 186.855469 324.8125 187.511719 324.679688 188.207031 C 324.554688 188.90625 324.242188 189.480469 323.742188 189.925781 C 323.242188 190.375 322.589844 190.515625 321.789062 190.347656 C 322.183594 190.722656 322.328125 191.214844 322.226562 191.816406 C 322.132812 192.410156 321.867188 193.015625 321.429688 193.628906 C 321 194.246094 320.496094 194.785156 319.914062 195.253906 C 319.328125 195.722656 318.75 196.035156 318.179688 196.191406 C 317.617188 196.339844 317.136719 196.222656 316.742188 195.847656 C 316.9375 196.621094 316.761719 197.292969 316.210938 197.863281 C 315.65625 198.425781 314.949219 198.820312 314.085938 199.050781 C 313.21875 199.289062 312.402344 199.304688 311.632812 199.097656 C 310.871094 198.898438 310.390625 198.421875 310.195312 197.660156 C 310.289062 199.492188 309.699219 200.410156 308.429688 200.410156 C 307.167969 200.410156 305.289062 199.371094 302.789062 197.300781 Z M 311.039062 189.847656 C 310.265625 189.515625 309.855469 189.011719 309.804688 188.332031 C 309.761719 187.644531 309.949219 187.03125 310.367188 186.488281 C 310.78125 185.9375 311.339844 185.675781 312.039062 185.707031 C 311.601562 185.46875 311.289062 185.066406 311.101562 184.503906 C 310.921875 183.941406 310.867188 183.34375 310.929688 182.707031 C 311 182.074219 311.195312 181.53125 311.507812 181.082031 C 311.828125 180.636719 312.273438 180.410156 312.835938 180.410156 C 312.167969 180.441406 311.667969 180.167969 311.335938 179.582031 C 311 179 310.875 178.347656 310.960938 177.628906 C 311.042969 176.910156 311.320312 176.371094 311.789062 176.003906 C 311.152344 176.066406 310.601562 175.816406 310.132812 175.253906 C 309.671875 174.691406 309.507812 174.109375 309.632812 173.503906 C 309.234375 173.734375 308.828125 173.792969 308.414062 173.675781 C 307.996094 173.5625 307.671875 173.308594 307.445312 172.910156 C 307.308594 173.472656 306.96875 173.894531 306.429688 174.175781 C 305.898438 174.457031 305.367188 174.515625 304.835938 174.347656 C 305 174.816406 305.015625 175.324219 304.882812 175.863281 C 304.757812 176.394531 304.507812 176.84375 304.132812 177.207031 C 303.765625 177.574219 303.320312 177.753906 302.789062 177.753906 C 303.257812 177.890625 303.59375 178.175781 303.804688 178.613281 C 304.023438 179.042969 304.105469 179.515625 304.054688 180.035156 C 304.011719 180.546875 303.84375 180.988281 303.554688 181.363281 C 303.273438 181.730469 302.867188 181.910156 302.335938 181.910156 C 303.03125 181.871094 303.496094 181.96875 303.726562 182.207031 C 303.964844 182.4375 303.964844 182.675781 303.726562 182.925781 C 303.496094 183.175781 303.03125 183.300781 302.335938 183.300781 C 303.136719 183.269531 303.710938 183.464844 304.054688 183.878906 C 304.40625 184.296875 304.542969 184.769531 304.460938 185.300781 C 304.375 185.832031 304.070312 186.25 303.539062 186.550781 C 304.101562 186.625 304.632812 186.964844 305.132812 187.566406 C 305.632812 188.160156 305.902344 188.777344 305.945312 189.410156 C 306.402344 188.910156 307.074219 188.734375 307.960938 188.878906 C 308.84375 189.027344 309.871094 189.347656 311.039062 189.847656 Z M 311.039062 189.847656 " fill-opacity="1" fill-rule="nonzero"/><path fill="#ffffff" d="M 335.382812 190.800781 C 334.382812 190.800781 333.636719 190.488281 333.148438 189.863281 C 332.667969 189.230469 332.429688 188.484375 332.429688 187.628906 C 332.429688 186.777344 332.667969 186.035156 333.148438 185.410156 C 333.636719 184.777344 334.382812 184.457031 335.382812 184.457031 C 334.777344 184.457031 334.292969 184.207031 333.929688 183.707031 C 333.5625 183.207031 333.3125 182.59375 333.179688 181.863281 C 333.042969 181.125 333.042969 180.390625 333.179688 179.660156 C 333.3125 178.921875 333.5625 178.300781 333.929688 177.800781 C 334.292969 177.300781 334.777344 177.050781 335.382812 177.050781 C 334.414062 177.050781 333.683594 176.730469 333.195312 176.082031 C 332.714844 175.425781 332.476562 174.660156 332.476562 173.785156 C 332.476562 172.902344 332.714844 172.136719 333.195312 171.488281 C 333.683594 170.832031 334.414062 170.503906 335.382812 170.503906 C 334.109375 170.503906 333.265625 170.253906 332.851562 169.753906 C 332.433594 169.253906 332.433594 168.753906 332.851562 168.253906 C 333.265625 167.753906 334.109375 167.503906 335.382812 167.503906 C 334.351562 167.503906 333.65625 167.308594 333.304688 166.910156 C 332.960938 166.503906 332.960938 166.105469 333.304688 165.707031 C 333.65625 165.300781 334.351562 165.097656 335.382812 165.097656 C 335.414062 164.308594 335.695312 163.71875 336.226562 163.332031 C 336.765625 162.949219 337.375 162.765625 338.054688 162.785156 C 338.742188 162.796875 339.335938 163.011719 339.835938 163.425781 C 340.335938 163.84375 340.585938 164.453125 340.585938 165.253906 C 340.8125 164.691406 341.183594 164.355469 341.695312 164.238281 C 342.214844 164.113281 342.742188 164.160156 343.273438 164.378906 C 343.8125 164.597656 344.226562 164.933594 344.507812 165.378906 C 344.789062 165.828125 344.8125 166.339844 344.585938 166.910156 C 345.34375 166.472656 346.03125 166.347656 346.648438 166.535156 C 347.273438 166.714844 347.75 167.074219 348.085938 167.613281 C 348.417969 168.144531 348.515625 168.730469 348.382812 169.363281 C 348.246094 169.988281 347.8125 170.535156 347.085938 171.003906 C 348.054688 170.402344 348.792969 170.160156 349.304688 170.285156 C 349.824219 170.402344 350.015625 170.707031 349.882812 171.207031 C 349.746094 171.707031 349.179688 172.253906 348.179688 172.847656 C 349.085938 172.316406 349.859375 172.203125 350.507812 172.503906 C 351.152344 172.808594 351.558594 173.292969 351.726562 173.957031 C 351.890625 174.625 351.679688 175.277344 351.085938 175.910156 C 351.585938 175.609375 352.101562 175.558594 352.632812 175.753906 C 352.933594 175.253906 353.355469 174.894531 353.898438 174.675781 C 354.449219 174.457031 355.027344 174.535156 355.632812 174.910156 C 354.859375 174.441406 354.390625 173.925781 354.226562 173.363281 C 354.058594 172.792969 354.117188 172.28125 354.398438 171.832031 C 354.6875 171.386719 355.125 171.109375 355.710938 171.003906 C 356.292969 170.902344 356.949219 171.066406 357.679688 171.503906 C 356.917969 171.035156 356.445312 170.535156 356.257812 170.003906 C 356.070312 169.472656 356.089844 169.011719 356.320312 168.613281 C 356.558594 168.207031 356.960938 167.964844 357.523438 167.878906 C 358.09375 167.796875 358.765625 167.988281 359.539062 168.457031 C 358.765625 167.957031 358.28125 167.425781 358.085938 166.863281 C 357.886719 166.292969 357.917969 165.808594 358.179688 165.410156 C 358.449219 165.003906 358.875 164.769531 359.460938 164.707031 C 360.042969 164.636719 360.734375 164.847656 361.539062 165.347656 C 361.496094 164.558594 361.726562 163.953125 362.226562 163.535156 C 362.726562 163.121094 363.296875 162.902344 363.945312 162.878906 C 364.601562 162.859375 365.179688 163.050781 365.679688 163.457031 C 366.179688 163.855469 366.445312 164.453125 366.476562 165.253906 C 366.777344 164.691406 367.164062 164.355469 367.632812 164.238281 C 368.101562 164.113281 368.542969 164.160156 368.960938 164.378906 C 369.375 164.597656 369.671875 164.933594 369.851562 165.378906 C 370.039062 165.828125 369.980469 166.339844 369.679688 166.910156 C 370.917969 166.910156 371.734375 167.160156 372.132812 167.660156 C 372.527344 168.160156 372.527344 168.660156 372.132812 169.160156 C 371.734375 169.660156 370.917969 169.910156 369.679688 169.910156 C 370.84375 169.910156 371.621094 170.144531 372.007812 170.613281 C 372.390625 171.074219 372.390625 171.535156 372.007812 172.003906 C 371.621094 172.472656 370.84375 172.707031 369.679688 172.707031 C 370.679688 172.707031 371.34375 172.96875 371.679688 173.488281 C 372.011719 174 372.011719 174.519531 371.679688 175.050781 C 371.34375 175.582031 370.679688 175.847656 369.679688 175.847656 C 370.417969 175.847656 371.011719 176.097656 371.460938 176.597656 C 371.90625 177.097656 372.203125 177.71875 372.351562 178.457031 C 372.507812 179.1875 372.507812 179.921875 372.351562 180.660156 C 372.203125 181.390625 371.90625 182.003906 371.460938 182.503906 C 371.011719 183.003906 370.417969 183.253906 369.679688 183.253906 C 370.480469 183.253906 371.078125 183.4375 371.476562 183.800781 C 371.882812 184.167969 372.085938 184.582031 372.085938 185.050781 C 372.085938 185.519531 371.882812 185.9375 371.476562 186.300781 C 371.078125 186.667969 370.480469 186.847656 369.679688 186.847656 C 370.417969 186.847656 371 187.109375 371.429688 187.628906 C 371.867188 188.152344 372.15625 188.796875 372.304688 189.566406 C 372.460938 190.328125 372.460938 191.097656 372.304688 191.878906 C 372.15625 192.660156 371.867188 193.3125 371.429688 193.832031 C 371 194.34375 370.417969 194.597656 369.679688 194.597656 C 370.980469 194.597656 371.84375 194.765625 372.273438 195.097656 C 372.710938 195.433594 372.710938 195.765625 372.273438 196.097656 C 371.84375 196.433594 370.980469 196.597656 369.679688 196.597656 C 369.78125 197.472656 369.601562 198.160156 369.132812 198.660156 C 368.664062 199.160156 368.085938 199.449219 367.398438 199.535156 C 366.71875 199.617188 366.09375 199.472656 365.523438 199.097656 C 364.960938 198.734375 364.632812 198.121094 364.539062 197.253906 C 364.265625 197.953125 363.882812 198.40625 363.382812 198.613281 C 362.882812 198.808594 362.386719 198.808594 361.898438 198.613281 C 361.417969 198.40625 361.070312 198.0625 360.851562 197.582031 C 360.640625 197.09375 360.667969 196.5 360.929688 195.800781 C 359.667969 195.800781 358.828125 195.605469 358.414062 195.207031 C 357.996094 194.800781 357.996094 194.410156 358.414062 194.035156 C 358.828125 193.652344 359.667969 193.457031 360.929688 193.457031 C 360 193.457031 359.292969 193.136719 358.804688 192.488281 C 358.324219 191.832031 358.058594 191.074219 358.007812 190.207031 C 357.953125 189.34375 358.125 188.550781 358.523438 187.832031 C 358.929688 187.113281 359.5625 186.6875 360.429688 186.550781 C 359.699219 186.550781 359.199219 186.269531 358.929688 185.707031 C 358.59375 185.84375 358.328125 185.746094 358.132812 185.410156 C 357.734375 185.339844 357.320312 185.171875 356.882812 184.910156 C 357.445312 185.308594 357.714844 185.808594 357.695312 186.410156 C 357.683594 187.003906 357.496094 187.5625 357.132812 188.082031 C 356.765625 188.59375 356.308594 188.953125 355.757812 189.160156 C 355.203125 189.359375 354.648438 189.253906 354.085938 188.847656 C 353.75 189.421875 353.230469 189.703125 352.523438 189.691406 C 351.824219 189.671875 351.117188 189.453125 350.398438 189.035156 C 349.6875 188.621094 349.140625 188.121094 348.757812 187.535156 C 348.371094 186.953125 348.34375 186.359375 348.679688 185.753906 C 348.417969 185.921875 348.152344 186.058594 347.882812 186.160156 C 347.683594 186.621094 347.382812 187.015625 346.976562 187.347656 C 346.578125 187.683594 346.148438 187.871094 345.679688 187.910156 C 346.179688 188.246094 346.453125 188.691406 346.507812 189.253906 C 346.558594 189.816406 346.382812 190.328125 345.976562 190.785156 C 345.578125 191.234375 344.964844 191.457031 344.132812 191.457031 C 345.234375 191.457031 345.96875 191.691406 346.335938 192.160156 C 346.699219 192.621094 346.699219 193.078125 346.335938 193.535156 C 345.96875 193.984375 345.234375 194.207031 344.132812 194.207031 C 345.195312 194.511719 345.835938 194.96875 346.054688 195.582031 C 346.273438 196.199219 346.136719 196.707031 345.648438 197.113281 C 345.167969 197.511719 344.382812 197.558594 343.289062 197.253906 C 343.289062 198.121094 343.015625 198.761719 342.476562 199.191406 C 341.945312 199.628906 341.328125 199.847656 340.632812 199.847656 C 339.933594 199.847656 339.3125 199.628906 338.773438 199.191406 C 338.242188 198.761719 337.976562 198.121094 337.976562 197.253906 C 337.976562 198.222656 337.839844 198.914062 337.570312 199.332031 C 337.308594 199.746094 336.996094 199.761719 336.632812 199.378906 C 336.265625 198.992188 335.960938 198.121094 335.710938 196.753906 C 335.460938 195.390625 335.351562 193.40625 335.382812 190.800781 Z M 335.382812 190.800781 " fill-opacity="1" fill-rule="nonzero"/></svg>