<svg xmlns="http://www.w3.org/2000/svg" xmlns:xlink="http://www.w3.org/1999/xlink" width="500" zoomAndPan="magnify" viewBox="0 0 375 374.999991" height="500" preserveAspectRatio="xMidYMid meet" version="1.0"><defs><g/><clipPath id="0bdbe4a34e"><path d="M 8 39 L 94 39 L 94 78 L 8 78 Z M 8 39 " clip-rule="nonzero"/></clipPath><clipPath id="5d218441aa"><path d="M 4.636719 67.503906 L 91.777344 35.023438 L 98.066406 51.890625 L 10.921875 84.371094 Z M 4.636719 67.503906 " clip-rule="nonzero"/></clipPath><clipPath id="4f9d3eeaf0"><path d="M 4.636719 67.503906 L 91.777344 35.023438 L 98.066406 51.890625 L 10.921875 84.371094 Z M 4.636719 67.503906 " clip-rule="nonzero"/></clipPath><clipPath id="017c615833"><path d="M 6 2 L 66 2 L 66 78 L 6 78 Z M 6 2 " clip-rule="nonzero"/></clipPath><clipPath id="d03d06964e"><path d="M 0.00390625 70.753906 L 60.414062 0.046875 L 74.097656 11.738281 L 13.6875 82.445312 Z M 0.00390625 70.753906 " clip-rule="nonzero"/></clipPath><clipPath id="00bab91b8e"><path d="M 0.00390625 70.753906 L 60.414062 0.046875 L 74.097656 11.738281 L 13.6875 82.445312 Z M 0.00390625 70.753906 " clip-rule="nonzero"/></clipPath></defs><g clip-path="url(#0bdbe4a34e)"><g clip-path="url(#5d218441aa)"><g clip-path="url(#4f9d3eeaf0)"><path fill="#5ce1e6" d="M 8.4375 77.515625 C 8.445312 77.0625 8.476562 76.691406 8.570312 76.328125 C 9.300781 73.609375 10.40625 71.066406 12.113281 68.8125 C 13.882812 66.476562 16.035156 64.554688 18.507812 62.992188 C 20.507812 61.726562 22.660156 60.785156 24.914062 60.066406 C 28.730469 58.859375 32.648438 58.339844 36.632812 58.242188 C 39.589844 58.167969 42.539062 58.328125 45.484375 58.503906 C 48.605469 58.6875 51.722656 58.871094 54.847656 58.871094 C 57.886719 58.867188 60.910156 58.6875 63.910156 58.203125 C 66.183594 57.839844 68.417969 57.3125 70.613281 56.625 C 72.496094 56.035156 74.328125 55.320312 76.109375 54.472656 C 78.144531 53.503906 80.082031 52.359375 81.941406 51.082031 C 84.359375 49.417969 86.667969 47.617188 88.765625 45.558594 C 89.875 44.472656 90.871094 43.292969 91.746094 42.015625 C 92.296875 41.207031 92.742188 40.332031 93.214844 39.476562 C 93.253906 39.40625 93.265625 39.324219 93.351562 39.265625 C 93.429688 39.769531 93.429688 40.261719 93.324219 40.753906 C 92.628906 44.003906 91.183594 46.878906 89.015625 49.394531 C 87.324219 51.355469 85.398438 53.066406 83.351562 54.640625 C 81.140625 56.339844 78.804688 57.855469 76.359375 59.191406 C 74.972656 59.949219 73.546875 60.632812 72.089844 61.257812 C 70.898438 61.765625 69.6875 62.230469 68.457031 62.644531 C 66.828125 63.1875 65.171875 63.648438 63.496094 64.035156 C 57.636719 65.390625 51.683594 65.90625 45.679688 66.011719 C 42.46875 66.066406 39.253906 66.015625 36.039062 66.039062 C 32.984375 66.066406 29.933594 66.171875 26.894531 66.539062 C 24.679688 66.808594 22.488281 67.207031 20.351562 67.863281 C 16.566406 69.027344 13.367188 71.109375 10.769531 74.105469 C 10.488281 74.433594 10.226562 74.78125 9.996094 75.144531 C 9.519531 75.894531 8.984375 76.605469 8.550781 77.378906 C 8.535156 77.410156 8.511719 77.429688 8.4375 77.515625 Z M 8.4375 77.515625 " fill-opacity="1" fill-rule="nonzero"/></g></g></g><g clip-path="url(#017c615833)"><g clip-path="url(#d03d06964e)"><g clip-path="url(#00bab91b8e)"><path fill="#c1ff72" d="M 8.191406 77.660156 C 7.976562 77.261719 7.820312 76.921875 7.730469 76.558594 C 7.046875 73.828125 6.777344 71.070312 7.175781 68.265625 C 7.585938 65.363281 8.535156 62.640625 9.9375 60.078125 C 11.074219 58 12.496094 56.128906 14.121094 54.40625 C 16.867188 51.496094 20.042969 49.140625 23.480469 47.121094 C 26.027344 45.621094 28.683594 44.328125 31.34375 43.050781 C 34.160156 41.695312 36.972656 40.34375 39.707031 38.824219 C 42.359375 37.351562 44.917969 35.722656 47.308594 33.84375 C 49.113281 32.421875 50.8125 30.875 52.398438 29.207031 C 53.757812 27.777344 55.011719 26.261719 56.15625 24.65625 C 57.46875 22.820312 58.605469 20.878906 59.609375 18.859375 C 60.917969 16.234375 62.058594 13.539062 62.894531 10.71875 C 63.335938 9.230469 63.632812 7.71875 63.777344 6.175781 C 63.867188 5.199219 63.832031 4.21875 63.828125 3.242188 C 63.828125 3.164062 63.800781 3.082031 63.847656 2.988281 C 64.160156 3.394531 64.398438 3.824219 64.542969 4.304688 C 65.515625 7.484375 65.648438 10.699219 64.972656 13.949219 C 64.445312 16.488281 63.597656 18.917969 62.570312 21.289062 C 61.460938 23.847656 60.15625 26.304688 58.667969 28.660156 C 57.820312 29.996094 56.910156 31.289062 55.941406 32.539062 C 55.144531 33.566406 54.3125 34.558594 53.433594 35.515625 C 52.273438 36.78125 51.050781 37.988281 49.777344 39.140625 C 45.308594 43.171875 40.355469 46.511719 35.160156 49.519531 C 32.378906 51.128906 29.542969 52.644531 26.746094 54.226562 C 24.085938 55.730469 21.472656 57.304688 18.996094 59.105469 C 17.1875 60.414062 15.464844 61.824219 13.917969 63.4375 C 11.171875 66.296875 9.386719 69.667969 8.570312 73.546875 C 8.484375 73.972656 8.421875 74.402344 8.398438 74.832031 C 8.347656 75.71875 8.222656 76.597656 8.222656 77.488281 C 8.222656 77.519531 8.210938 77.550781 8.191406 77.660156 Z M 8.191406 77.660156 " fill-opacity="1" fill-rule="nonzero"/></g></g></g><g fill="#ffffff" fill-opacity="1"><g transform="translate(110.512022, 58.036321)"><g><path d="M 4.25 -3.34375 C 3.519531 -3.34375 2.960938 -3.5625 2.578125 -4 C 2.191406 -4.4375 2 -4.945312 2 -5.53125 C 2 -6.113281 2.191406 -6.628906 2.578125 -7.078125 C 2.960938 -7.523438 3.519531 -7.75 4.25 -7.75 C 3.050781 -7.75 2.242188 -7.960938 1.828125 -8.390625 C 1.410156 -8.828125 1.410156 -9.253906 1.828125 -9.671875 C 2.242188 -10.085938 3.050781 -10.296875 4.25 -10.296875 C 3.3125 -10.296875 2.601562 -10.628906 2.125 -11.296875 C 1.644531 -11.960938 1.40625 -12.726562 1.40625 -13.59375 C 1.40625 -14.46875 1.644531 -15.238281 2.125 -15.90625 C 2.601562 -16.570312 3.3125 -16.90625 4.25 -16.90625 C 3.25 -16.90625 2.582031 -17.085938 2.25 -17.453125 C 1.914062 -17.816406 1.914062 -18.179688 2.25 -18.546875 C 2.582031 -18.910156 3.25 -19.09375 4.25 -19.09375 C 3.414062 -19.09375 2.789062 -19.375 2.375 -19.9375 C 1.957031 -20.507812 1.75 -21.160156 1.75 -21.890625 C 1.75 -22.628906 1.957031 -23.28125 2.375 -23.84375 C 2.789062 -24.414062 3.414062 -24.703125 4.25 -24.703125 C 2.976562 -24.703125 2.125 -24.859375 1.6875 -25.171875 C 1.257812 -25.492188 1.257812 -25.820312 1.6875 -26.15625 C 2.125 -26.488281 2.976562 -26.65625 4.25 -26.65625 C 3.476562 -26.65625 2.898438 -26.9375 2.515625 -27.5 C 2.140625 -28.0625 1.953125 -28.707031 1.953125 -29.4375 C 1.953125 -30.175781 2.140625 -30.828125 2.515625 -31.390625 C 2.898438 -31.960938 3.476562 -32.25 4.25 -32.25 C 3.8125 -33.21875 3.757812 -33.96875 4.09375 -34.5 C 4.425781 -35.03125 4.898438 -35.238281 5.515625 -35.125 C 6.140625 -35.007812 6.664062 -34.46875 7.09375 -33.5 C 7.09375 -34.269531 7.367188 -34.851562 7.921875 -35.25 C 8.472656 -35.644531 9.097656 -35.84375 9.796875 -35.84375 C 10.492188 -35.84375 11.117188 -35.644531 11.671875 -35.25 C 12.222656 -34.851562 12.5 -34.269531 12.5 -33.5 C 12.5 -34.269531 12.722656 -34.835938 13.171875 -35.203125 C 13.617188 -35.566406 14.125 -35.75 14.6875 -35.75 C 15.257812 -35.75 15.769531 -35.566406 16.21875 -35.203125 C 16.675781 -34.835938 16.90625 -34.269531 16.90625 -33.5 C 16.90625 -34.363281 17.160156 -35.019531 17.671875 -35.46875 C 18.191406 -35.925781 18.800781 -36.15625 19.5 -36.15625 C 20.195312 -36.15625 20.800781 -35.925781 21.3125 -35.46875 C 21.832031 -35.019531 22.09375 -34.363281 22.09375 -33.5 C 22.09375 -34.132812 22.332031 -34.632812 22.8125 -35 C 23.300781 -35.363281 23.894531 -35.613281 24.59375 -35.75 C 25.300781 -35.882812 26.003906 -35.882812 26.703125 -35.75 C 27.398438 -35.613281 27.984375 -35.351562 28.453125 -34.96875 C 28.921875 -34.59375 29.15625 -34.085938 29.15625 -33.453125 C 30.488281 -33.453125 31.367188 -33.25 31.796875 -32.84375 C 32.234375 -32.445312 32.234375 -32.046875 31.796875 -31.640625 C 31.367188 -31.242188 30.488281 -31.046875 29.15625 -31.046875 C 30.019531 -31.046875 30.664062 -30.820312 31.09375 -30.375 C 31.53125 -29.925781 31.75 -29.414062 31.75 -28.84375 C 31.75 -28.28125 31.53125 -27.773438 31.09375 -27.328125 C 30.664062 -26.878906 30.019531 -26.65625 29.15625 -26.65625 C 29.320312 -25.65625 29.1875 -24.953125 28.75 -24.546875 C 28.3125 -24.148438 27.832031 -24.078125 27.3125 -24.328125 C 26.800781 -24.578125 26.460938 -25.203125 26.296875 -26.203125 C 26.296875 -25.296875 26.0625 -24.691406 25.59375 -24.390625 C 25.132812 -24.097656 24.671875 -24.097656 24.203125 -24.390625 C 23.734375 -24.691406 23.5 -25.296875 23.5 -26.203125 C 23.5 -25.597656 23.238281 -25.144531 22.71875 -24.84375 C 22.207031 -24.550781 21.597656 -24.40625 20.890625 -24.40625 C 20.191406 -24.40625 19.582031 -24.550781 19.0625 -24.84375 C 18.550781 -25.144531 18.296875 -25.597656 18.296875 -26.203125 C 18.296875 -25.265625 18.144531 -24.613281 17.84375 -24.25 C 17.550781 -23.882812 17.253906 -23.816406 16.953125 -24.046875 C 16.847656 -23.648438 16.644531 -23.332031 16.34375 -23.09375 C 16.78125 -22.632812 16.929688 -22.070312 16.796875 -21.40625 C 17.097656 -21.300781 17.359375 -21.085938 17.578125 -20.765625 C 17.796875 -20.453125 17.90625 -20.03125 17.90625 -19.5 C 17.90625 -20.332031 18.101562 -20.890625 18.5 -21.171875 C 18.894531 -21.453125 19.289062 -21.453125 19.6875 -21.171875 C 20.09375 -20.890625 20.296875 -20.332031 20.296875 -19.5 C 20.296875 -20.195312 20.585938 -20.71875 21.171875 -21.0625 C 21.753906 -21.414062 22.425781 -21.59375 23.1875 -21.59375 C 23.957031 -21.59375 24.632812 -21.414062 25.21875 -21.0625 C 25.800781 -20.71875 26.09375 -20.195312 26.09375 -19.5 C 26.757812 -19.832031 27.359375 -19.863281 27.890625 -19.59375 C 28.429688 -19.332031 28.84375 -18.914062 29.125 -18.34375 C 29.40625 -17.78125 29.476562 -17.207031 29.34375 -16.625 C 29.21875 -16.039062 28.820312 -15.597656 28.15625 -15.296875 C 28.613281 -14.796875 28.8125 -14.269531 28.75 -13.71875 C 28.6875 -13.175781 28.453125 -12.703125 28.046875 -12.296875 C 27.648438 -11.898438 27.175781 -11.675781 26.625 -11.625 C 26.070312 -11.570312 25.5625 -11.78125 25.09375 -12.25 C 25.09375 -11.3125 24.8125 -10.601562 24.25 -10.125 C 23.6875 -9.644531 23.035156 -9.40625 22.296875 -9.40625 C 21.566406 -9.40625 20.914062 -9.644531 20.34375 -10.125 C 19.78125 -10.601562 19.5 -11.3125 19.5 -12.25 C 19.5 -11.25 19.179688 -10.503906 18.546875 -10.015625 C 17.910156 -9.535156 17.242188 -9.332031 16.546875 -9.40625 C 16.378906 -9 16.078125 -8.660156 15.640625 -8.390625 C 15.210938 -8.128906 14.664062 -8.015625 14 -8.046875 C 14.769531 -7.910156 15.335938 -7.523438 15.703125 -6.890625 C 16.066406 -6.265625 16.234375 -5.566406 16.203125 -4.796875 C 16.171875 -4.035156 15.925781 -3.367188 15.46875 -2.796875 C 15.019531 -2.234375 14.363281 -1.953125 13.5 -1.953125 C 13.5625 -1.179688 13.3125 -0.578125 12.75 -0.140625 C 12.1875 0.285156 11.519531 0.53125 10.75 0.59375 C 9.976562 0.664062 9.285156 0.523438 8.671875 0.171875 C 8.054688 -0.171875 7.734375 -0.726562 7.703125 -1.5 C 7.703125 -0.632812 7.515625 -0.00390625 7.140625 0.390625 C 6.773438 0.796875 6.359375 0.945312 5.890625 0.84375 C 5.429688 0.75 5.035156 0.363281 4.703125 -0.3125 C 4.367188 -1 4.21875 -2.007812 4.25 -3.34375 Z M 4.25 -3.34375 "/></g></g></g><g fill="#ffffff" fill-opacity="1"><g transform="translate(147.80693, 58.036321)"><g><path d="M 3.5 -4.75 C 2.96875 -4.75 2.535156 -4.984375 2.203125 -5.453125 C 1.867188 -5.921875 1.648438 -6.492188 1.546875 -7.171875 C 1.453125 -7.859375 1.453125 -8.550781 1.546875 -9.25 C 1.648438 -9.945312 1.867188 -10.53125 2.203125 -11 C 2.535156 -11.46875 2.96875 -11.703125 3.5 -11.703125 C 2.800781 -11.703125 2.285156 -11.953125 1.953125 -12.453125 C 1.617188 -12.953125 1.453125 -13.535156 1.453125 -14.203125 C 1.453125 -14.867188 1.617188 -15.453125 1.953125 -15.953125 C 2.285156 -16.453125 2.800781 -16.703125 3.5 -16.703125 C 2.832031 -16.703125 2.332031 -17 2 -17.59375 C 1.664062 -18.195312 1.5 -18.890625 1.5 -19.671875 C 1.5 -20.453125 1.664062 -21.144531 2 -21.75 C 2.332031 -22.351562 2.832031 -22.65625 3.5 -22.65625 C 2.800781 -22.65625 2.328125 -22.820312 2.078125 -23.15625 C 1.828125 -23.488281 1.828125 -23.820312 2.078125 -24.15625 C 2.328125 -24.488281 2.800781 -24.65625 3.5 -24.65625 C 3.5 -25.15625 3.753906 -25.535156 4.265625 -25.796875 C 4.785156 -26.066406 5.394531 -26.203125 6.09375 -26.203125 C 6.800781 -26.203125 7.421875 -26.082031 7.953125 -25.84375 C 8.484375 -25.613281 8.75 -25.25 8.75 -24.75 C 8.914062 -25.351562 9.207031 -25.78125 9.625 -26.03125 C 10.039062 -26.28125 10.484375 -26.363281 10.953125 -26.28125 C 11.421875 -26.195312 11.8125 -25.976562 12.125 -25.625 C 12.4375 -25.269531 12.5625 -24.8125 12.5 -24.25 C 12.632812 -24.644531 12.972656 -24.941406 13.515625 -25.140625 C 14.066406 -25.347656 14.664062 -25.441406 15.3125 -25.421875 C 15.96875 -25.410156 16.535156 -25.285156 17.015625 -25.046875 C 17.503906 -24.816406 17.765625 -24.46875 17.796875 -24 C 17.703125 -24.726562 17.960938 -25.3125 18.578125 -25.75 C 19.191406 -26.1875 19.921875 -26.460938 20.765625 -26.578125 C 21.617188 -26.691406 22.394531 -26.609375 23.09375 -26.328125 C 23.800781 -26.046875 24.203125 -25.550781 24.296875 -24.84375 C 24.929688 -24.8125 25.390625 -24.476562 25.671875 -23.84375 C 25.953125 -23.21875 26.066406 -22.492188 26.015625 -21.671875 C 25.972656 -20.859375 25.785156 -20.140625 25.453125 -19.515625 C 25.117188 -18.898438 24.632812 -18.613281 24 -18.65625 C 24.53125 -18.1875 24.742188 -17.71875 24.640625 -17.25 C 24.546875 -16.78125 24.273438 -16.460938 23.828125 -16.296875 C 23.378906 -16.128906 22.882812 -16.28125 22.34375 -16.75 C 22.34375 -16.25 22.109375 -15.847656 21.640625 -15.546875 C 21.179688 -15.242188 20.609375 -15.050781 19.921875 -14.96875 C 19.242188 -14.882812 18.585938 -14.910156 17.953125 -15.046875 C 17.316406 -15.179688 16.832031 -15.429688 16.5 -15.796875 C 16.601562 -15.296875 16.460938 -14.867188 16.078125 -14.515625 C 15.691406 -14.171875 15.265625 -14.050781 14.796875 -14.15625 C 15.097656 -13.613281 15.234375 -12.914062 15.203125 -12.0625 C 15.171875 -11.21875 14.976562 -10.46875 14.625 -9.8125 C 14.269531 -9.164062 13.796875 -8.863281 13.203125 -8.90625 C 13.765625 -8.90625 14.195312 -8.703125 14.5 -8.296875 C 14.800781 -7.898438 14.953125 -7.441406 14.953125 -6.921875 C 14.953125 -6.410156 14.800781 -5.953125 14.5 -5.546875 C 14.195312 -5.148438 13.765625 -4.953125 13.203125 -4.953125 C 13.703125 -4.785156 14.023438 -4.472656 14.171875 -4.015625 C 14.328125 -3.566406 14.328125 -3.101562 14.171875 -2.625 C 14.023438 -2.144531 13.765625 -1.753906 13.390625 -1.453125 C 13.023438 -1.148438 12.59375 -1.082031 12.09375 -1.25 C 12.09375 -0.613281 11.8125 -0.140625 11.25 0.171875 C 10.6875 0.492188 10.019531 0.65625 9.25 0.65625 C 8.476562 0.65625 7.800781 0.492188 7.21875 0.171875 C 6.632812 -0.140625 6.34375 -0.613281 6.34375 -1.25 C 6.34375 -0.613281 6.207031 -0.15625 5.9375 0.125 C 5.675781 0.40625 5.351562 0.445312 4.96875 0.25 C 4.59375 0.0507812 4.257812 -0.445312 3.96875 -1.25 C 3.6875 -2.050781 3.53125 -3.21875 3.5 -4.75 Z M 3.5 -4.75 "/></g></g></g><g fill="#ffffff" fill-opacity="1"><g transform="translate(178.702828, 58.036321)"><g><path d="M 12.90625 -0.90625 C 12.695312 -0.195312 12.328125 0.257812 11.796875 0.46875 C 11.265625 0.6875 10.707031 0.71875 10.125 0.5625 C 9.539062 0.414062 9.066406 0.113281 8.703125 -0.34375 C 8.335938 -0.8125 8.253906 -1.394531 8.453125 -2.09375 C 8.085938 -1.59375 7.65625 -1.316406 7.15625 -1.265625 C 6.65625 -1.222656 6.195312 -1.347656 5.78125 -1.640625 C 5.363281 -1.941406 5.09375 -2.332031 4.96875 -2.8125 C 4.851562 -3.300781 5 -3.8125 5.40625 -4.34375 C 4.90625 -4.113281 4.40625 -4.222656 3.90625 -4.671875 C 3.40625 -5.117188 2.988281 -5.71875 2.65625 -6.46875 C 2.320312 -7.21875 2.15625 -7.925781 2.15625 -8.59375 C 2.15625 -9.257812 2.40625 -9.710938 2.90625 -9.953125 C 2.300781 -9.953125 1.847656 -10.234375 1.546875 -10.796875 C 1.242188 -11.367188 1.09375 -12.035156 1.09375 -12.796875 C 1.09375 -13.566406 1.242188 -14.234375 1.546875 -14.796875 C 1.847656 -15.367188 2.28125 -15.65625 2.84375 -15.65625 C 1.945312 -15.914062 1.414062 -16.3125 1.25 -16.84375 C 1.082031 -17.382812 1.207031 -17.835938 1.625 -18.203125 C 2.039062 -18.566406 2.695312 -18.613281 3.59375 -18.34375 C 3.300781 -18.613281 3.210938 -19.003906 3.328125 -19.515625 C 3.441406 -20.035156 3.695312 -20.578125 4.09375 -21.140625 C 4.5 -21.710938 4.953125 -22.222656 5.453125 -22.671875 C 5.953125 -23.117188 6.441406 -23.441406 6.921875 -23.640625 C 7.410156 -23.847656 7.800781 -23.816406 8.09375 -23.546875 C 7.925781 -24.117188 8.082031 -24.617188 8.5625 -25.046875 C 9.050781 -25.484375 9.660156 -25.804688 10.390625 -26.015625 C 11.128906 -26.234375 11.816406 -26.285156 12.453125 -26.171875 C 13.085938 -26.054688 13.488281 -25.71875 13.65625 -25.15625 C 13.6875 -25.78125 14.054688 -26.21875 14.765625 -26.46875 C 15.484375 -26.71875 16.285156 -26.8125 17.171875 -26.75 C 18.054688 -26.6875 18.832031 -26.46875 19.5 -26.09375 C 20.164062 -25.726562 20.46875 -25.226562 20.40625 -24.59375 C 20.664062 -25.226562 21.035156 -25.570312 21.515625 -25.625 C 22.003906 -25.675781 22.40625 -25.515625 22.71875 -25.140625 C 23.039062 -24.773438 23.082031 -24.28125 22.84375 -23.65625 C 23.21875 -24.019531 23.710938 -24.078125 24.328125 -23.828125 C 24.941406 -23.578125 25.539062 -23.164062 26.125 -22.59375 C 26.707031 -22.03125 27.125 -21.429688 27.375 -20.796875 C 27.625 -20.160156 27.566406 -19.660156 27.203125 -19.296875 C 27.703125 -19.398438 28.160156 -19.234375 28.578125 -18.796875 C 28.992188 -18.367188 29.328125 -17.800781 29.578125 -17.09375 C 29.828125 -16.394531 29.96875 -15.671875 30 -14.921875 C 30.03125 -14.171875 29.945312 -13.507812 29.75 -12.9375 C 29.550781 -12.375 29.1875 -12.046875 28.65625 -11.953125 C 29.613281 -11.515625 30.039062 -11.1875 29.9375 -10.96875 C 29.84375 -10.757812 29.3125 -10.867188 28.34375 -11.296875 C 28.34375 -10.867188 28.066406 -10.546875 27.515625 -10.328125 C 26.972656 -10.109375 26.347656 -10 25.640625 -10 C 24.941406 -10 24.316406 -10.109375 23.765625 -10.328125 C 23.222656 -10.546875 22.953125 -10.867188 22.953125 -11.296875 C 22.953125 -10.734375 22.703125 -10.304688 22.203125 -10.015625 C 21.703125 -9.734375 21.125 -9.582031 20.46875 -9.5625 C 19.820312 -9.550781 19.25 -9.6875 18.75 -9.96875 C 18.25 -10.257812 18 -10.671875 18 -11.203125 C 18.03125 -10.628906 17.753906 -10.164062 17.171875 -9.8125 C 16.585938 -9.46875 15.929688 -9.265625 15.203125 -9.203125 C 15.535156 -8.796875 15.804688 -8.367188 16.015625 -7.921875 C 16.234375 -7.472656 16.378906 -7.066406 16.453125 -6.703125 C 16.785156 -7.066406 17.285156 -7.378906 17.953125 -7.640625 C 18.617188 -7.910156 19.300781 -8.078125 20 -8.140625 C 20.695312 -8.210938 21.320312 -8.171875 21.875 -8.015625 C 22.425781 -7.867188 22.75 -7.5625 22.84375 -7.09375 C 22.84375 -7.664062 23.066406 -8.097656 23.515625 -8.390625 C 23.972656 -8.691406 24.5 -8.84375 25.09375 -8.84375 C 25.695312 -8.84375 26.222656 -8.691406 26.671875 -8.390625 C 27.117188 -8.097656 27.34375 -7.664062 27.34375 -7.09375 C 28.007812 -6.96875 28.410156 -6.695312 28.546875 -6.28125 C 28.679688 -5.863281 28.597656 -5.492188 28.296875 -5.171875 C 27.992188 -4.859375 27.53125 -4.769531 26.90625 -4.90625 C 27.195312 -4.46875 27.242188 -4.023438 27.046875 -3.578125 C 26.847656 -3.128906 26.523438 -2.742188 26.078125 -2.421875 C 25.628906 -2.109375 25.160156 -1.929688 24.671875 -1.890625 C 24.191406 -1.859375 23.800781 -2.046875 23.5 -2.453125 C 23.695312 -1.816406 23.601562 -1.265625 23.21875 -0.796875 C 22.84375 -0.328125 22.335938 0.00390625 21.703125 0.203125 C 21.066406 0.398438 20.457031 0.40625 19.875 0.21875 C 19.289062 0.0390625 18.898438 -0.363281 18.703125 -1 C 18.765625 -0.101562 18.519531 0.507812 17.96875 0.84375 C 17.425781 1.175781 16.695312 1.203125 15.78125 0.921875 C 14.863281 0.640625 13.90625 0.03125 12.90625 -0.90625 Z M 14.953125 -15.046875 C 14.953125 -15.710938 15.132812 -16.085938 15.5 -16.171875 C 15.863281 -16.253906 16.113281 -16.046875 16.25 -15.546875 C 16.351562 -15.847656 16.550781 -16.128906 16.84375 -16.390625 C 17.144531 -16.660156 17.460938 -16.847656 17.796875 -16.953125 C 17.398438 -17.253906 17.066406 -17.6875 16.796875 -18.25 C 16.535156 -18.8125 16.453125 -19.3125 16.546875 -19.75 C 16.242188 -19.582031 15.882812 -19.484375 15.46875 -19.453125 C 15.050781 -19.421875 14.695312 -19.46875 14.40625 -19.59375 C 14.5 -19.226562 14.476562 -18.796875 14.34375 -18.296875 C 14.21875 -17.796875 14.007812 -17.34375 13.71875 -16.9375 C 13.4375 -16.539062 13.113281 -16.328125 12.75 -16.296875 C 13.1875 -16.203125 13.507812 -15.96875 13.71875 -15.59375 C 13.9375 -15.226562 14.347656 -15.046875 14.953125 -15.046875 Z M 14.953125 -15.046875 "/></g></g></g><g fill="#ffffff" fill-opacity="1"><g transform="translate(214.847914, 58.036321)"><g><path d="M 12.90625 -0.90625 C 12.695312 -0.195312 12.328125 0.257812 11.796875 0.46875 C 11.265625 0.6875 10.707031 0.71875 10.125 0.5625 C 9.539062 0.414062 9.066406 0.113281 8.703125 -0.34375 C 8.335938 -0.8125 8.253906 -1.394531 8.453125 -2.09375 C 8.085938 -1.59375 7.65625 -1.316406 7.15625 -1.265625 C 6.65625 -1.222656 6.195312 -1.347656 5.78125 -1.640625 C 5.363281 -1.941406 5.09375 -2.332031 4.96875 -2.8125 C 4.851562 -3.300781 5 -3.8125 5.40625 -4.34375 C 4.90625 -4.113281 4.40625 -4.222656 3.90625 -4.671875 C 3.40625 -5.117188 2.988281 -5.71875 2.65625 -6.46875 C 2.320312 -7.21875 2.15625 -7.925781 2.15625 -8.59375 C 2.15625 -9.257812 2.40625 -9.710938 2.90625 -9.953125 C 2.300781 -9.953125 1.847656 -10.234375 1.546875 -10.796875 C 1.242188 -11.367188 1.09375 -12.035156 1.09375 -12.796875 C 1.09375 -13.566406 1.242188 -14.234375 1.546875 -14.796875 C 1.847656 -15.367188 2.28125 -15.65625 2.84375 -15.65625 C 1.945312 -15.914062 1.414062 -16.3125 1.25 -16.84375 C 1.082031 -17.382812 1.207031 -17.835938 1.625 -18.203125 C 2.039062 -18.566406 2.695312 -18.613281 3.59375 -18.34375 C 3.300781 -18.613281 3.210938 -19.003906 3.328125 -19.515625 C 3.441406 -20.035156 3.695312 -20.578125 4.09375 -21.140625 C 4.5 -21.710938 4.953125 -22.222656 5.453125 -22.671875 C 5.953125 -23.117188 6.441406 -23.441406 6.921875 -23.640625 C 7.410156 -23.847656 7.800781 -23.816406 8.09375 -23.546875 C 7.925781 -24.117188 8.082031 -24.617188 8.5625 -25.046875 C 9.050781 -25.484375 9.660156 -25.804688 10.390625 -26.015625 C 11.128906 -26.234375 11.816406 -26.285156 12.453125 -26.171875 C 13.085938 -26.054688 13.488281 -25.71875 13.65625 -25.15625 C 13.6875 -25.78125 14.054688 -26.21875 14.765625 -26.46875 C 15.484375 -26.71875 16.285156 -26.8125 17.171875 -26.75 C 18.054688 -26.6875 18.832031 -26.46875 19.5 -26.09375 C 20.164062 -25.726562 20.46875 -25.226562 20.40625 -24.59375 C 20.664062 -25.226562 21.035156 -25.570312 21.515625 -25.625 C 22.003906 -25.675781 22.40625 -25.515625 22.71875 -25.140625 C 23.039062 -24.773438 23.082031 -24.28125 22.84375 -23.65625 C 23.21875 -24.019531 23.710938 -24.078125 24.328125 -23.828125 C 24.941406 -23.578125 25.539062 -23.164062 26.125 -22.59375 C 26.707031 -22.03125 27.125 -21.429688 27.375 -20.796875 C 27.625 -20.160156 27.566406 -19.660156 27.203125 -19.296875 C 27.703125 -19.398438 28.160156 -19.234375 28.578125 -18.796875 C 28.992188 -18.367188 29.328125 -17.800781 29.578125 -17.09375 C 29.828125 -16.394531 29.96875 -15.671875 30 -14.921875 C 30.03125 -14.171875 29.945312 -13.507812 29.75 -12.9375 C 29.550781 -12.375 29.1875 -12.046875 28.65625 -11.953125 C 29.613281 -11.515625 30.039062 -11.1875 29.9375 -10.96875 C 29.84375 -10.757812 29.3125 -10.867188 28.34375 -11.296875 C 28.34375 -10.867188 28.066406 -10.546875 27.515625 -10.328125 C 26.972656 -10.109375 26.347656 -10 25.640625 -10 C 24.941406 -10 24.316406 -10.109375 23.765625 -10.328125 C 23.222656 -10.546875 22.953125 -10.867188 22.953125 -11.296875 C 22.953125 -10.734375 22.703125 -10.304688 22.203125 -10.015625 C 21.703125 -9.734375 21.125 -9.582031 20.46875 -9.5625 C 19.820312 -9.550781 19.25 -9.6875 18.75 -9.96875 C 18.25 -10.257812 18 -10.671875 18 -11.203125 C 18.03125 -10.628906 17.753906 -10.164062 17.171875 -9.8125 C 16.585938 -9.46875 15.929688 -9.265625 15.203125 -9.203125 C 15.535156 -8.796875 15.804688 -8.367188 16.015625 -7.921875 C 16.234375 -7.472656 16.378906 -7.066406 16.453125 -6.703125 C 16.785156 -7.066406 17.285156 -7.378906 17.953125 -7.640625 C 18.617188 -7.910156 19.300781 -8.078125 20 -8.140625 C 20.695312 -8.210938 21.320312 -8.171875 21.875 -8.015625 C 22.425781 -7.867188 22.75 -7.5625 22.84375 -7.09375 C 22.84375 -7.664062 23.066406 -8.097656 23.515625 -8.390625 C 23.972656 -8.691406 24.5 -8.84375 25.09375 -8.84375 C 25.695312 -8.84375 26.222656 -8.691406 26.671875 -8.390625 C 27.117188 -8.097656 27.34375 -7.664062 27.34375 -7.09375 C 28.007812 -6.96875 28.410156 -6.695312 28.546875 -6.28125 C 28.679688 -5.863281 28.597656 -5.492188 28.296875 -5.171875 C 27.992188 -4.859375 27.53125 -4.769531 26.90625 -4.90625 C 27.195312 -4.46875 27.242188 -4.023438 27.046875 -3.578125 C 26.847656 -3.128906 26.523438 -2.742188 26.078125 -2.421875 C 25.628906 -2.109375 25.160156 -1.929688 24.671875 -1.890625 C 24.191406 -1.859375 23.800781 -2.046875 23.5 -2.453125 C 23.695312 -1.816406 23.601562 -1.265625 23.21875 -0.796875 C 22.84375 -0.328125 22.335938 0.00390625 21.703125 0.203125 C 21.066406 0.398438 20.457031 0.40625 19.875 0.21875 C 19.289062 0.0390625 18.898438 -0.363281 18.703125 -1 C 18.765625 -0.101562 18.519531 0.507812 17.96875 0.84375 C 17.425781 1.175781 16.695312 1.203125 15.78125 0.921875 C 14.863281 0.640625 13.90625 0.03125 12.90625 -0.90625 Z M 14.953125 -15.046875 C 14.953125 -15.710938 15.132812 -16.085938 15.5 -16.171875 C 15.863281 -16.253906 16.113281 -16.046875 16.25 -15.546875 C 16.351562 -15.847656 16.550781 -16.128906 16.84375 -16.390625 C 17.144531 -16.660156 17.460938 -16.847656 17.796875 -16.953125 C 17.398438 -17.253906 17.066406 -17.6875 16.796875 -18.25 C 16.535156 -18.8125 16.453125 -19.3125 16.546875 -19.75 C 16.242188 -19.582031 15.882812 -19.484375 15.46875 -19.453125 C 15.050781 -19.421875 14.695312 -19.46875 14.40625 -19.59375 C 14.5 -19.226562 14.476562 -18.796875 14.34375 -18.296875 C 14.21875 -17.796875 14.007812 -17.34375 13.71875 -16.9375 C 13.4375 -16.539062 13.113281 -16.328125 12.75 -16.296875 C 13.1875 -16.203125 13.507812 -15.96875 13.71875 -15.59375 C 13.9375 -15.226562 14.347656 -15.046875 14.953125 -15.046875 Z M 14.953125 -15.046875 "/></g></g></g><g fill="#ffffff" fill-opacity="1"><g transform="translate(250.993, 58.036321)"><g><path d="M 5.796875 -3 C 5.203125 -2.53125 4.703125 -2.34375 4.296875 -2.4375 C 3.898438 -2.539062 3.691406 -2.800781 3.671875 -3.21875 C 3.660156 -3.632812 3.953125 -4.078125 4.546875 -4.546875 C 3.847656 -4.316406 3.265625 -4.328125 2.796875 -4.578125 C 2.328125 -4.828125 2 -5.203125 1.8125 -5.703125 C 1.632812 -6.203125 1.644531 -6.703125 1.84375 -7.203125 C 2.050781 -7.703125 2.488281 -8.066406 3.15625 -8.296875 C 2.414062 -8.265625 1.84375 -8.484375 1.4375 -8.953125 C 1.039062 -9.421875 0.816406 -9.988281 0.765625 -10.65625 C 0.722656 -11.320312 0.867188 -11.921875 1.203125 -12.453125 C 1.535156 -12.984375 2.066406 -13.28125 2.796875 -13.34375 C 2.097656 -13.414062 1.609375 -13.75 1.328125 -14.34375 C 1.046875 -14.945312 0.945312 -15.613281 1.03125 -16.34375 C 1.113281 -17.082031 1.363281 -17.707031 1.78125 -18.21875 C 2.195312 -18.738281 2.753906 -18.945312 3.453125 -18.84375 C 2.847656 -19.175781 2.488281 -19.609375 2.375 -20.140625 C 2.257812 -20.679688 2.328125 -21.179688 2.578125 -21.640625 C 2.828125 -22.109375 3.191406 -22.4375 3.671875 -22.625 C 4.160156 -22.8125 4.71875 -22.738281 5.34375 -22.40625 C 5.007812 -22.9375 4.96875 -23.457031 5.21875 -23.96875 C 5.46875 -24.488281 5.859375 -24.914062 6.390625 -25.25 C 6.929688 -25.582031 7.484375 -25.738281 8.046875 -25.71875 C 8.617188 -25.707031 9.070312 -25.4375 9.40625 -24.90625 C 9.4375 -25.332031 9.703125 -25.644531 10.203125 -25.84375 C 10.703125 -26.050781 11.304688 -26.160156 12.015625 -26.171875 C 12.734375 -26.191406 13.441406 -26.125 14.140625 -25.96875 C 14.847656 -25.820312 15.429688 -25.609375 15.890625 -25.328125 C 16.359375 -25.046875 16.578125 -24.6875 16.546875 -24.25 C 16.617188 -24.8125 16.78125 -25.25 17.03125 -25.5625 C 17.28125 -25.882812 17.570312 -26.082031 17.90625 -26.15625 C 17.9375 -26.71875 18.132812 -27.210938 18.5 -27.640625 C 18.863281 -28.078125 19.332031 -28.25 19.90625 -28.15625 C 19.269531 -28.21875 18.789062 -28.523438 18.46875 -29.078125 C 18.15625 -29.628906 18.003906 -30.253906 18.015625 -30.953125 C 18.035156 -31.648438 18.21875 -32.253906 18.5625 -32.765625 C 18.914062 -33.285156 19.425781 -33.546875 20.09375 -33.546875 C 19.664062 -34.378906 19.472656 -34.988281 19.515625 -35.375 C 19.566406 -35.757812 19.773438 -35.875 20.140625 -35.71875 C 20.515625 -35.570312 20.9375 -35.082031 21.40625 -34.25 C 21.40625 -34.8125 21.660156 -35.226562 22.171875 -35.5 C 22.691406 -35.769531 23.285156 -35.90625 23.953125 -35.90625 C 24.617188 -35.90625 25.207031 -35.769531 25.71875 -35.5 C 26.238281 -35.226562 26.5 -34.8125 26.5 -34.25 C 26.832031 -34.550781 27.238281 -34.597656 27.71875 -34.390625 C 28.207031 -34.191406 28.648438 -33.859375 29.046875 -33.390625 C 29.453125 -32.929688 29.71875 -32.453125 29.84375 -31.953125 C 29.976562 -31.453125 29.878906 -31.050781 29.546875 -30.75 C 30.117188 -30.75 30.535156 -30.421875 30.796875 -29.765625 C 31.066406 -29.117188 31.203125 -28.378906 31.203125 -27.546875 C 31.203125 -26.710938 31.066406 -25.96875 30.796875 -25.3125 C 30.535156 -24.664062 30.117188 -24.34375 29.546875 -24.34375 C 30.046875 -24.34375 30.4375 -24.082031 30.71875 -23.5625 C 31.007812 -23.050781 31.203125 -22.421875 31.296875 -21.671875 C 31.398438 -20.921875 31.398438 -20.171875 31.296875 -19.421875 C 31.203125 -18.671875 31.007812 -18.035156 30.71875 -17.515625 C 30.4375 -17.003906 30.046875 -16.75 29.546875 -16.75 C 30.316406 -16.75 30.828125 -16.582031 31.078125 -16.25 C 31.328125 -15.914062 31.328125 -15.582031 31.078125 -15.25 C 30.828125 -14.914062 30.316406 -14.75 29.546875 -14.75 C 30.515625 -14.75 31.15625 -14.5 31.46875 -14 C 31.789062 -13.5 31.789062 -13 31.46875 -12.5 C 31.15625 -12 30.515625 -11.75 29.546875 -11.75 C 29.953125 -11.75 30.28125 -11.515625 30.53125 -11.046875 C 30.78125 -10.578125 30.945312 -9.992188 31.03125 -9.296875 C 31.113281 -8.597656 31.113281 -7.898438 31.03125 -7.203125 C 30.945312 -6.503906 30.78125 -5.921875 30.53125 -5.453125 C 30.28125 -4.984375 29.953125 -4.75 29.546875 -4.75 C 30.285156 -4.644531 30.8125 -4.394531 31.125 -4 C 31.4375 -3.601562 31.5625 -3.171875 31.5 -2.703125 C 31.4375 -2.234375 31.195312 -1.847656 30.78125 -1.546875 C 30.363281 -1.242188 29.785156 -1.144531 29.046875 -1.25 C 29.046875 -0.71875 28.851562 -0.328125 28.46875 -0.078125 C 28.09375 0.171875 27.660156 0.296875 27.171875 0.296875 C 26.691406 0.296875 26.257812 0.171875 25.875 -0.078125 C 25.488281 -0.328125 25.296875 -0.71875 25.296875 -1.25 C 25.234375 -0.644531 24.957031 -0.226562 24.46875 0 C 23.988281 0.226562 23.457031 0.3125 22.875 0.25 C 22.289062 0.1875 21.789062 -0.0078125 21.375 -0.34375 C 20.957031 -0.675781 20.78125 -1.128906 20.84375 -1.703125 C 20.84375 -1.035156 20.648438 -0.535156 20.265625 -0.203125 C 19.890625 0.128906 19.453125 0.3125 18.953125 0.34375 C 18.453125 0.382812 17.992188 0.269531 17.578125 0 C 17.160156 -0.269531 16.882812 -0.6875 16.75 -1.25 C 16.71875 -0.519531 16.242188 -0.0195312 15.328125 0.25 C 14.410156 0.519531 13.132812 0.421875 11.5 -0.046875 C 9.863281 -0.515625 7.960938 -1.5 5.796875 -3 Z M 20.15625 -13.09375 C 19.6875 -13.09375 19.398438 -13.289062 19.296875 -13.6875 C 19.203125 -14.09375 19.320312 -14.394531 19.65625 -14.59375 C 19.320312 -14.59375 18.953125 -14.769531 18.546875 -15.125 C 18.148438 -15.476562 17.804688 -15.882812 17.515625 -16.34375 C 17.234375 -16.8125 17.0625 -17.265625 17 -17.703125 C 16.695312 -17.398438 16.28125 -17.195312 15.75 -17.09375 C 15.21875 -17 14.769531 -17.050781 14.40625 -17.25 C 14.5 -16.8125 14.46875 -16.289062 14.3125 -15.6875 C 14.164062 -15.09375 13.941406 -14.578125 13.640625 -14.140625 C 13.347656 -13.710938 13.050781 -13.550781 12.75 -13.65625 C 13.019531 -13.582031 13.21875 -13.328125 13.34375 -12.890625 C 13.476562 -12.460938 13.53125 -12.015625 13.5 -11.546875 C 13.46875 -11.078125 13.332031 -10.726562 13.09375 -10.5 C 13.53125 -10.53125 14.085938 -10.335938 14.765625 -9.921875 C 15.453125 -9.503906 16.113281 -9.0625 16.75 -8.59375 C 17.382812 -8.132812 17.832031 -7.820312 18.09375 -7.65625 C 17.757812 -7.914062 17.648438 -8.328125 17.765625 -8.890625 C 17.890625 -9.460938 18.132812 -10.003906 18.5 -10.515625 C 18.863281 -11.035156 19.25 -11.3125 19.65625 -11.34375 C 19.113281 -11.507812 18.894531 -11.851562 19 -12.375 C 19.101562 -12.894531 19.488281 -13.132812 20.15625 -13.09375 Z M 20.15625 -13.09375 "/></g></g></g><g fill="#ffffff" fill-opacity="1"><g transform="translate(289.037794, 58.036321)"><g><path d="M 13.75 -1.453125 C 13.445312 -0.816406 12.988281 -0.40625 12.375 -0.21875 C 11.757812 -0.0390625 11.09375 -0.0390625 10.375 -0.21875 C 9.65625 -0.40625 8.992188 -0.707031 8.390625 -1.125 C 7.796875 -1.539062 7.359375 -2.046875 7.078125 -2.640625 C 6.796875 -3.242188 6.800781 -3.863281 7.09375 -4.5 C 6.425781 -4.03125 5.789062 -3.867188 5.1875 -4.015625 C 4.59375 -4.171875 4.113281 -4.503906 3.75 -5.015625 C 3.382812 -5.535156 3.222656 -6.101562 3.265625 -6.71875 C 3.316406 -7.34375 3.675781 -7.882812 4.34375 -8.34375 C 3.71875 -8.28125 3.175781 -8.472656 2.71875 -8.921875 C 2.269531 -9.367188 1.925781 -9.957031 1.6875 -10.6875 C 1.457031 -11.425781 1.351562 -12.175781 1.375 -12.9375 C 1.394531 -13.707031 1.5625 -14.375 1.875 -14.9375 C 2.1875 -15.507812 2.660156 -15.832031 3.296875 -15.90625 C 2.535156 -15.9375 1.9375 -16.222656 1.5 -16.765625 C 1.0625 -17.316406 0.785156 -17.984375 0.671875 -18.765625 C 0.554688 -19.554688 0.585938 -20.332031 0.765625 -21.09375 C 0.953125 -21.863281 1.28125 -22.5 1.75 -23 C 2.21875 -23.5 2.816406 -23.75 3.546875 -23.75 C 3.078125 -23.976562 2.816406 -24.375 2.765625 -24.9375 C 2.722656 -25.507812 2.816406 -26.128906 3.046875 -26.796875 C 3.285156 -27.460938 3.613281 -28.085938 4.03125 -28.671875 C 4.445312 -29.253906 4.90625 -29.6875 5.40625 -29.96875 C 5.90625 -30.257812 6.367188 -30.285156 6.796875 -30.046875 C 6.160156 -30.878906 5.910156 -31.5625 6.046875 -32.09375 C 6.179688 -32.632812 6.53125 -32.90625 7.09375 -32.90625 C 7.664062 -32.90625 8.269531 -32.488281 8.90625 -31.65625 C 8.53125 -32.582031 8.457031 -33.363281 8.6875 -34 C 8.925781 -34.632812 9.328125 -35.054688 9.890625 -35.265625 C 10.460938 -35.484375 11.054688 -35.453125 11.671875 -35.171875 C 12.285156 -34.890625 12.78125 -34.300781 13.15625 -33.40625 C 13.050781 -34.195312 13.164062 -34.828125 13.5 -35.296875 C 13.832031 -35.765625 14.265625 -36.03125 14.796875 -36.09375 C 15.328125 -36.164062 15.816406 -36.023438 16.265625 -35.671875 C 16.722656 -35.328125 17.019531 -34.753906 17.15625 -33.953125 C 17.21875 -34.710938 17.554688 -35.285156 18.171875 -35.671875 C 18.785156 -36.054688 19.5 -36.28125 20.3125 -36.34375 C 21.132812 -36.414062 21.945312 -36.328125 22.75 -36.078125 C 23.550781 -35.828125 24.203125 -35.441406 24.703125 -34.921875 C 25.203125 -34.410156 25.398438 -33.769531 25.296875 -33 C 25.796875 -34.132812 26.363281 -34.785156 27 -34.953125 C 27.632812 -35.117188 28.09375 -34.910156 28.375 -34.328125 C 28.65625 -33.742188 28.546875 -32.882812 28.046875 -31.75 C 28.785156 -32.75 29.453125 -33.28125 30.046875 -33.34375 C 30.648438 -33.414062 31 -33.160156 31.09375 -32.578125 C 31.195312 -31.992188 30.882812 -31.203125 30.15625 -30.203125 C 30.882812 -30.765625 31.554688 -31.019531 32.171875 -30.96875 C 32.785156 -30.925781 33.25 -30.695312 33.5625 -30.28125 C 33.882812 -29.863281 33.976562 -29.351562 33.84375 -28.75 C 33.71875 -28.144531 33.269531 -27.5625 32.5 -27 C 33.226562 -27.226562 33.828125 -27.21875 34.296875 -26.96875 C 34.765625 -26.71875 35.066406 -26.367188 35.203125 -25.921875 C 35.335938 -25.472656 35.28125 -25.023438 35.03125 -24.578125 C 34.78125 -24.128906 34.285156 -23.785156 33.546875 -23.546875 C 34.179688 -23.578125 34.691406 -23.351562 35.078125 -22.875 C 35.460938 -22.394531 35.726562 -21.796875 35.875 -21.078125 C 36.019531 -20.359375 36.039062 -19.628906 35.9375 -18.890625 C 35.84375 -18.160156 35.617188 -17.546875 35.265625 -17.046875 C 34.921875 -16.546875 34.429688 -16.28125 33.796875 -16.25 C 35.035156 -16.25 35.851562 -16.023438 36.25 -15.578125 C 36.644531 -15.128906 36.632812 -14.6875 36.21875 -14.25 C 35.800781 -13.8125 34.976562 -13.613281 33.75 -13.65625 C 34.550781 -13.519531 35.097656 -13.140625 35.390625 -12.515625 C 35.691406 -11.898438 35.773438 -11.242188 35.640625 -10.546875 C 35.515625 -9.847656 35.203125 -9.273438 34.703125 -8.828125 C 34.203125 -8.378906 33.550781 -8.238281 32.75 -8.40625 C 33.144531 -8.03125 33.289062 -7.539062 33.1875 -6.9375 C 33.09375 -6.34375 32.828125 -5.738281 32.390625 -5.125 C 31.960938 -4.507812 31.457031 -3.96875 30.875 -3.5 C 30.289062 -3.03125 29.710938 -2.71875 29.140625 -2.5625 C 28.578125 -2.414062 28.097656 -2.53125 27.703125 -2.90625 C 27.898438 -2.132812 27.722656 -1.460938 27.171875 -0.890625 C 26.617188 -0.328125 25.910156 0.0664062 25.046875 0.296875 C 24.179688 0.535156 23.363281 0.550781 22.59375 0.34375 C 21.832031 0.144531 21.351562 -0.332031 21.15625 -1.09375 C 21.25 0.738281 20.660156 1.65625 19.390625 1.65625 C 18.128906 1.65625 16.25 0.617188 13.75 -1.453125 Z M 22 -8.90625 C 21.226562 -9.238281 20.816406 -9.742188 20.765625 -10.421875 C 20.722656 -11.109375 20.910156 -11.722656 21.328125 -12.265625 C 21.742188 -12.816406 22.300781 -13.078125 23 -13.046875 C 22.5625 -13.285156 22.25 -13.6875 22.0625 -14.25 C 21.882812 -14.8125 21.828125 -15.410156 21.890625 -16.046875 C 21.960938 -16.679688 22.15625 -17.222656 22.46875 -17.671875 C 22.789062 -18.117188 23.234375 -18.34375 23.796875 -18.34375 C 23.128906 -18.3125 22.628906 -18.585938 22.296875 -19.171875 C 21.960938 -19.753906 21.835938 -20.40625 21.921875 -21.125 C 22.003906 -21.84375 22.28125 -22.382812 22.75 -22.75 C 22.113281 -22.6875 21.5625 -22.9375 21.09375 -23.5 C 20.632812 -24.0625 20.46875 -24.644531 20.59375 -25.25 C 20.195312 -25.019531 19.789062 -24.960938 19.375 -25.078125 C 18.957031 -25.191406 18.632812 -25.445312 18.40625 -25.84375 C 18.269531 -25.28125 17.929688 -24.859375 17.390625 -24.578125 C 16.859375 -24.296875 16.328125 -24.238281 15.796875 -24.40625 C 15.960938 -23.9375 15.976562 -23.429688 15.84375 -22.890625 C 15.71875 -22.359375 15.46875 -21.910156 15.09375 -21.546875 C 14.726562 -21.179688 14.28125 -21 13.75 -21 C 14.21875 -20.863281 14.554688 -20.578125 14.765625 -20.140625 C 14.984375 -19.710938 15.066406 -19.238281 15.015625 -18.71875 C 14.972656 -18.207031 14.804688 -17.765625 14.515625 -17.390625 C 14.234375 -17.023438 13.828125 -16.84375 13.296875 -16.84375 C 13.992188 -16.882812 14.457031 -16.785156 14.6875 -16.546875 C 14.925781 -16.316406 14.925781 -16.078125 14.6875 -15.828125 C 14.457031 -15.578125 13.992188 -15.453125 13.296875 -15.453125 C 14.097656 -15.484375 14.671875 -15.289062 15.015625 -14.875 C 15.367188 -14.457031 15.503906 -13.984375 15.421875 -13.453125 C 15.335938 -12.921875 15.03125 -12.503906 14.5 -12.203125 C 15.0625 -12.128906 15.59375 -11.789062 16.09375 -11.1875 C 16.59375 -10.59375 16.863281 -9.976562 16.90625 -9.34375 C 17.363281 -9.84375 18.035156 -10.019531 18.921875 -9.875 C 19.804688 -9.726562 20.832031 -9.40625 22 -8.90625 Z M 22 -8.90625 "/></g></g></g><g fill="#ffffff" fill-opacity="1"><g transform="translate(331.131965, 58.036321)"><g><path d="M 4.25 -7.953125 C 3.25 -7.953125 2.503906 -8.265625 2.015625 -8.890625 C 1.535156 -9.523438 1.296875 -10.269531 1.296875 -11.125 C 1.296875 -11.976562 1.535156 -12.71875 2.015625 -13.34375 C 2.503906 -13.976562 3.25 -14.296875 4.25 -14.296875 C 3.644531 -14.296875 3.160156 -14.546875 2.796875 -15.046875 C 2.429688 -15.546875 2.179688 -16.160156 2.046875 -16.890625 C 1.910156 -17.628906 1.910156 -18.363281 2.046875 -19.09375 C 2.179688 -19.832031 2.429688 -20.453125 2.796875 -20.953125 C 3.160156 -21.453125 3.644531 -21.703125 4.25 -21.703125 C 3.28125 -21.703125 2.550781 -22.023438 2.0625 -22.671875 C 1.582031 -23.328125 1.34375 -24.09375 1.34375 -24.96875 C 1.34375 -25.851562 1.582031 -26.617188 2.0625 -27.265625 C 2.550781 -27.921875 3.28125 -28.25 4.25 -28.25 C 2.976562 -28.25 2.132812 -28.5 1.71875 -29 C 1.300781 -29.5 1.300781 -30 1.71875 -30.5 C 2.132812 -31 2.976562 -31.25 4.25 -31.25 C 3.21875 -31.25 2.523438 -31.445312 2.171875 -31.84375 C 1.828125 -32.25 1.828125 -32.648438 2.171875 -33.046875 C 2.523438 -33.453125 3.21875 -33.65625 4.25 -33.65625 C 4.28125 -34.445312 4.5625 -35.035156 5.09375 -35.421875 C 5.632812 -35.804688 6.242188 -35.988281 6.921875 -35.96875 C 7.609375 -35.957031 8.203125 -35.742188 8.703125 -35.328125 C 9.203125 -34.910156 9.453125 -34.300781 9.453125 -33.5 C 9.679688 -34.0625 10.050781 -34.398438 10.5625 -34.515625 C 11.082031 -34.640625 11.609375 -34.59375 12.140625 -34.375 C 12.679688 -34.15625 13.09375 -33.820312 13.375 -33.375 C 13.65625 -32.925781 13.679688 -32.414062 13.453125 -31.84375 C 14.210938 -32.28125 14.898438 -32.40625 15.515625 -32.21875 C 16.140625 -32.039062 16.617188 -31.679688 16.953125 -31.140625 C 17.285156 -30.609375 17.382812 -30.023438 17.25 -29.390625 C 17.113281 -28.765625 16.679688 -28.21875 15.953125 -27.75 C 16.921875 -28.351562 17.660156 -28.59375 18.171875 -28.46875 C 18.691406 -28.351562 18.882812 -28.046875 18.75 -27.546875 C 18.613281 -27.046875 18.046875 -26.5 17.046875 -25.90625 C 17.953125 -26.4375 18.726562 -26.550781 19.375 -26.25 C 20.019531 -25.945312 20.425781 -25.460938 20.59375 -24.796875 C 20.757812 -24.128906 20.546875 -23.476562 19.953125 -22.84375 C 20.453125 -23.144531 20.96875 -23.195312 21.5 -23 C 21.800781 -23.5 22.222656 -23.859375 22.765625 -24.078125 C 23.316406 -24.296875 23.894531 -24.21875 24.5 -23.84375 C 23.726562 -24.3125 23.257812 -24.828125 23.09375 -25.390625 C 22.925781 -25.960938 22.984375 -26.472656 23.265625 -26.921875 C 23.554688 -27.367188 23.992188 -27.644531 24.578125 -27.75 C 25.160156 -27.851562 25.816406 -27.6875 26.546875 -27.25 C 25.785156 -27.71875 25.3125 -28.21875 25.125 -28.75 C 24.9375 -29.28125 24.957031 -29.742188 25.1875 -30.140625 C 25.425781 -30.546875 25.828125 -30.789062 26.390625 -30.875 C 26.960938 -30.957031 27.632812 -30.765625 28.40625 -30.296875 C 27.632812 -30.796875 27.148438 -31.328125 26.953125 -31.890625 C 26.753906 -32.460938 26.785156 -32.945312 27.046875 -33.34375 C 27.316406 -33.75 27.742188 -33.984375 28.328125 -34.046875 C 28.910156 -34.117188 29.601562 -33.90625 30.40625 -33.40625 C 30.363281 -34.195312 30.59375 -34.800781 31.09375 -35.21875 C 31.59375 -35.632812 32.164062 -35.851562 32.8125 -35.875 C 33.46875 -35.894531 34.046875 -35.703125 34.546875 -35.296875 C 35.046875 -34.898438 35.3125 -34.300781 35.34375 -33.5 C 35.644531 -34.0625 36.03125 -34.398438 36.5 -34.515625 C 36.96875 -34.640625 37.410156 -34.59375 37.828125 -34.375 C 38.242188 -34.15625 38.539062 -33.820312 38.71875 -33.375 C 38.90625 -32.925781 38.847656 -32.414062 38.546875 -31.84375 C 39.785156 -31.84375 40.601562 -31.59375 41 -31.09375 C 41.394531 -30.59375 41.394531 -30.09375 41 -29.59375 C 40.601562 -29.09375 39.785156 -28.84375 38.546875 -28.84375 C 39.710938 -28.84375 40.488281 -28.609375 40.875 -28.140625 C 41.257812 -27.679688 41.257812 -27.21875 40.875 -26.75 C 40.488281 -26.28125 39.710938 -26.046875 38.546875 -26.046875 C 39.546875 -26.046875 40.210938 -25.785156 40.546875 -25.265625 C 40.878906 -24.753906 40.878906 -24.234375 40.546875 -23.703125 C 40.210938 -23.171875 39.546875 -22.90625 38.546875 -22.90625 C 39.285156 -22.90625 39.878906 -22.65625 40.328125 -22.15625 C 40.773438 -21.65625 41.070312 -21.035156 41.21875 -20.296875 C 41.375 -19.566406 41.375 -18.832031 41.21875 -18.09375 C 41.070312 -17.363281 40.773438 -16.75 40.328125 -16.25 C 39.878906 -15.75 39.285156 -15.5 38.546875 -15.5 C 39.347656 -15.5 39.945312 -15.316406 40.34375 -14.953125 C 40.75 -14.585938 40.953125 -14.171875 40.953125 -13.703125 C 40.953125 -13.234375 40.75 -12.816406 40.34375 -12.453125 C 39.945312 -12.085938 39.347656 -11.90625 38.546875 -11.90625 C 39.285156 -11.90625 39.867188 -11.644531 40.296875 -11.125 C 40.734375 -10.601562 41.023438 -9.957031 41.171875 -9.1875 C 41.328125 -8.425781 41.328125 -7.65625 41.171875 -6.875 C 41.023438 -6.09375 40.734375 -5.441406 40.296875 -4.921875 C 39.867188 -4.410156 39.285156 -4.15625 38.546875 -4.15625 C 39.847656 -4.15625 40.710938 -3.988281 41.140625 -3.65625 C 41.578125 -3.320312 41.578125 -2.988281 41.140625 -2.65625 C 40.710938 -2.320312 39.847656 -2.15625 38.546875 -2.15625 C 38.648438 -1.28125 38.46875 -0.59375 38 -0.09375 C 37.53125 0.40625 36.953125 0.695312 36.265625 0.78125 C 35.585938 0.863281 34.960938 0.71875 34.390625 0.34375 C 33.828125 -0.0195312 33.5 -0.632812 33.40625 -1.5 C 33.132812 -0.800781 32.75 -0.347656 32.25 -0.140625 C 31.75 0.0546875 31.253906 0.0546875 30.765625 -0.140625 C 30.285156 -0.347656 29.9375 -0.691406 29.71875 -1.171875 C 29.507812 -1.660156 29.535156 -2.253906 29.796875 -2.953125 C 28.535156 -2.953125 27.695312 -3.148438 27.28125 -3.546875 C 26.863281 -3.953125 26.863281 -4.34375 27.28125 -4.71875 C 27.695312 -5.101562 28.535156 -5.296875 29.796875 -5.296875 C 28.867188 -5.296875 28.160156 -5.617188 27.671875 -6.265625 C 27.191406 -6.921875 26.925781 -7.679688 26.875 -8.546875 C 26.820312 -9.410156 26.992188 -10.203125 27.390625 -10.921875 C 27.796875 -11.640625 28.429688 -12.066406 29.296875 -12.203125 C 28.566406 -12.203125 28.066406 -12.484375 27.796875 -13.046875 C 27.460938 -12.910156 27.195312 -13.007812 27 -13.34375 C 26.601562 -13.414062 26.1875 -13.582031 25.75 -13.84375 C 26.3125 -13.445312 26.582031 -12.945312 26.5625 -12.34375 C 26.550781 -11.75 26.363281 -11.191406 26 -10.671875 C 25.632812 -10.160156 25.175781 -9.800781 24.625 -9.59375 C 24.070312 -9.394531 23.515625 -9.5 22.953125 -9.90625 C 22.617188 -9.332031 22.097656 -9.050781 21.390625 -9.0625 C 20.691406 -9.082031 19.984375 -9.300781 19.265625 -9.71875 C 18.554688 -10.132812 18.007812 -10.632812 17.625 -11.21875 C 17.238281 -11.800781 17.210938 -12.394531 17.546875 -13 C 17.285156 -12.832031 17.019531 -12.695312 16.75 -12.59375 C 16.550781 -12.132812 16.25 -11.738281 15.84375 -11.40625 C 15.445312 -11.070312 15.015625 -10.882812 14.546875 -10.84375 C 15.046875 -10.507812 15.320312 -10.0625 15.375 -9.5 C 15.425781 -8.9375 15.25 -8.425781 14.84375 -7.96875 C 14.445312 -7.519531 13.832031 -7.296875 13 -7.296875 C 14.101562 -7.296875 14.835938 -7.0625 15.203125 -6.59375 C 15.566406 -6.132812 15.566406 -5.675781 15.203125 -5.21875 C 14.835938 -4.769531 14.101562 -4.546875 13 -4.546875 C 14.0625 -4.242188 14.703125 -3.785156 14.921875 -3.171875 C 15.140625 -2.554688 15.003906 -2.046875 14.515625 -1.640625 C 14.035156 -1.242188 13.25 -1.195312 12.15625 -1.5 C 12.15625 -0.632812 11.882812 0.0078125 11.34375 0.4375 C 10.8125 0.875 10.195312 1.09375 9.5 1.09375 C 8.800781 1.09375 8.179688 0.875 7.640625 0.4375 C 7.109375 0.0078125 6.84375 -0.632812 6.84375 -1.5 C 6.84375 -0.53125 6.707031 0.160156 6.4375 0.578125 C 6.175781 0.992188 5.863281 1.007812 5.5 0.625 C 5.132812 0.238281 4.828125 -0.632812 4.578125 -2 C 4.328125 -3.363281 4.21875 -5.347656 4.25 -7.953125 Z M 4.25 -7.953125 "/></g></g></g></svg>