<svg xmlns="http://www.w3.org/2000/svg" xmlns:xlink="http://www.w3.org/1999/xlink" width="500" zoomAndPan="magnify" viewBox="0 0 375 374.999991" height="500" preserveAspectRatio="xMidYMid meet" version="1.0"><defs><clipPath id="7d68915699"><path d="M 0 100.628906 L 144 100.628906 L 144 184 L 0 184 Z M 0 100.628906 " clip-rule="nonzero"/></clipPath><clipPath id="802acde6ed"><path d="M 176 100.628906 L 250 100.628906 L 250 203 L 176 203 Z M 176 100.628906 " clip-rule="nonzero"/></clipPath><clipPath id="56a0ecd079"><path d="M 266 100.628906 L 284 100.628906 L 284 203 L 266 203 Z M 266 100.628906 " clip-rule="nonzero"/></clipPath><clipPath id="8d6b4cad38"><path d="M 299 100.628906 L 375 100.628906 L 375 203 L 299 203 Z M 299 100.628906 " clip-rule="nonzero"/></clipPath><clipPath id="c21cc4f605"><path d="M 256 253 L 269 253 L 269 274.628906 L 256 274.628906 Z M 256 253 " clip-rule="nonzero"/></clipPath></defs><path fill="#ffcc03" d="M 143.878906 142.15625 L 143.878906 204.457031 L 107.96875 225.222656 L 107.96875 204.457031 L 125.917969 194.074219 L 125.917969 173.300781 L 90.007812 194.074219 L 90.007812 256.367188 L 72.050781 266.753906 L 72.050781 183.695312 Z M 143.878906 142.15625 " fill-opacity="1" fill-rule="nonzero"/><path fill="#ffffff" d="M 45.117188 251.074219 L 45.117188 188.882812 L 27.15625 178.496094 L 27.15625 240.699219 Z M 45.117188 251.074219 " fill-opacity="1" fill-rule="nonzero"/><path fill="#ffffff" d="M 72.050781 183.695312 L 72.050781 266.753906 L 54.089844 256.367188 L 54.089844 173.308594 Z M 72.050781 183.695312 " fill-opacity="1" fill-rule="nonzero"/><path fill="#ffffff" d="M 18.179688 152.535156 L 18.179688 235.601562 L 0.222656 225.222656 L 0.222656 142.15625 Z M 18.179688 152.535156 " fill-opacity="1" fill-rule="nonzero"/><g clip-path="url(#7d68915699)"><path fill="#02549d" d="M 143.878906 142.15625 L 72.050781 183.695312 L 54.089844 173.308594 L 18.179688 152.535156 L 0.222656 142.15625 L 72.050781 100.628906 L 90.347656 111.007812 L 36.140625 142.15625 L 72.050781 162.929688 L 107.96875 142.15625 L 98.964844 136.953125 L 81.003906 147.332031 L 63.097656 136.980469 L 99.015625 116.21875 L 107.96875 121.390625 L 116.90625 126.566406 Z M 143.878906 142.15625 " fill-opacity="1" fill-rule="nonzero"/></g><g clip-path="url(#802acde6ed)"><path fill="#ffcc03" d="M 226.640625 202.15625 L 199.75 202.15625 C 187.09375 202.15625 176.804688 191.851562 176.804688 179.175781 L 176.804688 123.933594 C 176.804688 111.257812 187.09375 100.953125 199.75 100.953125 L 232.886719 100.953125 L 232.886719 117.601562 L 199.75 117.601562 C 196.265625 117.601562 193.425781 120.4375 193.425781 123.933594 L 193.425781 179.183594 C 193.425781 182.671875 196.257812 185.519531 199.75 185.519531 L 226.640625 185.519531 C 230.125 185.519531 232.964844 182.679688 232.964844 179.183594 L 232.964844 159.011719 L 213.199219 159.011719 L 213.199219 142.367188 L 249.585938 142.367188 L 249.585938 179.183594 C 249.585938 191.859375 239.296875 202.164062 226.640625 202.164062 Z M 226.640625 202.15625 " fill-opacity="1" fill-rule="nonzero"/></g><g clip-path="url(#56a0ecd079)"><path fill="#ffcc03" d="M 266.382812 100.953125 L 283.003906 100.953125 L 283.003906 202.15625 L 266.382812 202.15625 Z M 266.382812 100.953125 " fill-opacity="1" fill-rule="nonzero"/></g><g clip-path="url(#8d6b4cad38)"><path fill="#ffcc03" d="M 316.457031 202.171875 L 299.835938 202.171875 L 299.835938 100.960938 L 351.183594 100.960938 C 364.191406 100.960938 374.777344 111.5625 374.777344 124.589844 L 374.777344 140.222656 C 374.777344 153.253906 364.191406 163.855469 351.183594 163.855469 L 333.136719 163.855469 L 333.136719 147.207031 L 351.183594 147.207031 C 355.027344 147.207031 358.15625 144.074219 358.15625 140.222656 L 358.15625 124.589844 C 358.15625 120.742188 355.027344 117.605469 351.183594 117.605469 L 316.457031 117.605469 Z M 316.457031 202.171875 " fill-opacity="1" fill-rule="nonzero"/></g><path fill="#ffffff" d="M 187.101562 237.238281 C 185.730469 237.238281 184.449219 236.96875 183.265625 236.433594 C 182.078125 235.898438 181.046875 235.152344 180.15625 234.207031 C 179.277344 233.257812 178.582031 232.15625 178.074219 230.910156 C 177.578125 229.667969 177.324219 228.335938 177.324219 226.917969 C 177.324219 225.5 177.585938 224.085938 178.113281 222.84375 C 178.640625 221.597656 179.355469 220.503906 180.265625 219.578125 C 181.175781 218.652344 182.222656 217.929688 183.402344 217.414062 C 184.582031 216.898438 185.824219 216.640625 187.136719 216.640625 C 188.632812 216.640625 190.058594 216.988281 191.410156 217.6875 C 192.761719 218.390625 193.925781 219.402344 194.898438 220.730469 L 192.777344 221.878906 C 192.046875 220.953125 191.1875 220.242188 190.1875 219.75 C 189.191406 219.257812 188.171875 219.011719 187.117188 219.011719 C 186.0625 219.011719 185.164062 219.214844 184.277344 219.621094 C 183.378906 220.027344 182.59375 220.597656 181.90625 221.320312 C 181.21875 222.054688 180.683594 222.894531 180.292969 223.847656 C 179.90625 224.804688 179.714844 225.839844 179.714844 226.960938 C 179.714844 228.082031 179.910156 229.074219 180.292969 230.027344 C 180.679688 230.984375 181.210938 231.824219 181.890625 232.546875 C 182.570312 233.273438 183.359375 233.835938 184.253906 234.242188 C 185.152344 234.648438 186.113281 234.847656 187.132812 234.847656 C 187.941406 234.847656 188.722656 234.710938 189.453125 234.4375 C 190.179688 234.160156 190.859375 233.769531 191.476562 233.273438 C 192.097656 232.773438 192.625 232.179688 193.066406 231.5 C 193.503906 230.816406 193.839844 230.074219 194.0625 229.253906 L 189.167969 229.253906 L 189.167969 227.125 L 196.84375 227.125 C 196.835938 228.515625 196.570312 229.828125 196.058594 231.050781 C 195.542969 232.273438 194.835938 233.34375 193.945312 234.269531 C 193.050781 235.195312 192.023438 235.925781 190.851562 236.449219 C 189.683594 236.976562 188.433594 237.238281 187.101562 237.238281 Z M 187.101562 237.238281 " fill-opacity="1" fill-rule="nonzero"/><path fill="#ffffff" d="M 199.625 236.867188 L 199.625 222.667969 L 202.003906 222.667969 L 202.003906 224.441406 C 202.503906 223.777344 203.140625 223.246094 203.90625 222.855469 C 204.671875 222.464844 205.503906 222.269531 206.398438 222.269531 C 206.949219 222.269531 207.476562 222.34375 207.988281 222.480469 L 207.027344 224.867188 C 206.636719 224.746094 206.261719 224.6875 205.890625 224.6875 C 205.183594 224.6875 204.535156 224.863281 203.941406 225.207031 C 203.347656 225.554688 202.878906 226.019531 202.53125 226.605469 C 202.183594 227.191406 202.003906 227.84375 202.003906 228.566406 L 202.003906 236.875 L 199.625 236.875 Z M 199.625 236.867188 " fill-opacity="1" fill-rule="nonzero"/><path fill="#ffffff" d="M 209.121094 231.46875 L 209.121094 222.660156 L 211.507812 222.660156 L 211.507812 230.941406 C 211.507812 231.65625 211.679688 232.316406 212.035156 232.902344 C 212.382812 233.488281 212.851562 233.960938 213.445312 234.300781 C 214.039062 234.648438 214.6875 234.820312 215.394531 234.820312 C 216.105469 234.820312 216.761719 234.648438 217.347656 234.300781 C 217.925781 233.953125 218.394531 233.488281 218.742188 232.902344 C 219.089844 232.316406 219.261719 231.664062 219.261719 230.941406 L 219.261719 222.660156 L 221.648438 222.660156 L 221.660156 236.863281 L 219.277344 236.863281 L 219.261719 235.058594 C 218.761719 235.726562 218.128906 236.253906 217.363281 236.644531 C 216.59375 237.035156 215.773438 237.230469 214.882812 237.230469 C 213.828125 237.230469 212.859375 236.96875 211.984375 236.457031 C 211.109375 235.941406 210.417969 235.246094 209.902344 234.378906 C 209.390625 233.511719 209.128906 232.539062 209.128906 231.46875 Z M 209.121094 231.46875 " fill-opacity="1" fill-rule="nonzero"/><path fill="#ffffff" d="M 226.496094 243.96875 L 224.117188 243.96875 L 224.117188 222.667969 L 226.496094 222.667969 L 226.496094 225.101562 C 226.980469 224.269531 227.625 223.59375 228.425781 223.074219 C 229.226562 222.558594 230.183594 222.300781 231.289062 222.300781 C 232.320312 222.300781 233.28125 222.496094 234.1875 222.878906 C 235.089844 223.269531 235.882812 223.804688 236.5625 224.492188 C 237.242188 225.179688 237.777344 225.96875 238.167969 226.875 C 238.558594 227.769531 238.746094 228.742188 238.746094 229.769531 C 238.746094 230.796875 238.550781 231.773438 238.167969 232.679688 C 237.777344 233.589844 237.242188 234.386719 236.5625 235.074219 C 235.882812 235.761719 235.089844 236.296875 234.1875 236.6875 C 233.28125 237.078125 232.3125 237.265625 231.289062 237.265625 C 230.183594 237.265625 229.226562 237.007812 228.425781 236.492188 C 227.625 235.976562 226.980469 235.296875 226.496094 234.464844 Z M 231.257812 224.617188 C 230.339844 224.617188 229.539062 224.847656 228.84375 225.308594 C 228.152344 225.773438 227.625 226.394531 227.246094 227.171875 C 226.871094 227.945312 226.683594 228.8125 226.683594 229.769531 C 226.683594 230.722656 226.871094 231.578125 227.246094 232.367188 C 227.625 233.15625 228.152344 233.777344 228.839844 234.242188 C 229.523438 234.703125 230.328125 234.9375 231.257812 234.9375 C 232.191406 234.9375 233.015625 234.703125 233.78125 234.25 C 234.546875 233.792969 235.160156 233.171875 235.625 232.386719 C 236.085938 231.605469 236.316406 230.730469 236.316406 229.769531 C 236.316406 228.804688 236.09375 227.960938 235.636719 227.175781 C 235.183594 226.394531 234.574219 225.773438 233.808594 225.308594 C 233.042969 224.847656 232.191406 224.617188 231.257812 224.617188 Z M 231.257812 224.617188 " fill-opacity="1" fill-rule="nonzero"/><path fill="#ffffff" d="M 247.253906 237.238281 C 245.953125 237.238281 244.757812 236.90625 243.6875 236.230469 C 242.621094 235.558594 241.757812 234.660156 241.125 233.523438 C 240.488281 232.394531 240.167969 231.144531 240.167969 229.769531 C 240.167969 228.726562 240.351562 227.757812 240.71875 226.851562 C 241.085938 225.945312 241.59375 225.152344 242.242188 224.464844 C 242.894531 223.777344 243.644531 223.238281 244.507812 222.847656 C 245.367188 222.457031 246.285156 222.269531 247.253906 222.269531 C 248.558594 222.269531 249.746094 222.601562 250.820312 223.277344 C 251.898438 223.949219 252.75 224.855469 253.386719 225.992188 C 254.023438 227.125 254.339844 228.386719 254.339844 229.769531 C 254.339844 230.804688 254.160156 231.765625 253.792969 232.664062 C 253.425781 233.5625 252.917969 234.355469 252.265625 235.042969 C 251.617188 235.730469 250.867188 236.269531 250.011719 236.660156 C 249.160156 237.050781 248.234375 237.238281 247.253906 237.238281 Z M 247.253906 234.847656 C 248.140625 234.847656 248.941406 234.617188 249.660156 234.148438 C 250.375 233.675781 250.9375 233.0625 251.351562 232.289062 C 251.761719 231.511719 251.964844 230.671875 251.964844 229.769531 C 251.964844 228.863281 251.753906 227.988281 251.335938 227.214844 C 250.917969 226.4375 250.351562 225.816406 249.636719 225.355469 C 248.929688 224.890625 248.132812 224.660156 247.253906 224.660156 C 246.371094 224.660156 245.566406 224.890625 244.859375 225.359375 C 244.152344 225.832031 243.589844 226.453125 243.167969 227.226562 C 242.75 228.003906 242.546875 228.847656 242.546875 229.769531 C 242.546875 230.6875 242.757812 231.578125 243.183594 232.34375 C 243.609375 233.121094 244.179688 233.726562 244.902344 234.175781 C 245.625 234.625 246.40625 234.847656 247.257812 234.847656 Z M 247.253906 234.847656 " fill-opacity="1" fill-rule="nonzero"/><path fill="#ffffff" d="M 264.125 216.988281 L 266.511719 216.988281 L 266.511719 236.867188 L 264.125 236.867188 Z M 264.125 216.988281 " fill-opacity="1" fill-rule="nonzero"/><path fill="#ffffff" d="M 282.875 228.039062 L 282.875 236.867188 L 280.488281 236.867188 L 280.488281 228.558594 C 280.488281 227.84375 280.316406 227.183594 279.960938 226.597656 C 279.613281 226.011719 279.144531 225.542969 278.558594 225.203125 C 277.972656 224.855469 277.324219 224.679688 276.601562 224.679688 C 275.878906 224.679688 275.242188 224.855469 274.648438 225.203125 C 274.058594 225.550781 273.585938 226.011719 273.238281 226.597656 C 272.894531 227.183594 272.710938 227.835938 272.710938 228.558594 L 272.710938 236.867188 L 270.328125 236.867188 L 270.328125 222.667969 L 272.710938 222.667969 L 272.710938 224.441406 C 273.210938 223.777344 273.847656 223.246094 274.613281 222.855469 C 275.378906 222.464844 276.210938 222.269531 277.105469 222.269531 C 278.160156 222.269531 279.128906 222.53125 280.003906 223.042969 C 280.878906 223.558594 281.574219 224.253906 282.085938 225.128906 C 282.597656 226.003906 282.859375 226.96875 282.859375 228.039062 Z M 282.875 228.039062 " fill-opacity="1" fill-rule="nonzero"/><path fill="#ffffff" d="M 296.84375 215.566406 L 299.222656 215.566406 L 299.222656 236.867188 L 296.84375 236.867188 L 296.84375 234.453125 C 296.359375 235.285156 295.714844 235.957031 294.898438 236.46875 C 294.089844 236.984375 293.128906 237.238281 292.039062 237.238281 C 291.003906 237.238281 290.042969 237.042969 289.148438 236.660156 C 288.25 236.269531 287.457031 235.730469 286.769531 235.042969 C 286.082031 234.355469 285.546875 233.566406 285.15625 232.664062 C 284.765625 231.765625 284.578125 230.796875 284.578125 229.769531 C 284.578125 228.742188 284.773438 227.769531 285.15625 226.867188 C 285.546875 225.960938 286.082031 225.164062 286.769531 224.476562 C 287.457031 223.789062 288.242188 223.253906 289.148438 222.863281 C 290.042969 222.472656 291.011719 222.285156 292.039062 222.285156 C 293.136719 222.285156 294.089844 222.539062 294.898438 223.050781 C 295.707031 223.566406 296.359375 224.230469 296.84375 225.070312 Z M 292.066406 234.921875 C 293 234.921875 293.816406 234.691406 294.5 234.234375 C 295.1875 233.777344 295.714844 233.15625 296.089844 232.367188 C 296.46875 231.578125 296.65625 230.714844 296.65625 229.769531 C 296.65625 228.820312 296.46875 227.929688 296.085938 227.148438 C 295.703125 226.367188 295.171875 225.746094 294.488281 225.289062 C 293.800781 224.832031 293 224.601562 292.066406 224.601562 C 291.132812 224.601562 290.28125 224.832031 289.523438 225.296875 C 288.761719 225.757812 288.15625 226.382812 287.699219 227.164062 C 287.246094 227.945312 287.023438 228.8125 287.023438 229.769531 C 287.023438 230.722656 287.253906 231.59375 287.714844 232.375 C 288.179688 233.15625 288.792969 233.777344 289.558594 234.234375 C 290.324219 234.691406 291.164062 234.921875 292.066406 234.921875 Z M 292.066406 234.921875 " fill-opacity="1" fill-rule="nonzero"/><path fill="#ffffff" d="M 302.0625 231.46875 L 302.0625 222.660156 L 304.445312 222.660156 L 304.445312 230.941406 C 304.445312 231.65625 304.621094 232.316406 304.964844 232.902344 C 305.3125 233.488281 305.78125 233.960938 306.375 234.300781 C 306.96875 234.648438 307.617188 234.820312 308.328125 234.820312 C 309.035156 234.820312 309.691406 234.648438 310.277344 234.300781 C 310.855469 233.953125 311.324219 233.488281 311.671875 232.902344 C 312.019531 232.316406 312.199219 231.664062 312.199219 230.941406 L 312.199219 222.660156 L 314.585938 222.660156 L 314.601562 236.863281 L 312.214844 236.863281 L 312.199219 235.058594 C 311.703125 235.726562 311.066406 236.253906 310.300781 236.644531 C 309.535156 237.035156 308.703125 237.230469 307.820312 237.230469 C 306.757812 237.230469 305.796875 236.96875 304.921875 236.457031 C 304.046875 235.941406 303.355469 235.246094 302.839844 234.378906 C 302.328125 233.511719 302.066406 232.539062 302.066406 231.46875 Z M 302.0625 231.46875 " fill-opacity="1" fill-rule="nonzero"/><path fill="#ffffff" d="M 321.753906 237.136719 C 320.988281 237.109375 320.242188 236.960938 319.519531 236.703125 C 318.796875 236.441406 318.164062 236.085938 317.621094 235.636719 C 317.078125 235.191406 316.679688 234.667969 316.433594 234.082031 L 318.480469 233.199219 C 318.625 233.523438 318.878906 233.820312 319.246094 234.109375 C 319.613281 234.402344 320.042969 234.625 320.527344 234.792969 C 321.011719 234.964844 321.492188 235.042969 321.984375 235.042969 C 322.507812 235.042969 322.988281 234.964844 323.445312 234.804688 C 323.902344 234.648438 324.269531 234.40625 324.558594 234.089844 C 324.847656 233.769531 324.992188 233.394531 324.992188 232.945312 C 324.992188 232.476562 324.832031 232.097656 324.515625 231.832031 C 324.195312 231.5625 323.800781 231.347656 323.324219 231.195312 C 322.84375 231.042969 322.363281 230.890625 321.871094 230.746094 C 320.894531 230.5 320.027344 230.203125 319.261719 229.855469 C 318.496094 229.507812 317.894531 229.066406 317.453125 228.53125 C 317.011719 227.996094 316.796875 227.316406 316.796875 226.484375 C 316.796875 225.601562 317.042969 224.839844 317.527344 224.195312 C 318.011719 223.550781 318.652344 223.050781 319.449219 222.703125 C 320.242188 222.355469 321.097656 222.175781 322 222.175781 C 323.140625 222.175781 324.191406 222.421875 325.136719 222.914062 C 326.082031 223.40625 326.785156 224.074219 327.246094 224.917969 L 325.332031 226.042969 C 325.171875 225.699219 324.925781 225.398438 324.59375 225.136719 C 324.261719 224.875 323.886719 224.671875 323.460938 224.519531 C 323.035156 224.371094 322.601562 224.289062 322.160156 224.28125 C 321.609375 224.261719 321.097656 224.332031 320.621094 224.492188 C 320.144531 224.652344 319.757812 224.898438 319.46875 225.222656 C 319.179688 225.550781 319.035156 225.953125 319.035156 226.4375 C 319.035156 226.925781 319.1875 227.273438 319.5 227.519531 C 319.808594 227.765625 320.207031 227.960938 320.707031 228.105469 C 321.207031 228.25 321.746094 228.421875 322.332031 228.609375 C 323.191406 228.886719 323.996094 229.203125 324.746094 229.558594 C 325.496094 229.914062 326.097656 230.371094 326.554688 230.90625 C 327.007812 231.449219 327.238281 232.113281 327.226562 232.910156 C 327.226562 233.777344 326.964844 234.539062 326.445312 235.191406 C 325.925781 235.839844 325.253906 236.332031 324.429688 236.671875 C 323.605469 237.011719 322.714844 237.164062 321.769531 237.128906 Z M 321.753906 237.136719 " fill-opacity="1" fill-rule="nonzero"/><path fill="#ffffff" d="M 336.996094 225.058594 L 333.773438 225.058594 L 333.757812 236.867188 L 331.375 236.867188 L 331.386719 225.058594 L 328.953125 225.058594 L 328.953125 222.667969 L 331.386719 222.667969 L 331.375 218.210938 L 333.757812 218.210938 L 333.773438 222.667969 L 336.996094 222.667969 Z M 336.996094 225.058594 " fill-opacity="1" fill-rule="nonzero"/><path fill="#ffffff" d="M 339.539062 236.867188 L 339.539062 222.667969 L 341.917969 222.667969 L 341.917969 224.441406 C 342.417969 223.777344 343.050781 223.246094 343.816406 222.855469 C 344.585938 222.464844 345.414062 222.269531 346.3125 222.269531 C 346.859375 222.269531 347.386719 222.34375 347.902344 222.480469 L 346.941406 224.867188 C 346.550781 224.746094 346.175781 224.6875 345.804688 224.6875 C 345.097656 224.6875 344.445312 224.863281 343.855469 225.207031 C 343.261719 225.554688 342.792969 226.019531 342.445312 226.605469 C 342.097656 227.191406 341.917969 227.84375 341.917969 228.566406 L 341.917969 236.875 L 339.539062 236.875 Z M 339.539062 236.867188 " fill-opacity="1" fill-rule="nonzero"/><path fill="#ffffff" d="M 350.851562 220.351562 C 350.472656 220.351562 350.15625 220.230469 349.902344 219.984375 C 349.648438 219.738281 349.519531 219.425781 349.519531 219.058594 C 349.519531 218.6875 349.648438 218.375 349.902344 218.128906 C 350.15625 217.882812 350.46875 217.761719 350.835938 217.761719 C 351.203125 217.761719 351.515625 217.882812 351.769531 218.128906 C 352.019531 218.375 352.152344 218.679688 352.152344 219.058594 C 352.152344 219.433594 352.027344 219.738281 351.773438 219.984375 C 351.523438 220.230469 351.210938 220.351562 350.84375 220.351562 Z M 349.628906 222.667969 L 352.007812 222.667969 L 352.007812 236.867188 L 349.628906 236.867188 Z M 349.628906 222.667969 " fill-opacity="1" fill-rule="nonzero"/><path fill="#ffffff" d="M 366.632812 222.667969 L 369.019531 222.667969 L 369.019531 236.867188 L 366.632812 236.867188 L 366.53125 234.464844 C 366.085938 235.289062 365.476562 235.957031 364.695312 236.46875 C 363.917969 236.984375 362.984375 237.238281 361.90625 237.238281 C 360.832031 237.238281 359.890625 237.042969 358.988281 236.652344 C 358.085938 236.261719 357.28125 235.71875 356.589844 235.015625 C 355.894531 234.320312 355.351562 233.519531 354.960938 232.605469 C 354.570312 231.699219 354.382812 230.714844 354.382812 229.667969 C 354.382812 228.617188 354.570312 227.699219 354.949219 226.800781 C 355.324219 225.902344 355.851562 225.113281 356.53125 224.433594 C 357.210938 223.753906 357.988281 223.226562 358.878906 222.84375 C 359.769531 222.457031 360.722656 222.269531 361.742188 222.269531 C 362.855469 222.269531 363.835938 222.53125 364.675781 223.058594 C 365.511719 223.585938 366.199219 224.261719 366.71875 225.101562 Z M 361.871094 234.921875 C 362.804688 234.921875 363.621094 234.691406 364.304688 234.234375 C 364.992188 233.777344 365.519531 233.15625 365.894531 232.367188 C 366.273438 231.578125 366.460938 230.714844 366.460938 229.769531 C 366.460938 228.820312 366.273438 227.929688 365.890625 227.148438 C 365.507812 226.367188 364.976562 225.746094 364.292969 225.289062 C 363.605469 224.832031 362.804688 224.601562 361.871094 224.601562 C 360.9375 224.601562 360.085938 224.832031 359.320312 225.296875 C 358.554688 225.757812 357.945312 226.382812 357.5 227.164062 C 357.050781 227.945312 356.828125 228.8125 356.828125 229.769531 C 356.828125 230.722656 357.058594 231.59375 357.519531 232.375 C 357.984375 233.15625 358.597656 233.777344 359.363281 234.234375 C 360.128906 234.691406 360.96875 234.921875 361.871094 234.921875 Z M 361.871094 234.921875 " fill-opacity="1" fill-rule="nonzero"/><path fill="#ffffff" d="M 372.011719 236.867188 L 372.011719 215.566406 L 374.394531 215.566406 L 374.394531 236.867188 Z M 372.011719 236.867188 " fill-opacity="1" fill-rule="nonzero"/><path fill="#ffffff" d="M 189.3125 246.226562 L 191.699219 246.226562 L 191.699219 267.527344 L 189.3125 267.527344 L 189.3125 265.109375 C 188.828125 265.941406 188.1875 266.617188 187.371094 267.128906 C 186.558594 267.644531 185.597656 267.894531 184.507812 267.894531 C 183.472656 267.894531 182.511719 267.699219 181.617188 267.316406 C 180.722656 266.925781 179.925781 266.390625 179.238281 265.703125 C 178.554688 265.015625 178.019531 264.226562 177.628906 263.320312 C 177.238281 262.425781 177.050781 261.453125 177.050781 260.425781 C 177.050781 259.398438 177.246094 258.429688 177.628906 257.523438 C 178.019531 256.621094 178.554688 255.824219 179.238281 255.136719 C 179.925781 254.449219 180.714844 253.914062 181.617188 253.523438 C 182.511719 253.132812 183.480469 252.945312 184.507812 252.945312 C 185.605469 252.945312 186.558594 253.195312 187.371094 253.710938 C 188.179688 254.222656 188.828125 254.890625 189.3125 255.730469 Z M 184.535156 265.582031 C 185.46875 265.582031 186.285156 265.347656 186.972656 264.894531 C 187.660156 264.4375 188.1875 263.8125 188.5625 263.027344 C 188.9375 262.238281 189.125 261.375 189.125 260.425781 C 189.125 259.480469 188.9375 258.589844 188.554688 257.808594 C 188.171875 257.027344 187.644531 256.402344 186.957031 255.945312 C 186.269531 255.492188 185.46875 255.257812 184.535156 255.257812 C 183.605469 255.257812 182.75 255.492188 181.992188 255.953125 C 181.234375 256.417969 180.628906 257.039062 180.171875 257.820312 C 179.714844 258.601562 179.492188 259.472656 179.492188 260.425781 C 179.492188 261.382812 179.722656 262.25 180.1875 263.03125 C 180.648438 263.8125 181.261719 264.4375 182.027344 264.894531 C 182.796875 265.347656 183.632812 265.582031 184.535156 265.582031 Z M 184.535156 265.582031 " fill-opacity="1" fill-rule="nonzero"/><path fill="#ffffff" d="M 201.214844 267.894531 C 199.914062 267.894531 198.722656 267.5625 197.648438 266.890625 C 196.570312 266.21875 195.71875 265.320312 195.082031 264.183594 C 194.445312 263.054688 194.128906 261.800781 194.128906 260.425781 C 194.128906 259.386719 194.316406 258.414062 194.683594 257.511719 C 195.050781 256.605469 195.558594 255.808594 196.207031 255.121094 C 196.851562 254.433594 197.609375 253.898438 198.46875 253.507812 C 199.332031 253.117188 200.25 252.929688 201.222656 252.929688 C 202.292969 252.929688 203.277344 253.144531 204.164062 253.574219 C 205.054688 254 205.820312 254.601562 206.464844 255.367188 C 207.105469 256.136719 207.578125 257.027344 207.894531 258.039062 C 208.210938 259.050781 208.328125 260.136719 208.242188 261.289062 L 196.671875 261.289062 C 196.785156 262.09375 197.046875 262.808594 197.464844 263.4375 C 197.878906 264.066406 198.414062 264.566406 199.0625 264.9375 C 199.714844 265.304688 200.429688 265.492188 201.222656 265.507812 C 202.078125 265.507812 202.84375 265.289062 203.535156 264.847656 C 204.230469 264.40625 204.785156 263.808594 205.214844 263.039062 L 207.640625 263.613281 C 207.070312 264.871094 206.21875 265.898438 205.074219 266.703125 C 203.933594 267.503906 202.65625 267.902344 201.230469 267.902344 Z M 196.589844 259.421875 L 205.835938 259.421875 C 205.753906 258.625 205.503906 257.902344 205.070312 257.242188 C 204.636719 256.582031 204.078125 256.054688 203.414062 255.65625 C 202.742188 255.257812 202.011719 255.0625 201.214844 255.0625 C 200.421875 255.0625 199.691406 255.257812 199.035156 255.644531 C 198.375 256.027344 197.828125 256.554688 197.394531 257.214844 C 196.960938 257.871094 196.699219 258.609375 196.589844 259.421875 Z M 196.589844 259.421875 " fill-opacity="1" fill-rule="nonzero"/><path fill="#ffffff" d="M 217.636719 267.527344 L 217.636719 247.644531 L 224.183594 247.644531 C 225.253906 247.644531 226.214844 247.90625 227.066406 248.425781 C 227.921875 248.949219 228.605469 249.648438 229.113281 250.535156 C 229.617188 251.417969 229.871094 252.40625 229.871094 253.492188 C 229.871094 254.578125 229.609375 255.601562 229.097656 256.484375 C 228.585938 257.367188 227.890625 258.066406 227.023438 258.582031 C 226.15625 259.09375 225.210938 259.355469 224.183594 259.355469 L 220.015625 259.355469 L 220.015625 267.519531 L 217.636719 267.519531 Z M 220.015625 256.976562 L 223.96875 256.976562 C 224.609375 256.976562 225.203125 256.816406 225.730469 256.496094 C 226.257812 256.179688 226.691406 255.75 227.007812 255.203125 C 227.328125 254.660156 227.488281 254.042969 227.488281 253.363281 C 227.488281 252.683594 227.328125 252.054688 227.007812 251.511719 C 226.691406 250.96875 226.265625 250.535156 225.730469 250.214844 C 225.195312 249.894531 224.609375 249.738281 223.96875 249.738281 L 220.015625 249.738281 Z M 220.015625 256.976562 " fill-opacity="1" fill-rule="nonzero"/><path fill="#ffffff" d="M 232.320312 267.527344 L 232.320312 253.328125 L 234.707031 253.328125 L 234.707031 255.101562 C 235.203125 254.433594 235.839844 253.90625 236.605469 253.515625 C 237.371094 253.125 238.203125 252.929688 239.101562 252.929688 C 239.648438 252.929688 240.175781 253 240.691406 253.140625 L 239.730469 255.527344 C 239.339844 255.402344 238.960938 255.347656 238.59375 255.347656 C 237.886719 255.347656 237.234375 255.519531 236.644531 255.867188 C 236.050781 256.214844 235.582031 256.679688 235.234375 257.265625 C 234.886719 257.851562 234.707031 258.5 234.707031 259.226562 L 234.707031 267.535156 L 232.320312 267.535156 Z M 232.320312 267.527344 " fill-opacity="1" fill-rule="nonzero"/><path fill="#ffffff" d="M 247.9375 267.894531 C 246.636719 267.894531 245.445312 267.5625 244.367188 266.890625 C 243.292969 266.21875 242.4375 265.320312 241.804688 264.183594 C 241.167969 263.054688 240.847656 261.800781 240.847656 260.425781 C 240.847656 259.386719 241.035156 258.414062 241.40625 257.511719 C 241.773438 256.605469 242.28125 255.808594 242.929688 255.121094 C 243.574219 254.433594 244.332031 253.898438 245.191406 253.507812 C 246.050781 253.117188 246.96875 252.929688 247.945312 252.929688 C 249.246094 252.929688 250.4375 253.261719 251.515625 253.933594 C 252.585938 254.609375 253.445312 255.511719 254.082031 256.648438 C 254.71875 257.785156 255.035156 259.042969 255.035156 260.425781 C 255.035156 261.460938 254.847656 262.425781 254.480469 263.320312 C 254.109375 264.21875 253.605469 265.015625 252.953125 265.703125 C 252.304688 266.390625 251.550781 266.925781 250.699219 267.316406 C 249.847656 267.707031 248.921875 267.894531 247.9375 267.894531 Z M 247.9375 265.507812 C 248.828125 265.507812 249.628906 265.277344 250.34375 264.804688 C 251.0625 264.335938 251.625 263.71875 252.027344 262.945312 C 252.441406 262.171875 252.644531 261.332031 252.644531 260.425781 C 252.644531 259.523438 252.433594 258.648438 252.015625 257.871094 C 251.59375 257.097656 251.03125 256.476562 250.324219 256.011719 C 249.617188 255.550781 248.820312 255.316406 247.9375 255.316406 C 247.058594 255.316406 246.253906 255.550781 245.539062 256.019531 C 244.832031 256.488281 244.265625 257.113281 243.855469 257.886719 C 243.4375 258.660156 243.234375 259.507812 243.234375 260.425781 C 243.234375 261.347656 243.445312 262.238281 243.871094 263.003906 C 244.296875 263.777344 244.867188 264.386719 245.582031 264.835938 C 246.296875 265.285156 247.085938 265.507812 247.9375 265.507812 Z M 247.9375 265.507812 " fill-opacity="1" fill-rule="nonzero"/><g clip-path="url(#c21cc4f605)"><path fill="#ffffff" d="M 266.339844 253.328125 L 268.859375 253.328125 L 261.105469 274.628906 L 258.582031 274.628906 L 261.148438 267.527344 L 256.0625 253.328125 L 258.671875 253.328125 L 262.34375 264.25 Z M 266.339844 253.328125 " fill-opacity="1" fill-rule="nonzero"/></g><path fill="#ffffff" d="M 276.949219 267.894531 C 275.648438 267.894531 274.453125 267.5625 273.382812 266.890625 C 272.316406 266.21875 271.453125 265.320312 270.820312 264.183594 C 270.183594 263.054688 269.863281 261.800781 269.863281 260.425781 C 269.863281 259.386719 270.046875 258.414062 270.414062 257.511719 C 270.78125 256.605469 271.289062 255.808594 271.9375 255.121094 C 272.589844 254.433594 273.339844 253.898438 274.203125 253.507812 C 275.0625 253.117188 275.980469 252.929688 276.949219 252.929688 C 278.015625 252.929688 279 253.144531 279.890625 253.574219 C 280.785156 254 281.542969 254.601562 282.1875 255.367188 C 282.824219 256.136719 283.300781 257.027344 283.617188 258.039062 C 283.9375 259.050781 284.050781 260.136719 283.964844 261.289062 L 272.394531 261.289062 C 272.511719 262.09375 272.769531 262.808594 273.191406 263.4375 C 273.609375 264.066406 274.136719 264.566406 274.785156 264.9375 C 275.4375 265.304688 276.152344 265.492188 276.949219 265.507812 C 277.800781 265.507812 278.566406 265.289062 279.261719 264.847656 C 279.953125 264.40625 280.511719 263.808594 280.929688 263.039062 L 283.359375 263.613281 C 282.785156 264.871094 281.933594 265.898438 280.792969 266.703125 C 279.648438 267.503906 278.363281 267.902344 276.949219 267.902344 Z M 272.328125 259.421875 L 281.574219 259.421875 C 281.5 258.625 281.242188 257.902344 280.804688 257.242188 C 280.371094 256.582031 279.816406 256.054688 279.152344 255.65625 C 278.480469 255.257812 277.75 255.0625 276.953125 255.0625 C 276.160156 255.0625 275.429688 255.257812 274.773438 255.644531 C 274.113281 256.035156 273.566406 256.554688 273.132812 257.214844 C 272.699219 257.871094 272.4375 258.609375 272.328125 259.421875 Z M 272.328125 259.421875 " fill-opacity="1" fill-rule="nonzero"/><path fill="#ffffff" d="M 296.046875 263.777344 L 298.171875 264.929688 C 297.53125 265.828125 296.714844 266.550781 295.730469 267.085938 C 294.738281 267.628906 293.671875 267.894531 292.519531 267.894531 C 291.21875 267.894531 290.027344 267.5625 288.953125 266.890625 C 287.875 266.21875 287.023438 265.320312 286.386719 264.183594 C 285.75 263.054688 285.433594 261.800781 285.433594 260.425781 C 285.433594 259.386719 285.621094 258.414062 285.988281 257.511719 C 286.355469 256.605469 286.863281 255.808594 287.511719 255.121094 C 288.15625 254.433594 288.914062 253.898438 289.773438 253.507812 C 290.636719 253.117188 291.554688 252.929688 292.527344 252.929688 C 293.683594 252.929688 294.753906 253.195312 295.738281 253.738281 C 296.726562 254.28125 297.542969 255.007812 298.179688 255.910156 L 296.054688 257.0625 C 295.601562 256.503906 295.066406 256.070312 294.4375 255.765625 C 293.808594 255.460938 293.171875 255.308594 292.519531 255.308594 C 291.640625 255.308594 290.84375 255.542969 290.128906 256.011719 C 289.414062 256.484375 288.851562 257.105469 288.4375 257.878906 C 288.019531 258.652344 287.816406 259.5 287.816406 260.417969 C 287.816406 261.339844 288.027344 262.1875 288.445312 262.953125 C 288.863281 263.726562 289.4375 264.34375 290.144531 264.804688 C 290.859375 265.269531 291.648438 265.5 292.519531 265.5 C 293.222656 265.5 293.878906 265.339844 294.496094 265.015625 C 295.109375 264.699219 295.628906 264.277344 296.054688 263.765625 Z M 296.046875 263.777344 " fill-opacity="1" fill-rule="nonzero"/><path fill="#ffffff" d="M 308.074219 255.714844 L 304.859375 255.714844 L 304.84375 267.527344 L 302.457031 267.527344 L 302.472656 255.714844 L 300.03125 255.714844 L 300.03125 253.328125 L 302.472656 253.328125 L 302.457031 248.867188 L 304.84375 248.867188 L 304.859375 253.328125 L 308.074219 253.328125 Z M 308.074219 255.714844 " fill-opacity="1" fill-rule="nonzero"/><path fill="#ffffff" d="M 316.480469 267.894531 C 315.179688 267.894531 313.984375 267.5625 312.914062 266.890625 C 311.847656 266.21875 310.984375 265.320312 310.351562 264.183594 C 309.714844 263.054688 309.394531 261.800781 309.394531 260.425781 C 309.394531 259.386719 309.578125 258.414062 309.945312 257.511719 C 310.3125 256.605469 310.820312 255.808594 311.46875 255.121094 C 312.121094 254.433594 312.871094 253.898438 313.734375 253.507812 C 314.59375 253.117188 315.511719 252.929688 316.480469 252.929688 C 317.785156 252.929688 318.972656 253.261719 320.046875 253.933594 C 321.125 254.609375 321.976562 255.511719 322.613281 256.648438 C 323.25 257.785156 323.566406 259.042969 323.566406 260.425781 C 323.566406 261.460938 323.386719 262.425781 323.019531 263.320312 C 322.652344 264.21875 322.144531 265.015625 321.496094 265.703125 C 320.84375 266.390625 320.09375 266.925781 319.238281 267.316406 C 318.386719 267.707031 317.460938 267.894531 316.480469 267.894531 Z M 316.480469 265.507812 C 317.367188 265.507812 318.167969 265.277344 318.886719 264.804688 C 319.601562 264.335938 320.164062 263.71875 320.578125 262.945312 C 320.988281 262.171875 321.191406 261.332031 321.191406 260.425781 C 321.191406 259.523438 320.980469 258.648438 320.5625 257.871094 C 320.144531 257.097656 319.578125 256.476562 318.863281 256.011719 C 318.15625 255.550781 317.359375 255.316406 316.480469 255.316406 C 315.597656 255.316406 314.792969 255.550781 314.085938 256.019531 C 313.378906 256.488281 312.816406 257.113281 312.394531 257.886719 C 311.976562 258.660156 311.773438 259.507812 311.773438 260.425781 C 311.773438 261.347656 311.984375 262.238281 312.410156 263.003906 C 312.835938 263.777344 313.40625 264.386719 314.128906 264.835938 C 314.851562 265.285156 315.632812 265.507812 316.484375 265.507812 Z M 316.480469 265.507812 " fill-opacity="1" fill-rule="nonzero"/><path fill="#ffffff" d="M 330.324219 267.800781 C 329.558594 267.773438 328.816406 267.628906 328.09375 267.367188 C 327.371094 267.109375 326.734375 266.753906 326.191406 266.304688 C 325.648438 265.855469 325.253906 265.335938 325.007812 264.746094 L 327.042969 263.863281 C 327.1875 264.191406 327.441406 264.488281 327.808594 264.777344 C 328.179688 265.058594 328.605469 265.289062 329.089844 265.457031 C 329.574219 265.632812 330.058594 265.710938 330.550781 265.710938 C 331.070312 265.710938 331.554688 265.632812 332.007812 265.472656 C 332.464844 265.3125 332.832031 265.074219 333.121094 264.753906 C 333.410156 264.4375 333.554688 264.058594 333.554688 263.613281 C 333.554688 263.140625 333.398438 262.765625 333.078125 262.496094 C 332.761719 262.230469 332.363281 262.011719 331.886719 261.859375 C 331.410156 261.707031 330.925781 261.554688 330.433594 261.410156 C 329.457031 261.164062 328.589844 260.867188 327.824219 260.519531 C 327.058594 260.175781 326.460938 259.730469 326.019531 259.195312 C 325.578125 258.660156 325.359375 257.980469 325.359375 257.148438 C 325.359375 256.265625 325.605469 255.503906 326.089844 254.863281 C 326.574219 254.21875 327.21875 253.71875 328.011719 253.371094 C 328.808594 253.023438 329.660156 252.84375 330.5625 252.84375 C 331.707031 252.84375 332.753906 253.089844 333.699219 253.582031 C 334.648438 254.074219 335.347656 254.738281 335.8125 255.585938 L 333.894531 256.707031 C 333.738281 256.367188 333.492188 256.0625 333.160156 255.800781 C 332.824219 255.542969 332.449219 255.339844 332.023438 255.1875 C 331.597656 255.035156 331.164062 254.957031 330.722656 254.949219 C 330.171875 254.925781 329.660156 255 329.183594 255.15625 C 328.707031 255.316406 328.324219 255.5625 328.035156 255.890625 C 327.746094 256.214844 327.601562 256.621094 327.601562 257.105469 C 327.601562 257.589844 327.753906 257.9375 328.0625 258.183594 C 328.375 258.429688 328.773438 258.625 329.269531 258.769531 C 329.769531 258.914062 330.3125 259.089844 330.894531 259.277344 C 331.757812 259.550781 332.558594 259.871094 333.304688 260.222656 C 334.046875 260.578125 334.65625 261.035156 335.109375 261.570312 C 335.566406 262.113281 335.796875 262.78125 335.78125 263.574219 C 335.78125 264.445312 335.523438 265.203125 335 265.855469 C 334.480469 266.507812 333.808594 267 332.976562 267.339844 C 332.148438 267.679688 331.265625 267.832031 330.316406 267.796875 Z M 330.324219 267.800781 " fill-opacity="1" fill-rule="nonzero"/></svg>