<svg xmlns="http://www.w3.org/2000/svg" id="Capa_2" data-name="Capa 2" viewBox="0 0 518.28 240.41"><defs><style>      .cls-1 {        fill: #ffcc03;      }      .cls-1, .cls-2, .cls-3 {        stroke-width: 0px;      }      .cls-2 {        fill: #02549d;      }      .cls-3 {        fill: #fff;      }    </style></defs><g id="Capa_1-2" data-name="Capa 1"><g><polygon class="cls-1" points="198.78 57.38 198.78 143.46 149.09 172.15 149.09 143.46 173.93 129.11 173.93 100.41 124.24 129.11 124.24 215.18 99.39 229.53 99.39 114.77 198.78 57.38"></polygon><polygon class="cls-3" points="62.12 207.87 62.12 121.94 37.27 107.59 37.27 193.53 62.12 207.87"></polygon><polygon class="cls-3" points="99.39 114.77 99.39 229.53 74.54 215.18 74.54 100.42 99.39 114.77"></polygon><polygon class="cls-3" points="24.85 71.72 24.85 186.49 0 172.15 0 57.38 24.85 71.72"></polygon><polygon class="cls-2" points="198.78 57.38 99.39 114.77 74.54 100.42 24.85 71.72 0 57.38 99.39 0 124.71 14.34 49.7 57.38 99.39 86.08 149.09 57.38 136.63 50.19 111.78 64.53 87 50.23 136.7 21.54 149.09 28.69 161.46 35.84 198.78 57.38"></polygon><path class="cls-1" d="m313.3,140.28h-37.21c-17.51,0-31.75-14.24-31.75-31.75V32.2c0-17.51,14.24-31.75,31.75-31.75h45.85v23h-45.85c-4.82,0-8.75,3.92-8.75,8.75v76.34c0,4.82,3.92,8.75,8.75,8.75h37.21c4.82,0,8.75-3.92,8.75-8.75v-27.87h-27.35v-23h50.35v50.87c0,17.51-14.24,31.75-31.75,31.75Z"></path><rect class="cls-1" x="368.29" y=".45" width="23" height="139.83"></rect><path class="cls-1" d="m437.58,140.3h-23V.46h71.05c18,0,32.65,14.65,32.65,32.65v21.6c0,18-14.65,32.65-32.65,32.65h-24.97v-23h24.97c5.32,0,9.65-4.33,9.65-9.65v-21.6c0-5.32-4.33-9.65-9.65-9.65h-48.05v116.84Z"></path><g><path class="cls-3" d="m258.59,188.75c-1.9,0-3.67-.37-5.31-1.11-1.64-.74-3.07-1.77-4.3-3.08-1.22-1.31-2.18-2.83-2.88-4.55-.69-1.72-1.04-3.56-1.04-5.52s.36-3.91,1.09-5.63,1.72-3.23,2.98-4.51,2.71-2.28,4.34-2.99,3.35-1.07,5.17-1.07c2.07,0,4.04.48,5.91,1.45s3.48,2.37,4.83,4.2l-2.94,1.59c-1.01-1.28-2.2-2.26-3.58-2.94-1.38-.68-2.79-1.02-4.25-1.02s-2.7.28-3.93.84c-1.24.56-2.33,1.35-3.28,2.35-.95,1.01-1.69,2.17-2.23,3.49s-.8,2.75-.8,4.3.27,2.92.8,4.24,1.27,2.48,2.21,3.48,2.03,1.78,3.27,2.34,2.57.84,3.98.84c1.12,0,2.2-.19,3.21-.57,1.01-.38,1.95-.92,2.8-1.61.86-.69,1.59-1.51,2.2-2.45.61-.94,1.07-1.97,1.38-3.1h-6.77v-2.94h10.62c-.01,1.92-.38,3.73-1.09,5.42s-1.69,3.17-2.92,4.45c-1.24,1.28-2.66,2.29-4.28,3.01-1.62.73-3.35,1.09-5.19,1.09Z"></path><path class="cls-3" d="m275.92,188.24v-19.62h3.29v2.45c.69-.92,1.57-1.65,2.63-2.19,1.06-.54,2.21-.81,3.45-.81.76,0,1.49.1,2.2.29l-1.33,3.3c-.54-.17-1.06-.25-1.57-.25-.98,0-1.88.24-2.7.72-.82.48-1.47,1.12-1.95,1.93-.48.81-.73,1.71-.73,2.71v11.48h-3.29Z"></path><path class="cls-3" d="m289.06,180.78v-12.17h3.3v11.44c0,.99.24,1.9.73,2.71.48.81,1.13,1.46,1.95,1.93.82.48,1.72.72,2.7.72s1.89-.24,2.7-.72c.8-.48,1.45-1.12,1.93-1.93.48-.81.72-1.71.72-2.71v-11.44h3.3l.02,19.62h-3.3l-.02-2.49c-.69.92-1.57,1.65-2.63,2.19-1.06.54-2.2.81-3.43.81-1.46,0-2.8-.36-4.01-1.07-1.21-.71-2.17-1.67-2.88-2.87s-1.07-2.54-1.07-4.02Z"></path><path class="cls-3" d="m313.1,198.05h-3.29v-29.43h3.29v3.36c.67-1.15,1.56-2.08,2.67-2.8,1.11-.71,2.43-1.07,3.96-1.07,1.43,0,2.76.27,4.01.8,1.25.54,2.35,1.28,3.29,2.23s1.68,2.04,2.22,3.29c.54,1.24.8,2.58.8,4s-.27,2.77-.8,4.02c-.54,1.26-1.28,2.36-2.22,3.31-.94.95-2.04,1.69-3.29,2.23-1.25.54-2.59.8-4.01.8-1.53,0-2.85-.36-3.96-1.07-1.11-.71-2-1.65-2.67-2.8v13.13Zm6.59-26.74c-1.27,0-2.38.32-3.34.96-.96.64-1.69,1.5-2.21,2.57-.52,1.07-.78,2.27-.78,3.59s.26,2.5.78,3.59c.52,1.09,1.25,1.95,2.2,2.59s2.06.96,3.35.96,2.43-.32,3.49-.95c1.06-.63,1.91-1.49,2.55-2.57s.96-2.29.96-3.62-.31-2.5-.94-3.58c-.63-1.08-1.47-1.94-2.53-2.58-1.06-.64-2.24-.96-3.53-.96Z"></path><path class="cls-3" d="m341.82,188.75c-1.8,0-3.45-.46-4.93-1.39s-2.67-2.17-3.55-3.74c-.88-1.56-1.32-3.29-1.32-5.19,0-1.44.25-2.78.76-4.03s1.21-2.35,2.11-3.3,1.94-1.69,3.13-2.23c1.19-.54,2.46-.8,3.8-.8,1.81,0,3.45.46,4.94,1.39s2.67,2.18,3.55,3.75c.88,1.57,1.32,3.31,1.32,5.22,0,1.43-.25,2.76-.76,4-.51,1.24-1.21,2.34-2.11,3.29-.9.95-1.94,1.69-3.12,2.23s-2.46.8-3.82.8Zm0-3.3c1.23,0,2.34-.32,3.33-.97.99-.65,1.77-1.5,2.34-2.57.57-1.07.85-2.23.85-3.48s-.29-2.46-.87-3.53c-.58-1.07-1.36-1.93-2.35-2.57-.98-.64-2.08-.96-3.3-.96s-2.33.32-3.31.97c-.98.65-1.76,1.51-2.34,2.58-.58,1.07-.86,2.24-.86,3.51s.29,2.5.88,3.56c.59,1.07,1.38,1.91,2.38,2.53s2.08.93,3.26.93Z"></path><path class="cls-3" d="m365.17,188.24v-27.47h3.3v27.47h-3.3Z"></path><path class="cls-3" d="m391.11,176.04v12.2h-3.3v-11.48c0-.99-.24-1.9-.73-2.71-.48-.81-1.13-1.46-1.94-1.93-.81-.48-1.71-.72-2.71-.72s-1.88.24-2.7.72c-.82.48-1.47,1.12-1.95,1.93-.48.81-.73,1.71-.73,2.71v11.48h-3.3v-19.62h3.3v2.45c.69-.92,1.57-1.65,2.63-2.19,1.06-.54,2.21-.81,3.45-.81,1.46,0,2.8.36,4.01,1.07,1.21.71,2.17,1.67,2.88,2.88s1.07,2.54,1.07,4.02Z"></path><path class="cls-3" d="m410.44,158.81h3.29v29.43h-3.29v-3.34c-.67,1.15-1.56,2.08-2.69,2.79-1.12.71-2.45,1.06-3.96,1.06-1.43,0-2.76-.27-4-.8-1.24-.54-2.34-1.28-3.29-2.23-.95-.95-1.69-2.04-2.23-3.29-.54-1.24-.8-2.58-.8-4s.27-2.76.8-4.01c.54-1.25,1.28-2.35,2.23-3.3s2.04-1.69,3.29-2.23c1.24-.54,2.58-.8,4-.8,1.52,0,2.84.35,3.96,1.06,1.12.71,2.02,1.63,2.69,2.79v-13.13Zm-6.61,26.74c1.29,0,2.42-.32,3.37-.95.95-.63,1.68-1.49,2.2-2.58.52-1.09.78-2.28.78-3.59s-.26-2.54-.79-3.62-1.26-1.94-2.21-2.57-2.06-.95-3.35-.95-2.47.32-3.52.96c-1.05.64-1.89,1.5-2.52,2.58-.63,1.08-.94,2.28-.94,3.6s.32,2.52.96,3.6,1.49,1.94,2.55,2.57c1.06.63,2.22.95,3.47.95Z"></path><path class="cls-3" d="m417.66,180.78v-12.17h3.3v11.44c0,.99.24,1.9.72,2.71.48.81,1.13,1.46,1.95,1.93.82.48,1.72.72,2.7.72s1.89-.24,2.7-.72c.8-.48,1.45-1.12,1.93-1.93.48-.81.73-1.71.73-2.71v-11.44h3.3l.02,19.62h-3.3l-.02-2.49c-.69.92-1.57,1.65-2.63,2.19-1.06.54-2.21.81-3.43.81-1.47,0-2.8-.36-4.01-1.07-1.21-.71-2.17-1.67-2.88-2.87s-1.07-2.54-1.07-4.02Z"></path><path class="cls-3" d="m444.91,188.61c-1.06-.04-2.09-.24-3.09-.6s-1.88-.85-2.63-1.47-1.3-1.34-1.64-2.15l2.83-1.22c.2.45.55.86,1.06,1.26s1.1.71,1.77.94c.67.24,1.34.35,2.02.35.72,0,1.39-.11,2.02-.33.63-.22,1.14-.55,1.54-.99.4-.44.6-.96.6-1.58,0-.65-.22-1.17-.66-1.54-.44-.37-.99-.67-1.65-.88s-1.33-.42-2.01-.62c-1.35-.34-2.55-.75-3.61-1.23-1.06-.48-1.89-1.09-2.5-1.83-.61-.74-.91-1.68-.91-2.83,0-1.22.34-2.27,1.01-3.16.67-.89,1.56-1.58,2.66-2.06,1.1-.48,2.28-.73,3.53-.73,1.58,0,3.03.34,4.34,1.02,1.31.68,2.28,1.6,2.92,2.77l-2.65,1.55c-.22-.47-.56-.89-1.02-1.25-.46-.36-.98-.64-1.57-.85-.59-.21-1.19-.32-1.8-.33-.76-.03-1.47.07-2.13.29-.66.22-1.19.56-1.59,1.01-.4.45-.6,1.01-.6,1.68s.21,1.15.64,1.49c.43.34.98.61,1.67.81.69.2,1.44.44,2.25.7,1.19.38,2.3.82,3.34,1.31s1.87,1.12,2.5,1.86c.63.75.95,1.67.93,2.77,0,1.2-.36,2.25-1.08,3.15-.72.9-1.65,1.58-2.79,2.05s-2.37.68-3.68.63Z"></path><path class="cls-3" d="m466,171.92h-4.46l-.02,16.32h-3.3l.02-16.32h-3.37v-3.3h3.37l-.02-6.16h3.3l.02,6.16h4.46v3.3Z"></path><path class="cls-3" d="m469.52,188.24v-19.62h3.29v2.45c.69-.92,1.57-1.65,2.63-2.19,1.06-.54,2.21-.81,3.45-.81.76,0,1.49.1,2.2.29l-1.33,3.3c-.54-.17-1.06-.25-1.57-.25-.98,0-1.88.24-2.7.72-.82.48-1.47,1.12-1.95,1.93-.48.81-.73,1.71-.73,2.71v11.48h-3.29Z"></path><path class="cls-3" d="m485.17,165.42c-.52,0-.96-.17-1.31-.51-.35-.34-.53-.77-.53-1.28s.18-.94.53-1.28c.35-.34.78-.51,1.29-.51s.94.17,1.29.51.53.76.53,1.28-.17.94-.52,1.28c-.35.34-.78.51-1.29.51Zm-1.69,3.2h3.29v19.62h-3.29v-19.62Z"></path><path class="cls-3" d="m507.01,168.62h3.3v19.62h-3.3l-.14-3.32c-.62,1.14-1.46,2.06-2.54,2.77-1.08.71-2.37,1.06-3.86,1.06s-2.79-.27-4.04-.81c-1.25-.54-2.36-1.29-3.32-2.26-.96-.96-1.71-2.07-2.25-3.33-.54-1.25-.8-2.61-.8-4.06s.26-2.72.78-3.96,1.25-2.33,2.19-3.27c.94-.94,2.02-1.67,3.25-2.2,1.23-.53,2.55-.79,3.96-.79,1.54,0,2.9.36,4.06,1.09,1.16.73,2.11,1.66,2.83,2.82l-.12-3.36Zm-6.59,16.93c1.29,0,2.42-.32,3.37-.95.95-.63,1.68-1.49,2.2-2.58.52-1.09.78-2.28.78-3.59s-.26-2.54-.79-3.62-1.26-1.94-2.21-2.57c-.95-.63-2.06-.95-3.35-.95s-2.47.32-3.53.96c-1.06.64-1.9,1.5-2.52,2.58-.62,1.08-.93,2.28-.93,3.6s.32,2.52.96,3.6c.64,1.08,1.49,1.94,2.55,2.57,1.06.63,2.22.95,3.47.95Z"></path><path class="cls-3" d="m514.45,188.24v-29.43h3.3v29.43h-3.3Z"></path><path class="cls-3" d="m261.65,201.17h3.3v29.43h-3.3v-3.34c-.67,1.15-1.56,2.08-2.69,2.79-1.12.71-2.45,1.06-3.96,1.06-1.43,0-2.76-.27-4-.8-1.24-.54-2.34-1.28-3.29-2.23-.95-.95-1.69-2.04-2.23-3.29-.54-1.24-.8-2.58-.8-4s.27-2.76.8-4.01c.54-1.25,1.28-2.35,2.23-3.3.95-.95,2.04-1.69,3.29-2.23,1.24-.54,2.58-.8,4-.8,1.52,0,2.84.35,3.96,1.06,1.12.71,2.02,1.63,2.69,2.79v-13.13Zm-6.61,26.74c1.29,0,2.42-.32,3.37-.95.95-.63,1.68-1.49,2.2-2.58.52-1.09.78-2.28.78-3.59s-.26-2.54-.79-3.62-1.26-1.94-2.21-2.57c-.95-.63-2.06-.95-3.35-.95s-2.47.32-3.52.96c-1.05.64-1.89,1.5-2.52,2.58-.63,1.08-.94,2.28-.94,3.6s.32,2.52.96,3.6c.64,1.08,1.49,1.94,2.55,2.57,1.06.63,2.22.95,3.47.95Z"></path><path class="cls-3" d="m278.12,231.11c-1.8,0-3.45-.46-4.94-1.39s-2.67-2.17-3.55-3.74c-.88-1.56-1.32-3.29-1.32-5.19,0-1.44.26-2.78.77-4.03s1.21-2.35,2.11-3.3c.89-.95,1.94-1.69,3.13-2.23,1.19-.54,2.46-.8,3.81-.8,1.48,0,2.84.3,4.07.89,1.23.59,2.29,1.42,3.18,2.48s1.54,2.29,1.98,3.69c.44,1.4.6,2.9.48,4.49h-16.01c.16,1.11.52,2.1,1.1,2.97.57.87,1.31,1.56,2.21,2.07.9.51,1.89.77,2.99.79,1.18,0,2.24-.3,3.2-.91.96-.61,1.73-1.44,2.32-2.5l3.36.79c-.79,1.74-1.97,3.16-3.55,4.27-1.58,1.11-3.35,1.66-5.32,1.66Zm-6.4-11.71h12.79c-.11-1.1-.46-2.1-1.06-3.01-.6-.91-1.37-1.64-2.29-2.19-.93-.55-1.94-.82-3.04-.82s-2.11.27-3.02.8-1.67,1.26-2.27,2.17c-.6.91-.96,1.93-1.11,3.05Z"></path><path class="cls-3" d="m300.84,230.6v-27.47h9.06c1.48,0,2.81.36,3.99,1.08,1.18.72,2.13,1.69,2.83,2.91.7,1.22,1.05,2.59,1.05,4.09s-.36,2.91-1.07,4.13c-.71,1.22-1.67,2.19-2.87,2.9s-2.51,1.07-3.93,1.07h-5.77v11.28h-3.29Zm3.29-14.58h5.47c.89,0,1.71-.22,2.44-.66s1.33-1.03,1.77-1.79c.44-.75.66-1.6.66-2.54s-.22-1.81-.66-2.56c-.44-.75-1.03-1.35-1.77-1.79s-1.55-.66-2.44-.66h-5.47v9.99Z"></path><path class="cls-3" d="m321.16,230.6v-19.62h3.3v2.45c.69-.92,1.57-1.65,2.63-2.19,1.06-.54,2.21-.81,3.45-.81.76,0,1.49.1,2.2.29l-1.33,3.3c-.54-.17-1.06-.25-1.57-.25-.98,0-1.88.24-2.7.72-.82.48-1.47,1.12-1.95,1.93-.48.81-.73,1.71-.73,2.71v11.48h-3.3Z"></path><path class="cls-3" d="m342.77,231.11c-1.8,0-3.45-.46-4.94-1.39s-2.67-2.17-3.55-3.74c-.88-1.56-1.32-3.29-1.32-5.19,0-1.44.26-2.78.77-4.03s1.21-2.35,2.11-3.3c.89-.95,1.94-1.69,3.13-2.23,1.19-.54,2.46-.8,3.81-.8,1.8,0,3.45.46,4.94,1.39,1.48.93,2.67,2.18,3.55,3.75.88,1.57,1.32,3.31,1.32,5.22,0,1.43-.26,2.76-.77,4-.51,1.24-1.21,2.34-2.11,3.29-.9.95-1.94,1.69-3.12,2.23s-2.46.8-3.82.8Zm0-3.3c1.23,0,2.34-.32,3.33-.97.99-.65,1.77-1.5,2.33-2.57.57-1.07.85-2.23.85-3.48s-.29-2.46-.87-3.53c-.58-1.07-1.36-1.93-2.34-2.57-.98-.64-2.08-.96-3.3-.96s-2.33.32-3.32.97c-.98.65-1.76,1.51-2.33,2.58-.58,1.07-.86,2.24-.86,3.51s.29,2.5.88,3.56c.59,1.07,1.38,1.91,2.37,2.53s2.08.93,3.26.93Z"></path><path class="cls-3" d="m368.23,210.98h3.49l-10.73,29.43h-3.49l3.55-9.81-7.04-19.62h3.61l5.08,15.09,5.53-15.09Z"></path><path class="cls-3" d="m382.91,231.11c-1.8,0-3.45-.46-4.93-1.39s-2.67-2.17-3.55-3.74c-.88-1.56-1.32-3.29-1.32-5.19,0-1.44.25-2.78.76-4.03s1.21-2.35,2.11-3.3,1.94-1.69,3.13-2.23c1.19-.54,2.46-.8,3.8-.8,1.48,0,2.84.3,4.07.89,1.24.59,2.29,1.42,3.18,2.48.88,1.06,1.54,2.29,1.98,3.69.44,1.4.6,2.9.48,4.49h-16.01c.16,1.11.52,2.1,1.1,2.97.58.87,1.31,1.56,2.21,2.07.9.51,1.89.77,2.99.79,1.18,0,2.24-.3,3.2-.91s1.73-1.44,2.31-2.5l3.36.79c-.79,1.74-1.97,3.16-3.55,4.27s-3.36,1.66-5.32,1.66Zm-6.39-11.71h12.79c-.1-1.1-.46-2.1-1.06-3.01-.6-.91-1.37-1.64-2.29-2.19-.93-.55-1.94-.82-3.04-.82s-2.11.27-3.02.8c-.91.54-1.67,1.26-2.27,2.17s-.96,1.93-1.11,3.05Z"></path><path class="cls-3" d="m409.34,225.42l2.94,1.59c-.89,1.24-2.02,2.24-3.38,2.98-1.37.75-2.85,1.12-4.44,1.12-1.8,0-3.45-.46-4.94-1.39s-2.67-2.17-3.55-3.74c-.88-1.56-1.32-3.29-1.32-5.19,0-1.44.26-2.78.77-4.03s1.21-2.35,2.11-3.3c.89-.95,1.94-1.69,3.13-2.23,1.19-.54,2.46-.8,3.81-.8,1.6,0,3.08.37,4.44,1.12,1.37.75,2.5,1.75,3.38,3l-2.94,1.59c-.63-.77-1.37-1.37-2.24-1.79s-1.75-.63-2.65-.63c-1.22,0-2.32.32-3.31.97-.99.65-1.77,1.51-2.34,2.58-.58,1.07-.86,2.24-.86,3.51s.29,2.44.87,3.5c.58,1.07,1.37,1.92,2.35,2.56.99.64,2.08.96,3.29.96.97,0,1.88-.22,2.73-.67.85-.44,1.57-1.02,2.16-1.73Z"></path><path class="cls-3" d="m425.98,214.28h-4.45l-.02,16.32h-3.3l.02-16.32h-3.38v-3.3h3.38l-.02-6.16h3.3l.02,6.16h4.45v3.3Z"></path><path class="cls-3" d="m437.61,231.11c-1.8,0-3.45-.46-4.93-1.39s-2.67-2.17-3.55-3.74c-.88-1.56-1.32-3.29-1.32-5.19,0-1.44.25-2.78.76-4.03s1.21-2.35,2.11-3.3,1.94-1.69,3.13-2.23c1.19-.54,2.46-.8,3.8-.8,1.81,0,3.45.46,4.94,1.39s2.67,2.18,3.55,3.75c.88,1.57,1.32,3.31,1.32,5.22,0,1.43-.25,2.76-.76,4-.51,1.24-1.21,2.34-2.11,3.29-.9.95-1.94,1.69-3.12,2.23s-2.46.8-3.82.8Zm0-3.3c1.23,0,2.34-.32,3.33-.97.99-.65,1.77-1.5,2.34-2.57.57-1.07.85-2.23.85-3.48s-.29-2.46-.87-3.53c-.58-1.07-1.36-1.93-2.35-2.57-.98-.64-2.08-.96-3.3-.96s-2.33.32-3.31.97c-.98.65-1.76,1.51-2.34,2.58-.58,1.07-.86,2.24-.86,3.51s.29,2.5.88,3.56c.59,1.07,1.38,1.91,2.38,2.53s2.08.93,3.26.93Z"></path><path class="cls-3" d="m456.77,230.98c-1.06-.04-2.09-.24-3.09-.6-1-.36-1.88-.85-2.63-1.47s-1.3-1.34-1.64-2.15l2.82-1.22c.2.45.55.86,1.06,1.26.51.39,1.1.71,1.77.94.67.24,1.34.35,2.02.35.72,0,1.39-.11,2.02-.33.63-.22,1.14-.55,1.54-.99.4-.44.6-.96.6-1.58,0-.65-.22-1.17-.66-1.54-.44-.37-.99-.67-1.65-.88s-1.33-.42-2.01-.62c-1.35-.34-2.55-.75-3.61-1.23-1.06-.48-1.89-1.09-2.5-1.83-.61-.74-.91-1.68-.91-2.83,0-1.22.34-2.27,1.01-3.16s1.56-1.58,2.66-2.06c1.1-.48,2.28-.73,3.53-.73,1.58,0,3.03.34,4.34,1.02,1.31.68,2.28,1.6,2.92,2.77l-2.65,1.55c-.22-.47-.56-.89-1.02-1.25-.46-.36-.98-.64-1.57-.85-.59-.21-1.19-.32-1.8-.33-.76-.03-1.47.07-2.13.29s-1.19.56-1.59,1.01c-.4.45-.6,1.01-.6,1.68s.21,1.15.64,1.49c.43.34.98.61,1.67.81.69.2,1.44.44,2.25.7,1.19.38,2.3.82,3.33,1.31s1.87,1.12,2.5,1.86c.63.75.95,1.67.93,2.77,0,1.2-.36,2.25-1.08,3.15-.72.9-1.65,1.58-2.8,2.05s-2.37.68-3.68.63Z"></path></g></g></g></svg>