<svg xmlns="http://www.w3.org/2000/svg" xmlns:xlink="http://www.w3.org/1999/xlink" width="500" zoomAndPan="magnify" viewBox="0 0 375 374.999991" height="500" preserveAspectRatio="xMidYMid meet" version="1.0"><path fill="#38b6ff" d="M 16.417969 152.019531 L 29.292969 152.019531 L 29.292969 168.847656 C 27.207031 169.535156 25.246094 170.015625 23.402344 170.285156 C 21.558594 170.554688 19.671875 170.691406 17.746094 170.691406 C 12.847656 170.691406 9.109375 169.253906 6.527344 166.378906 C 3.941406 163.503906 2.652344 159.371094 2.652344 153.972656 C 2.652344 148.734375 4.152344 144.652344 7.152344 141.722656 C 10.152344 138.796875 14.308594 137.332031 19.621094 137.332031 C 22.941406 137.332031 26.152344 138 29.246094 139.332031 L 26.964844 144.832031 C 24.597656 143.644531 22.136719 143.050781 19.574219 143.050781 C 16.59375 143.050781 14.207031 144.050781 12.417969 146.050781 C 10.625 148.050781 9.730469 150.738281 9.730469 154.113281 C 9.730469 157.636719 10.449219 160.328125 11.886719 162.191406 C 13.332031 164.046875 15.4375 164.972656 18.199219 164.972656 C 19.636719 164.972656 21.09375 164.824219 22.574219 164.519531 L 22.574219 157.753906 L 16.417969 157.753906 Z M 16.417969 152.019531 " fill-opacity="1" fill-rule="nonzero"/><path fill="#38b6ff" d="M 43.90625 152.207031 L 46.125 152.207031 C 48.300781 152.207031 49.90625 151.847656 50.9375 151.128906 C 51.976562 150.402344 52.5 149.253906 52.5 147.691406 C 52.5 146.160156 51.96875 145.074219 50.90625 144.425781 C 49.851562 143.769531 48.210938 143.441406 45.984375 143.441406 L 43.90625 143.441406 Z M 43.90625 157.800781 L 43.90625 170.253906 L 37.015625 170.253906 L 37.015625 137.800781 L 46.484375 137.800781 C 50.890625 137.800781 54.148438 138.605469 56.265625 140.207031 C 58.390625 141.8125 59.453125 144.25 59.453125 147.519531 C 59.453125 149.425781 58.925781 151.125 57.875 152.613281 C 56.820312 154.105469 55.332031 155.269531 53.40625 156.113281 C 58.289062 163.40625 61.472656 168.121094 62.953125 170.253906 L 55.3125 170.253906 L 47.5625 157.800781 Z M 43.90625 157.800781 " fill-opacity="1" fill-rule="nonzero"/><path fill="#38b6ff" d="M 93.453125 137.800781 L 93.453125 158.800781 C 93.453125 161.199219 92.914062 163.300781 91.84375 165.113281 C 90.769531 166.917969 89.21875 168.296875 87.1875 169.253906 C 85.164062 170.214844 82.769531 170.691406 80 170.691406 C 75.832031 170.691406 72.59375 169.625 70.28125 167.488281 C 67.96875 165.355469 66.8125 162.425781 66.8125 158.707031 L 66.8125 137.800781 L 73.671875 137.800781 L 73.671875 157.660156 C 73.671875 160.160156 74.175781 162 75.1875 163.175781 C 76.195312 164.34375 77.863281 164.925781 80.1875 164.925781 C 82.4375 164.925781 84.066406 164.339844 85.078125 163.160156 C 86.085938 161.984375 86.59375 160.140625 86.59375 157.628906 L 86.59375 137.800781 Z M 93.453125 137.800781 " fill-opacity="1" fill-rule="nonzero"/><path fill="#38b6ff" d="M 108.289062 153.066406 L 110.554688 153.066406 C 112.667969 153.066406 114.25 152.652344 115.304688 151.816406 C 116.355469 150.984375 116.882812 149.765625 116.882812 148.160156 C 116.882812 146.546875 116.4375 145.359375 115.554688 144.597656 C 114.679688 143.828125 113.296875 143.441406 111.414062 143.441406 L 108.289062 143.441406 Z M 123.835938 147.925781 C 123.835938 151.417969 122.742188 154.089844 120.554688 155.941406 C 118.367188 157.785156 115.261719 158.707031 111.242188 158.707031 L 108.289062 158.707031 L 108.289062 170.253906 L 101.398438 170.253906 L 101.398438 137.800781 L 111.773438 137.800781 C 115.710938 137.800781 118.703125 138.652344 120.757812 140.347656 C 122.808594 142.035156 123.835938 144.5625 123.835938 147.925781 Z M 123.835938 147.925781 " fill-opacity="1" fill-rule="nonzero"/><path fill="#38b6ff" d="M 159.417969 153.972656 C 159.417969 159.347656 158.082031 163.480469 155.417969 166.363281 C 152.75 169.25 148.933594 170.691406 143.964844 170.691406 C 138.996094 170.691406 135.175781 169.25 132.511719 166.363281 C 129.84375 163.480469 128.511719 159.339844 128.511719 153.941406 C 128.511719 148.535156 129.84375 144.410156 132.511719 141.566406 C 135.1875 138.714844 139.019531 137.285156 144.011719 137.285156 C 149 137.285156 152.8125 138.722656 155.449219 141.597656 C 158.09375 144.464844 159.417969 148.589844 159.417969 153.972656 Z M 135.730469 153.972656 C 135.730469 157.609375 136.417969 160.34375 137.792969 162.175781 C 139.167969 164.011719 141.222656 164.925781 143.964844 164.925781 C 149.453125 164.925781 152.199219 161.277344 152.199219 153.972656 C 152.199219 146.671875 149.46875 143.019531 144.011719 143.019531 C 141.269531 143.019531 139.203125 143.941406 137.808594 145.785156 C 136.421875 147.621094 135.730469 150.347656 135.730469 153.972656 Z M 135.730469 153.972656 " fill-opacity="1" fill-rule="nonzero"/><path fill="#38b6ff" d="M 177.949219 170.253906 L 177.949219 137.800781 L 184.839844 137.800781 L 184.839844 164.566406 L 198.011719 164.566406 L 198.011719 170.253906 Z M 177.949219 170.253906 " fill-opacity="1" fill-rule="nonzero"/><path fill="#38b6ff" d="M 230.246094 170.253906 L 223.386719 170.253906 L 223.386719 156.238281 L 210.527344 156.238281 L 210.527344 170.253906 L 203.636719 170.253906 L 203.636719 137.800781 L 210.527344 137.800781 L 210.527344 150.519531 L 223.386719 150.519531 L 223.386719 137.800781 L 230.246094 137.800781 Z M 230.246094 170.253906 " fill-opacity="1" fill-rule="nonzero"/><path fill="#38b6ff" d="M 267.894531 153.972656 C 267.894531 159.347656 266.558594 163.480469 263.894531 166.363281 C 261.226562 169.25 257.410156 170.691406 252.441406 170.691406 C 247.472656 170.691406 243.652344 169.25 240.988281 166.363281 C 238.320312 163.480469 236.988281 159.339844 236.988281 153.941406 C 236.988281 148.535156 238.320312 144.410156 240.988281 141.566406 C 243.664062 138.714844 247.496094 137.285156 252.488281 137.285156 C 257.476562 137.285156 261.289062 138.722656 263.925781 141.597656 C 266.570312 144.464844 267.894531 148.589844 267.894531 153.972656 Z M 244.207031 153.972656 C 244.207031 157.609375 244.894531 160.34375 246.269531 162.175781 C 247.644531 164.011719 249.699219 164.925781 252.441406 164.925781 C 257.929688 164.925781 260.675781 161.277344 260.675781 153.972656 C 260.675781 146.671875 257.945312 143.019531 252.488281 143.019531 C 249.746094 143.019531 247.679688 143.941406 246.285156 145.785156 C 244.898438 147.621094 244.207031 150.347656 244.207031 153.972656 Z M 244.207031 153.972656 " fill-opacity="1" fill-rule="nonzero"/><path fill="#38b6ff" d="M 288.363281 170.253906 L 280.550781 144.785156 L 280.347656 144.785156 C 280.628906 149.972656 280.769531 153.433594 280.769531 155.160156 L 280.769531 170.253906 L 274.613281 170.253906 L 274.613281 137.800781 L 283.988281 137.800781 L 291.675781 162.613281 L 291.800781 162.613281 L 299.957031 137.800781 L 309.316406 137.800781 L 309.316406 170.253906 L 302.910156 170.253906 L 302.910156 154.894531 C 302.910156 154.167969 302.917969 153.328125 302.941406 152.378906 C 302.960938 151.433594 303.058594 148.917969 303.238281 144.832031 L 303.035156 144.832031 L 294.675781 170.253906 Z M 288.363281 170.253906 " fill-opacity="1" fill-rule="nonzero"/><path fill="#38b6ff" d="M 343.589844 170.253906 L 335.777344 170.253906 L 327.277344 156.582031 L 324.371094 158.660156 L 324.371094 170.253906 L 317.480469 170.253906 L 317.480469 137.800781 L 324.371094 137.800781 L 324.371094 152.644531 L 327.074219 148.832031 L 335.871094 137.800781 L 343.511719 137.800781 L 332.183594 152.160156 Z M 343.589844 170.253906 " fill-opacity="1" fill-rule="nonzero"/><path fill="#38b6ff" d="M 367.550781 170.253906 L 365.207031 162.535156 L 353.363281 162.535156 L 351.019531 170.253906 L 343.597656 170.253906 L 355.050781 137.660156 L 363.472656 137.660156 L 374.972656 170.253906 Z M 363.550781 156.753906 C 361.382812 149.753906 360.160156 145.796875 359.878906 144.878906 C 359.605469 143.964844 359.414062 143.238281 359.300781 142.707031 C 358.808594 144.605469 357.410156 149.285156 355.097656 156.753906 Z M 363.550781 156.753906 " fill-opacity="1" fill-rule="nonzero"/><path fill="#38b6ff" d="M 157.054688 224.332031 C 157.054688 227.261719 155.996094 229.566406 153.882812 231.253906 C 151.777344 232.941406 148.84375 233.785156 145.085938 233.785156 C 141.617188 233.785156 138.554688 233.136719 135.898438 231.832031 L 135.898438 225.441406 C 138.085938 226.421875 139.933594 227.113281 141.445312 227.519531 C 142.964844 227.917969 144.355469 228.113281 145.617188 228.113281 C 147.125 228.113281 148.28125 227.828125 149.085938 227.253906 C 149.898438 226.671875 150.304688 225.808594 150.304688 224.660156 C 150.304688 224.027344 150.125 223.464844 149.773438 222.972656 C 149.417969 222.472656 148.890625 221.996094 148.195312 221.535156 C 147.507812 221.078125 146.105469 220.34375 143.992188 219.332031 C 142.011719 218.40625 140.523438 217.515625 139.523438 216.660156 C 138.53125 215.796875 137.742188 214.796875 137.148438 213.660156 C 136.5625 212.515625 136.273438 211.183594 136.273438 209.660156 C 136.273438 206.785156 137.242188 204.53125 139.179688 202.894531 C 141.125 201.25 143.820312 200.425781 147.257812 200.425781 C 148.945312 200.425781 150.554688 200.628906 152.085938 201.035156 C 153.617188 201.433594 155.21875 201.988281 156.898438 202.707031 L 154.679688 208.066406 C 152.9375 207.347656 151.5 206.847656 150.367188 206.566406 C 149.242188 206.285156 148.132812 206.144531 147.039062 206.144531 C 145.734375 206.144531 144.734375 206.453125 144.039062 207.066406 C 143.339844 207.671875 142.992188 208.464844 142.992188 209.441406 C 142.992188 210.046875 143.132812 210.578125 143.414062 211.035156 C 143.695312 211.484375 144.140625 211.921875 144.757812 212.347656 C 145.371094 212.765625 146.824219 213.519531 149.117188 214.613281 C 152.15625 216.0625 154.242188 217.515625 155.367188 218.972656 C 156.492188 220.433594 157.054688 222.21875 157.054688 224.332031 Z M 157.054688 224.332031 " fill-opacity="1" fill-rule="nonzero"/><path fill="#38b6ff" d="M 161.441406 230.175781 C 161.441406 228.925781 161.773438 227.984375 162.441406 227.347656 C 163.105469 226.714844 164.074219 226.394531 165.347656 226.394531 C 166.574219 226.394531 167.527344 226.722656 168.207031 227.378906 C 168.882812 228.027344 169.222656 228.957031 169.222656 230.175781 C 169.222656 231.34375 168.878906 232.265625 168.191406 232.941406 C 167.511719 233.605469 166.566406 233.941406 165.347656 233.941406 C 164.105469 233.941406 163.144531 233.613281 162.457031 232.957031 C 161.777344 232.300781 161.441406 231.375 161.441406 230.175781 Z M 161.441406 230.175781 " fill-opacity="1" fill-rule="nonzero"/><path fill="#38b6ff" d="M 195.765625 233.347656 L 193.421875 225.628906 L 181.578125 225.628906 L 179.234375 233.347656 L 171.8125 233.347656 L 183.265625 200.753906 L 191.6875 200.753906 L 203.1875 233.347656 Z M 191.765625 219.847656 C 189.597656 212.847656 188.375 208.890625 188.09375 207.972656 C 187.820312 207.058594 187.628906 206.332031 187.515625 205.800781 C 187.023438 207.699219 185.625 212.378906 183.3125 219.847656 Z M 191.765625 219.847656 " fill-opacity="1" fill-rule="nonzero"/><path fill="#38b6ff" d="M 205.777344 230.175781 C 205.777344 228.925781 206.109375 227.984375 206.777344 227.347656 C 207.441406 226.714844 208.410156 226.394531 209.683594 226.394531 C 210.910156 226.394531 211.863281 226.722656 212.542969 227.378906 C 213.21875 228.027344 213.558594 228.957031 213.558594 230.175781 C 213.558594 231.34375 213.214844 232.265625 212.527344 232.941406 C 211.847656 233.605469 210.902344 233.941406 209.683594 233.941406 C 208.441406 233.941406 207.480469 233.613281 206.792969 232.957031 C 206.113281 232.300781 205.777344 231.375 205.777344 230.175781 Z M 205.777344 230.175781 " fill-opacity="1" fill-rule="nonzero"/><path fill="#38b6ff" d="M 239.398438 224.332031 C 239.398438 227.261719 238.339844 229.566406 236.226562 231.253906 C 234.121094 232.941406 231.1875 233.785156 227.429688 233.785156 C 223.960938 233.785156 220.898438 233.136719 218.242188 231.832031 L 218.242188 225.441406 C 220.429688 226.421875 222.277344 227.113281 223.789062 227.519531 C 225.308594 227.917969 226.699219 228.113281 227.960938 228.113281 C 229.46875 228.113281 230.625 227.828125 231.429688 227.253906 C 232.242188 226.671875 232.648438 225.808594 232.648438 224.660156 C 232.648438 224.027344 232.46875 223.464844 232.117188 222.972656 C 231.761719 222.472656 231.234375 221.996094 230.539062 221.535156 C 229.851562 221.078125 228.449219 220.34375 226.335938 219.332031 C 224.355469 218.40625 222.867188 217.515625 221.867188 216.660156 C 220.875 215.796875 220.085938 214.796875 219.492188 213.660156 C 218.90625 212.515625 218.617188 211.183594 218.617188 209.660156 C 218.617188 206.785156 219.585938 204.53125 221.523438 202.894531 C 223.46875 201.25 226.164062 200.425781 229.601562 200.425781 C 231.289062 200.425781 232.898438 200.628906 234.429688 201.035156 C 235.960938 201.433594 237.5625 201.988281 239.242188 202.707031 L 237.023438 208.066406 C 235.28125 207.347656 233.84375 206.847656 232.710938 206.566406 C 231.585938 206.285156 230.476562 206.144531 229.382812 206.144531 C 228.078125 206.144531 227.078125 206.453125 226.382812 207.066406 C 225.683594 207.671875 225.335938 208.464844 225.335938 209.441406 C 225.335938 210.046875 225.476562 210.578125 225.757812 211.035156 C 226.039062 211.484375 226.484375 211.921875 227.101562 212.347656 C 227.714844 212.765625 229.167969 213.519531 231.460938 214.613281 C 234.5 216.0625 236.585938 217.515625 237.710938 218.972656 C 238.835938 220.433594 239.398438 222.21875 239.398438 224.332031 Z M 239.398438 224.332031 " fill-opacity="1" fill-rule="nonzero"/></svg>