<?xml version="1.0" standalone="no"?>
<!DOCTYPE svg PUBLIC "-//W3C//DTD SVG 20010904//EN"
 "http://www.w3.org/TR/2001/REC-SVG-20010904/DTD/svg10.dtd">
<svg version="1.0" xmlns="http://www.w3.org/2000/svg"
 width="225.000000pt" height="225.000000pt" viewBox="0 0 225.000000 225.000000"
 preserveAspectRatio="xMidYMid meet">

<g transform="translate(0.000000,225.000000) scale(0.100000,-0.100000)"
fill="#000000" stroke="none">
<path d="M953 2075 c-454 -82 -792 -483 -793 -941 -1 -450 289 -826 729 -946
102 -28 351 -31 455 -5 186 47 324 125 461 262 180 180 267 374 282 626 36
621 -522 1115 -1134 1004z m411 -388 c16 -106 98 -190 219 -224 l57 -16 0 -95
0 -95 -69 5 c-53 4 -86 14 -139 40 l-70 35 -4 -246 c-3 -242 -3 -247 -30 -303
-37 -80 -99 -142 -177 -180 -54 -26 -81 -33 -153 -36 -77 -4 -92 -2 -143 22
-112 51 -187 136 -220 250 -47 160 37 345 192 424 47 24 145 43 186 35 l27 -5
0 -98 0 -98 -59 -4 c-75 -5 -122 -38 -147 -104 -15 -40 -16 -53 -5 -93 33
-125 177 -170 272 -84 22 20 43 50 49 71 6 22 10 198 10 440 l0 402 99 0 99 0
6 -43z"/>
</g>
</svg>
